<svg width="502" height="516" viewBox="0 0 502 516" fill="none" xmlns="http://www.w3.org/2000/svg">
<path fill-rule="evenodd" clip-rule="evenodd" d="M145.227 395.416C143.004 394.59 136.686 389.259 135.442 393.225C138.956 391.125 142.506 397.033 145.227 395.416ZM124.029 385.195C124.334 385.323 122.358 386.587 122.397 385.195C122.853 385.199 123.326 384.607 122.397 384.465C122.386 385.674 120.136 384.874 119.949 385.925C122.208 385.805 122.752 387.047 121.581 388.117C126.781 385.694 130.961 391.661 134.63 390.304C131.255 388.345 126.878 388.142 124.029 385.925C124.095 385.981 125.088 385.635 124.029 385.195ZM106.906 381.551C107.153 384.531 105.776 381.427 103.646 382.281C103.139 386.955 102.211 383.056 102.015 383.011C102.077 383.022 101.906 383.925 101.199 383.738C100.773 383.628 98.9101 381.412 98.7557 383.011C100.904 384.292 97.6646 386.057 97.1282 383.738C96.0103 384.673 96.0103 387.186 97.1282 388.113C100.707 388.438 100.692 386.681 101.199 385.925C102.931 387.431 106.847 384.697 110.165 385.195C109.936 383.219 107.184 383.493 106.906 381.551ZM84.8988 372.791C84.8206 373.944 82.8143 373.362 83.2672 374.981C84.4881 374.857 86.2751 375.238 86.5263 374.251C85.8922 374.089 84.9174 374.234 84.8988 373.522C85.3507 373.524 85.8191 372.933 84.8988 372.791ZM82.4519 370.603C80.0616 371.309 80.6185 369.959 79.1887 369.143C78.5463 368.776 78.0429 368.737 77.5612 368.413C76.8838 367.958 77.2698 367.685 75.9296 367.682C76.7253 367.685 71.9118 369.107 71.85 369.143C70.5972 369.873 65.3235 376.546 65.3276 376.441C65.1269 380.807 69.1601 382.507 75.9296 383.011C79.0445 381.911 79.0796 378.045 82.4519 377.176C83.3104 374.12 80.7307 372.222 82.4519 370.603ZM84.0835 334.112C83.399 335.254 80.5568 338.175 82.4519 339.217C81.8868 336.787 84.1329 338.04 84.8988 338.483C84.5777 336.261 87.041 334.77 84.0835 334.112ZM41.6852 257.471C39.7643 256.851 43.9324 255.677 42.5056 253.092C40.8853 253.081 41.4649 251.105 39.2424 251.631C39.0684 252.451 38.3334 252.77 37.6149 253.092C37.2741 254.851 39.0993 254.677 38.426 256.741C37.97 256.741 37.4985 257.331 38.426 257.471C38.6854 255.055 40.9471 260.322 41.6852 257.471ZM367.311 200.742C365.874 200.337 368.974 197.917 368.936 196.359C370.776 194.646 368.262 198.28 368.936 200.007C367.992 199.893 367.489 200.166 367.311 200.742ZM367.311 212.42C365.17 210.522 366.665 213.596 364.047 213.146V210.959C366.276 211.024 365.687 209.741 367.311 210.959V212.42ZM363.232 214.607C360.298 215.735 363.438 218.51 359.973 219.716C357.821 217.736 362.789 215.95 361.602 212.42C362.594 213.963 364.671 214.537 364.864 216.794C363.863 216.479 363.19 215.863 363.232 214.607ZM339.591 267.158C337.751 266.615 339.274 263.064 338.775 261.32C342.564 261.465 339.087 265.344 339.591 267.158ZM333.068 277.372C334.773 275.25 335.129 271.924 336.332 269.346C337.124 269.366 336.966 270.239 337.148 270.806C335.114 273.752 337.479 276.334 333.068 277.372ZM331.386 279.356C330.234 279.338 328.881 279.497 328.66 278.639C328.935 278.033 329.191 277.32 329.415 276.579C330.636 276.6 331.534 276.909 332.253 277.372C332.168 278.162 331.846 278.83 331.386 279.356ZM328.99 284.675H327.358C327.211 284.052 327.674 283.983 328.169 283.944C328.324 283.319 327.852 283.252 327.358 283.215C327.716 282.128 328.405 283.502 329.809 283.215C329.654 283.807 328.99 283.944 328.99 284.675ZM340.403 240.151C339.846 239.805 339.769 242.414 340.403 241.611C339.965 242.164 339.769 242.248 339.591 241.611C339.606 241.673 338.47 238.95 340.403 240.151ZM315.133 289.783C313.926 291.764 309.983 292.366 307.038 291.667C306.434 290.712 305.182 290.342 303.565 290.286C303.303 289.282 302.788 288.486 302.9 287.597C302.842 288.071 306.233 286.551 302.9 286.136C300.618 284.766 304.187 286.185 304.532 286.136C306.194 285.88 307.254 284.565 308.611 284.675C308.738 285.527 310.095 285.288 311.05 285.405C311.889 289.043 316.795 289.022 320.836 289.783C320.816 289.071 319.837 289.217 319.208 289.057C319.607 288.776 319.919 288.608 320.189 288.503C320.503 288.974 320.917 289.383 321.389 289.76C321.415 290.771 321.265 292.062 321.655 292.698C319.246 291.94 319.262 289.006 315.133 289.783ZM315.945 293.432C316.641 292.348 317.998 291.861 320.024 291.971C319.332 293.051 317.971 293.543 315.945 293.432ZM317.577 296.353C317.17 296.748 318.103 297.225 318.392 297.083C314.769 298.883 313.045 298.776 308.611 298.541C308.359 297.658 310.965 296.022 311.05 297.81C312.18 297.745 314.236 294.962 312.682 294.893C314.552 294.381 317.646 294.429 321.655 294.159C322.173 295.498 318.187 295.762 317.577 296.353ZM313.501 302.923C311.359 301.885 315.218 300.147 316.765 300.002C316.683 301.877 313.579 301.04 313.501 302.923ZM303.72 297.083C302.8 296.333 302.788 295.401 303.009 294.419C303.929 294.775 305.046 294.949 306.646 294.692C306.832 294.131 306.673 293.26 307.459 293.235C307.455 292.927 307.323 292.736 307.257 292.484C308.406 292.66 309.619 292.781 310.242 293.432C308.243 294.803 306.55 296.451 303.72 297.083ZM317.577 283.215C315.791 285.444 312.358 282.37 317.577 283.215V283.215ZM319.141 280.372C319.108 280.695 319.077 281.018 319.053 281.335C318.821 281.255 318.589 281.166 318.392 281.023C318.621 280.75 318.876 280.543 319.141 280.372ZM294.086 320.596C294.07 320.17 294.073 319.73 294.023 319.319C295.306 319.301 295.709 321.769 294.086 320.596ZM290.671 340.872C290.219 342.983 289.4 339.754 288.231 340.144C288.255 339.847 291.796 339.674 289.044 337.223C289.125 336.704 289.662 336.596 290.281 336.559C290.053 336.756 289.805 336.912 289.527 337.022C290.207 337.237 290.81 337.542 291.375 337.815C291.023 339.238 290.041 339.917 290.671 340.872ZM286.6 97.0992C287.54 98.1792 287.54 98.9368 286.6 100.021C286.562 100.009 286.539 99.9892 286.499 99.979C286.97 99.4316 286.484 98.2345 285.209 99.2482C284.582 98.7119 284.091 98.0502 283.506 97.4797C283.693 97.0337 283.879 96.584 284.087 96.1398C284.102 96.2237 284.14 96.279 284.149 96.372C285.069 95.7076 284.102 94.7317 285.78 93.4507C286.987 93.8313 287.837 94.5307 289.044 94.9113C289.191 96.5038 288.379 97.2309 286.6 97.0992ZM291.486 351.823C290.954 354.01 289.748 351.124 288.231 351.823C288.348 350.002 290.988 351.608 291.486 351.823ZM287.412 357.663C285.858 356.699 289.295 355.263 287.412 353.283C290.343 353.799 288.564 356.706 287.412 357.663ZM286.6 350.363C284.045 347.953 288.602 345.825 286.6 350.363V350.363ZM285.27 337.715C285.68 337.607 286.113 337.514 286.468 337.358C286.549 337.763 286.569 338.231 286.6 338.684C286.005 338.498 285.556 338.182 285.27 337.715ZM282.521 358.392C285.223 356.689 284.288 355.471 284.794 352.66C284.903 352.896 285.131 353.08 285.511 353.163C286.337 356.069 285.359 359.856 282.521 358.392ZM280.073 365.685C277.298 364.092 284.481 361.441 281.705 359.849C282.162 357.738 282.974 360.97 284.149 360.58C283.035 362.501 280.72 363.346 280.073 365.685ZM277.626 358.392C281.28 358.547 274.537 363.688 277.626 358.392V358.392ZM276.783 87.6051C276.717 87.5637 276.617 87.5664 276.494 87.6024V87.3139C276.59 87.4042 276.679 87.4844 276.783 87.5839V87.6051ZM276.613 89.2769C276.582 89.0446 276.525 88.8198 276.505 88.5848C276.583 88.6051 276.664 88.6263 276.749 88.6401C276.717 88.8613 276.679 89.0797 276.613 89.2769ZM276.81 92.3991C276.958 92.977 277.112 93.5446 277.252 94.0921C277.109 94.0976 276.961 94.1124 276.81 94.1815V92.3991ZM277.723 82.7973C278.342 83.3125 278.643 83.8498 277.626 83.9604C277.499 83.8802 277.352 83.8184 277.221 83.7383C277.375 83.4305 277.541 83.1153 277.723 82.7973ZM278.047 94.2782C277.723 93.5271 277.452 92.7724 277.221 92.025C278.713 92.2674 277.661 94.7694 280.073 94.1815C279.694 95.7288 278.976 94.7427 278.047 94.2782ZM283.205 95.2026C282.997 95.7352 282.781 96.2651 282.563 96.7812C281.946 96.455 281.179 96.2651 280.073 96.372C280.766 95.7076 282.228 94.998 283.205 95.2026ZM284.095 89.7994C284.084 90.7062 284.041 91.6407 283.906 92.5927C283.314 92.7761 282.765 93.1567 282.521 94.1815C280.839 93.2498 278.388 93.0157 278.442 90.5293C279.486 89.5331 281.946 89.8031 284.095 89.7994ZM284.938 85.7288C284.787 85.7915 284.675 85.8643 284.637 85.9537C284.442 86.432 284.342 86.9296 284.265 87.4393C282.928 85.985 280.498 85.5003 279.258 83.9604C280.696 83.8949 283.885 85.4008 284.938 85.7288ZM275.999 356.198C275.512 356.277 274.975 355.172 275.187 354.741C276.417 352.162 276.726 356.084 275.999 356.198ZM273.555 365.685C271.63 365.484 274.488 363.739 274.367 362.763C276.865 363.483 274 365.228 273.555 365.685ZM267.033 375.175C267.045 373.728 269.255 374.248 268.664 372.257C270.965 372.86 270.771 371.23 272.736 371.527C271.731 373.549 269.079 374.096 267.033 375.175ZM263.769 375.909C261.627 374.865 265.482 373.134 267.033 372.987C266.951 374.865 263.851 374.03 263.769 375.909ZM261.322 373.718C260.483 375.345 258.516 371.915 258.879 370.066C261.516 369.803 263.577 366.612 266.217 368.606C265.391 370.731 264.771 373.279 262.954 373.718C263.009 373.708 258.945 372.198 261.322 373.718ZM255.615 372.987C255.384 371.811 256.389 371.735 256.429 370.797H258.059C257.929 371.648 258.237 372.099 258.879 372.257C258.627 373.244 256.834 372.864 255.615 372.987ZM255.615 374.448C252.794 377.369 251.572 373.404 247.462 375.175C249.006 377.02 250.319 374.501 252.356 375.909C251.317 378.138 249.696 376.276 246.647 377.362C246.406 378.508 248.626 377.605 249.094 378.096C250.238 379.287 244.624 380.049 242.572 378.83C240.607 378.526 240.801 380.16 238.5 379.557C239.857 378.865 241.35 376.858 237.681 377.362C238.366 376.681 241.883 374.919 242.572 376.636C243.937 372.549 248.293 375.099 249.094 372.257C251.382 372.219 254.131 372.918 252.356 374.448C253.018 374.31 253.17 373.714 253.988 373.718C253.621 373.071 253.273 372.413 252.356 372.257C254.255 370.136 255.5 374.747 257.247 375.175C256.961 376.2 255.817 375.238 255.615 374.448ZM233.602 376.636C234.784 374.254 235.427 374.798 238.5 375.175C238.663 376.387 232.403 375.971 236.865 376.636C236.331 378.823 235.125 375.941 233.602 376.636ZM252.356 364.959C253.676 365.678 254.232 366.903 253.17 367.879C251.286 367.675 251.301 365.927 252.356 364.959ZM254.688 368.859C253.299 369.506 252.562 371.233 251.54 371.527C250.4 371.853 248.37 370.081 246.647 371.527C249.175 369.046 251.089 369.793 254.688 368.859ZM249.094 367.152C248.495 367.827 247.613 368.253 246.647 368.606C244.601 368.295 248.007 367.034 249.094 367.152ZM241.532 93.7935C241.497 93.6792 241.473 93.5898 241.442 93.4857C241.601 93.2783 241.713 93.0286 241.76 92.7208C241.581 92.7309 241.427 92.7623 241.26 92.7834C241.017 91.72 240.925 91.191 239.088 90.1395C239.556 90.0215 240.198 90.0593 240.518 89.8132C241.605 89.7681 241.937 88.9893 240.128 89.0723C238.527 88.8548 237.17 88.8511 235.929 88.9543C235.89 88.8686 235.833 88.7949 235.825 88.6788C236.44 88.7368 236.517 88.5461 236.409 88.2871C237.754 88.1516 240.251 89.0557 240.128 87.6079H237.681C237.205 87.7332 236.536 87.6844 236.223 87.9544C236.011 87.6466 235.744 87.3324 235.825 87.2209C235.898 87.113 236.092 87.0273 236.319 86.9481C237.113 87.2236 239.053 86.7435 240.125 86.8817C241.922 87.113 244.473 87.2973 245.838 87.6079C245.88 87.619 245.87 87.8687 245.849 88.1443C244.976 88.0512 244.319 88.2733 243.979 89.4114C245.842 89.2077 247.045 89.5884 247.242 90.8721C245.576 90.4565 241.125 91.0905 243.979 92.3328C243.414 91.1799 247.551 91.1596 247.242 92.2508C247.219 92.2849 247.188 92.3125 247.161 92.3466C244.911 92.4922 243.809 93.6718 241.532 93.7935ZM245.835 370.066C246.653 372.264 244.017 371.362 242.572 371.527C242.772 370.243 243.975 369.859 245.835 370.066ZM236.865 372.257H235.237V370.793H236.865V372.257ZM233.602 369.336C234.912 367.159 236.95 369.454 238.5 369.336C240.267 369.202 242.103 366.265 244.203 368.606C242.85 368.495 237.096 371.524 233.602 369.336ZM260.619 366.47C259.807 366.976 258.995 367.481 258.059 367.879C258.206 366.052 256.811 365.594 255.615 364.959C255.786 364.629 255.941 364.435 256.095 364.314C256.382 364.459 256.599 364.632 256.915 364.764C257.781 365.117 258.659 365.996 259.362 366.221C259.799 366.359 260.201 366.38 260.619 366.47ZM271.923 362.763C273.37 363.303 272.041 364.092 271.923 364.959C270.47 364.424 271.804 363.636 271.923 362.763ZM271.923 361.31C271.846 361.729 271.638 361.825 271.452 361.771C271.557 361.597 271.689 361.441 271.785 361.261C271.839 361.272 271.859 361.31 271.923 361.31ZM269.267 95.9712C269.934 95.3334 271.182 95.2228 272.125 94.8385C271.955 95.5039 271.8 96.1785 271.104 96.372C270.443 96.2448 269.852 96.1094 269.267 95.9712ZM270.292 368.606C270.003 369.752 268.858 367.969 268.664 369.336C266.635 369.229 268.421 366.869 268.664 366.418C269.836 366.584 268.947 368.596 270.292 368.606ZM269.43 364.231C269.739 363.951 270.045 363.66 270.324 363.346C270.324 363.653 270.324 363.958 270.292 364.231H269.43ZM276.13 96.431C276.227 97.4797 275.217 97.8742 274.665 95.9638C275.102 96.1674 275.675 96.2476 276.13 96.431ZM274.367 94.1815C274.575 94.3059 274.75 94.434 274.916 94.5621C274.753 94.5446 274.592 94.5307 274.414 94.5344C274.399 94.4128 274.379 94.3133 274.367 94.1815ZM275.187 358.392C274.982 359.181 273.802 359.098 272.709 359.098C272.914 358.45 273.045 357.786 273.142 357.119C273.869 357.503 274.197 358.243 275.187 358.392ZM234.436 82.4821C234.815 82.3614 235.094 82.1568 235.202 81.8453C235.515 81.6997 235.798 81.5274 235.825 81.3818C235.852 81.2463 235.706 80.9109 235.535 80.5054C238.562 80.4436 241.482 80.2842 243.384 81.0427C242.734 80.7791 241.729 81.7661 241.76 81.7725C242.03 81.8177 242.305 81.8177 242.579 81.8453C242.498 81.932 242.378 81.9873 242.347 82.1154C243.65 82.4268 244.42 82.2646 245.03 81.9605C246.809 81.9246 248.356 81.7412 249.094 81.7725C249.202 81.7762 251.27 83.1779 251.54 83.2332C254.02 83.7217 256.986 83.2406 258.059 83.2332C259.34 83.2203 260.557 84.7603 262.138 83.9604C260.123 86.0717 264.605 85.2552 266.217 83.9604C264.022 83.1024 260.105 83.541 257.247 82.5033C257.062 82.4342 256.931 81.849 256.745 81.4408C257.978 81.3753 259.18 81.3366 259.471 82.1154C259.719 79.464 255.121 81.133 253.765 79.9211C253.668 80.3533 253.729 80.6482 253.86 80.8768C253.25 80.8805 252.631 80.8934 252.012 80.9284C251.931 80.4612 251.878 79.9727 251.666 79.6234C255.318 79.6861 258.814 79.617 261.322 80.3119C262.506 80.6381 264.381 82.4305 264.586 82.5033C265.491 82.8148 266.99 82.1015 267.849 82.5033C270.154 83.5733 269.5 85.1962 270.292 85.421C271.205 85.3445 271.561 86.4836 271.923 85.421C271.467 85.421 270.996 84.8331 271.923 84.6866C274.039 85.5528 274.701 85.7878 275.743 86.6495C275.867 87.8954 276.049 89.0308 276.265 90.0731C276.1 90.3874 275.905 90.685 275.713 90.9762C275.767 90.2805 275.087 89.7165 273.555 89.7994C273.223 91.5578 275.04 91.3882 274.367 93.4507C273.911 93.3327 273.579 93.3327 273.3 93.3751C273.308 93.2673 273.339 93.1806 273.331 93.0599C271.511 92.7383 271.99 93.7585 270.068 94.5197C270.335 94.4128 269.782 93.6893 269.253 93.7898C268.816 93.8764 268.572 95.3583 267.628 95.2505C266.229 95.0883 264.925 91.2942 261.102 92.3291C261.145 91.3993 262.146 91.3191 261.914 90.1395C260.793 90.1109 260.127 90.485 259.471 90.8684V92.3291C260.58 92.5927 263.893 93.2783 264.922 94.8044C263.557 94.4091 262.146 94.0322 260.503 93.6931C259.706 93.1567 258.929 92.6028 257.84 92.3328C257.804 92.6517 257.742 92.9456 257.641 93.2018C257.07 93.1189 256.482 93.0387 255.84 92.9705C255.516 92.4332 255.232 91.9596 256.208 91.5992C256.208 92.0047 256.868 92.4268 257.024 91.5992C254.951 90.2915 253.048 92.4084 251.317 90.1395C250.706 92.3881 253.556 91.5439 252.948 93.7935C252.082 93.8838 251.286 94.8386 250.694 94.0976C251.997 93.9041 253.234 92.6369 251.54 91.9863C250.922 93.8976 249.77 91.6683 248.092 91.8278C248.077 91.7522 248.054 91.6859 248.054 91.5992C251.561 91.3016 247.949 91.1255 248.054 90.1395C248.178 89.0382 251.279 89.8934 251.378 89.0271C252.283 88.9866 253.173 88.9691 253.985 89.0686C254.355 87.2181 249.724 86.162 249.097 87.6079C250.265 88.4742 249.317 87.7222 248.279 87.6079C247.59 87.5351 247.25 88.2761 246.771 88.3185C246.739 88.3074 246.7 88.3 246.67 88.2945C246.732 88.1516 247.466 87.1932 246.647 86.8817C247.072 87.0411 244.358 87.4697 242.576 86.8817C242.015 86.702 241.11 85.4385 240.94 85.421C240.112 85.3381 239.331 85.6357 238.593 85.9159C238.496 85.8643 238.435 85.8191 238.272 85.7611C235.968 85.1574 236.165 86.7923 234.193 86.491C234.151 85.5565 233.15 85.48 233.385 84.3004C236.849 84.047 235.117 83.1853 234.436 82.4821ZM227.173 77.3629C229.155 76.339 233.695 77.5988 234.924 75.8957C236.2 76.4496 237.615 76.879 238.091 78.1489C237.046 78.2116 236.08 78.2457 235.202 78.2982C235.31 78.0586 235.488 77.854 235.825 77.7342C231.606 76.7813 229.739 77.9628 227.173 77.3629ZM227.953 375.179C227.799 374.808 227.625 374.442 227.431 374.071C227.81 373.984 228.224 373.874 228.715 373.718C228.49 375.794 228.421 375.511 227.953 375.179ZM242.347 77.7342V77.737C242.335 77.7471 242.324 77.7582 242.312 77.7683C242.324 77.7582 242.335 77.7434 242.347 77.7342ZM245.619 80.5091C245.576 80.4925 245.536 80.4676 245.494 80.451C245.355 80.1884 245.204 80.122 245.135 80.2778C244.86 80.1395 244.592 79.9976 244.35 79.8096C245.107 79.3848 245.75 78.8871 245.619 80.5091ZM248.87 80.6547C248.832 80.7865 248.866 80.9044 248.881 81.0288C248.17 81.0215 247.497 80.956 246.851 80.8418C247.35 80.6234 247.961 80.5054 248.87 80.6547ZM250.327 79.5958C249.863 80.2879 248.553 80.0326 247.783 79.464C248.63 79.5267 249.481 79.5718 250.327 79.5958ZM224.725 368.699C224.617 368.377 224.531 368.045 224.458 367.713C225.003 367.851 225.602 367.955 226.268 367.879C226.226 368.575 225.564 368.717 224.725 368.699ZM221.863 368.54C221.833 368.236 221.821 367.942 221.849 367.672C222.282 367.177 222.873 367.266 223.612 367.478C223.708 367.859 223.8 368.243 223.897 368.65C223.187 368.585 222.456 368.498 221.863 368.54ZM216.966 374.981C216.946 375.026 216.926 375.068 216.912 375.113C216.164 374.41 215.492 373.679 214.873 373.428C215.461 372.255 216.42 371.313 216.966 369.873C217.055 369.635 217.116 369.375 217.201 369.132C217.355 369.517 217.565 369.873 218.114 370.066C218.43 370.177 218.678 370.212 218.937 370.26C218.276 371.859 217.533 373.469 216.966 374.981ZM215.168 379.329C214.935 379.252 214.695 379.166 214.456 379.08C214.286 378.526 213.586 377.335 213.709 376.441C213.713 376.383 214.306 374.988 214.499 374.321C215.442 374.435 216.108 375.041 216.683 375.667C216.207 376.896 215.686 378.11 215.168 379.329ZM211.259 388.847C209.542 393.565 208.355 398.633 206.372 403.442C205.421 405.752 203.909 407.71 203.105 410.012C202.324 412.268 202.308 415.007 201.478 417.312C200.982 418.69 199.63 420.153 199.038 421.69C198.318 423.528 197.94 425.006 197.402 426.802C195.975 423.965 198.968 421.064 199.854 418.042C200.816 414.709 200.514 411.114 201.478 407.824C201.593 407.434 203.016 406.637 203.105 406.364C203.585 404.959 204.226 402.823 204.737 401.252C206.561 395.679 206.751 391.759 211.259 388.847C211.209 386.73 211.171 383.084 212.079 380.821C211.982 381.059 212.383 380.184 212.67 379.468C213.452 379.575 214.166 379.987 214.796 380.225C213.559 383.102 212.31 385.97 211.259 388.847ZM213.056 378.709C213.014 378.703 212.972 378.712 212.926 378.709C212.94 378.643 212.933 378.609 212.894 378.629C212.901 378.623 212.995 378.674 213.056 378.709ZM210.447 378.629C211.997 374.244 213.362 370.893 214.518 367.37C214.746 367.481 214.97 367.574 215.195 367.672C214.882 369.326 215.082 371.271 214.522 372.791C214.383 373.172 212.986 373.978 212.894 374.251C212.369 375.798 212.476 377.931 211.259 379.36C211.596 381.994 209.774 380.36 210.447 378.629ZM211.367 74.8129C210.412 74.9308 210.683 76.1454 210.551 77.0007C209.897 76.6164 209.229 76.245 208.108 76.2736C208.753 74.8331 210.957 73.6498 212.187 74.8129C213.741 75.317 211.305 75.9473 211.367 74.8129ZM202.401 76.2736C202.857 74.7567 203.672 74.7262 204.849 75.5399C206.19 73.7328 203.492 73.5282 202.401 72.625C202.127 72.3965 202.668 71.4003 202.401 71.1644C202.127 70.922 201.044 71.4067 200.769 71.1644C201.411 71.7431 201.184 67.468 199.142 70.4345C196.761 69.6207 200.178 68.0623 201.586 68.243C201.875 71.8777 205.876 72.1855 208.108 74.0858C206.712 75.27 205.142 76.2938 202.401 76.2736ZM200.769 75.5399C200.925 74.9548 201.589 74.8166 201.586 74.0858C199.077 73.5392 200.591 76.6016 197.506 75.5399C196.312 72.767 201.152 75.4008 199.957 72.625C201.164 73.0056 202.011 73.7014 203.216 74.0858C203.063 74.6737 202.397 74.8128 202.401 75.5399H200.769ZM199.854 366.948C198.771 371.112 197.726 372.978 196.057 375.934C194.65 374.698 192.798 373.788 192.025 374.448C193.498 375.003 194.366 376.099 195.48 376.972C194.282 379.163 193.606 380.724 191.696 383.011C191.25 383.535 190.806 385.826 189.248 385.195C188.9 384.337 188.552 383.372 188.186 382.368C188.483 382.551 188.892 382.642 189.581 382.475C189.836 381.485 190.741 381.081 190.397 379.557C189.426 379.827 188.266 379.928 187.385 380.27C186.782 378.768 186.089 377.214 185.174 375.709C188.135 374.244 189.411 373.919 191.696 370.603C191.916 370.278 192.133 369.883 192.342 369.479C195.542 370.714 193.965 372.738 196.099 374.444C197.874 372.898 194.53 368.447 192.542 369.101C193.122 367.827 193.494 366.093 193.443 363.864C195.152 364.622 196.145 361.932 198.543 362.037C199.733 361.776 200.128 362.231 200.531 362.701C200.407 364.086 200.229 365.488 199.854 366.948ZM193.397 363.027C193.37 362.625 193.393 362.282 193.331 361.843C193.293 361.579 193.246 361.285 193.2 360.999C193.338 360.85 193.458 360.68 193.656 360.58C195.006 361.805 194.275 362.335 193.397 363.027ZM195.063 73.3558C194.603 71.8353 192.735 70.9948 194.247 69.7037C196.277 69.5931 196.771 70.8529 198.322 71.1644C198.423 72.4656 196.316 71.4003 196.691 71.1644C195.473 71.933 196.775 73.0508 195.879 74.0858C194.978 75.1244 191.97 73.2056 192.62 75.5399C190.018 74.3963 193.64 71.1607 195.063 73.3558ZM214.63 69.7037C217.665 70.2612 215.075 73.1651 212.187 72.625C212.515 71.2196 215.345 72.0472 214.63 69.7037ZM215.446 75.5399H217.073C216.164 76.4422 216.363 77.0421 217.89 77.0007C219.057 74.847 218.52 78.6964 216.262 77.7342C216.239 77.0237 215.264 77.1656 214.63 77.0007C214.785 76.4118 215.45 76.2735 215.446 75.5399ZM182.834 79.1949C180.638 81.039 179.649 75.7086 182.834 79.1949V79.1949ZM171.421 82.8425C169.009 82.2057 173.887 82.261 172.236 79.9211C175.056 80.4612 173.435 82.7043 171.421 82.8425ZM170.605 85.7611C170.961 84.8635 171.649 84.2645 173.052 84.3004C172.697 85.1989 172.009 85.8016 170.605 85.7611ZM166.53 85.7611C163.948 86.5149 159.406 85.9786 158.377 85.7611C158.991 82.6618 164.598 84.0331 165.714 81.3818C167.098 81.8592 166.225 83.0572 164.899 82.8425C165.649 84.8294 167.446 81.8214 169.789 82.8425C170.822 84.9741 167.802 85.3897 166.53 85.7611ZM159.911 362.504C159.919 362.376 159.919 362.247 159.926 362.119C160.027 362.088 160.155 362.02 160.236 362.037C160.089 362.213 159.996 362.358 159.911 362.504ZM145.227 364.764C145.397 365.263 145.606 365.682 145.831 366.059C145.104 365.965 144.438 365.854 143.928 365.685C143.669 365.602 144.432 364.833 144.457 364.443C144.721 364.546 144.956 364.671 145.227 364.764ZM126.805 341.605C126.666 341.394 126.518 341.189 126.372 340.986C126.004 339.944 125.68 338.863 125.405 337.739C126.522 338.449 127.149 339.594 126.805 341.605ZM121.095 346.711C118.636 344.603 121.156 342.38 118.651 340.872C118.783 340.02 120.144 340.255 121.095 340.144C120.522 343.571 124.396 343.028 125.174 345.254C125.053 346.849 123.121 346.818 121.095 346.711ZM124.949 90.1395C124.593 91.0389 123.901 91.6407 122.502 91.5992C122.126 90.0418 123.67 90.2076 124.949 90.1395ZM115.72 95.6634C114.661 97.2199 112.365 97.9304 115.168 95.2468C115.457 94.9676 115.658 94.8118 115.805 94.7178C115.775 95.033 115.782 95.3823 115.72 95.6634ZM111.904 104.011C111.019 103.828 111.352 102.558 110.277 102.55C110.3 101.838 111.274 101.983 111.904 101.817C111.475 101.229 111.058 100.632 111.092 99.6288C114.816 99.6012 111.134 102.191 111.904 104.011ZM111.092 104.738C113.957 107.071 109.41 108.643 111.092 104.738V104.738ZM103.75 129.555C104.098 128.16 106.078 128.233 105.382 125.906C107.257 126.474 106.175 130.427 103.75 129.555ZM100.712 307.302C104.246 307.602 99.8613 311.538 100.712 307.302V307.302ZM99.6791 125.906C99.0213 125.518 98.3532 125.138 97.2322 125.173C98.1597 123.57 99.9612 122.75 100.495 120.795C103.828 121.566 99.6915 122.936 99.6791 122.985C99.3507 124.159 101.469 125.072 99.6791 125.906ZM97.4525 305.11H95.825C95.5924 303.93 96.5981 303.85 96.6362 302.923C98.3296 303.328 98.3687 304.059 97.4525 305.11ZM74.3978 185.02C73.1924 184.163 70.7557 184.394 71.1418 182.103C72.3606 183.258 74.4791 182.642 75.2172 181.376C78.0934 182.633 72.8671 182.566 74.3978 185.02ZM67.8785 209.107C64.6554 207.325 71.3909 208.443 69.5101 205.459C70.6868 205.625 69.7973 207.637 71.1418 207.646C71.7223 209.626 67.3 207.127 67.8785 209.107ZM188.54 68.243C185.68 68.3748 185.861 65.7787 183.645 65.3216C183.796 64.0932 187.524 65.6644 186.908 67.5168C188.479 67.2053 189.847 68.0154 188.54 68.243ZM208.923 55.8387C208.787 59.8669 209.667 56.3677 210.551 56.5649C211.123 56.6957 210.98 58.3721 211.367 58.7564C211.495 58.8835 211.962 59.0328 212.48 59.23C212.314 59.4374 212.16 59.6494 212.013 59.8632C210.277 58.6624 206.832 59.0015 206.48 56.5649C207.52 56.5271 207.606 55.6304 208.923 55.8387ZM205.664 52.9173C207.585 50.5701 208.954 55.4848 205.664 52.9173V52.9173ZM204.849 52.1828C203.773 51.9312 203.565 50.9018 202.401 50.7295C202.734 48.9085 205.559 50.688 204.849 52.1828ZM215.213 56.0184C214.982 56.3336 214.711 56.6552 214.426 56.9805C213.988 56.246 213.648 55.5051 213.002 55.1042C214.085 54.5955 214.735 55.4332 215.213 56.0184ZM373.018 167.164C373.854 170.387 374.654 173.64 375.125 177.188H374.313C373.408 178.237 373.436 178.967 375.133 179.376C375.121 179.053 375.214 178.825 375.284 178.575C375.438 180.096 375.492 181.705 375.469 183.383C375.137 183.958 374.851 184.55 374.607 185.155C373.613 184.508 374.836 182.788 374.645 181.763C374.333 180.064 373.196 179.026 373.018 177.384C372.57 173.329 373.211 169.033 371.386 165.707C372.277 165.887 371.939 167.158 373.018 167.164ZM383.015 192.126C382.939 192.082 382.892 192.023 382.799 191.984C382.799 192.31 382.661 192.736 382.489 193.206C382.483 193.22 382.479 193.234 382.471 193.247C381.532 194.688 379.432 195.771 377.951 197.038C377.827 196.795 377.597 196.564 377.093 196.359C377.913 196.352 378.114 195.079 377.093 194.902C376.528 197.107 374.101 201.426 375.462 202.928C375.314 202.07 375.558 201.308 375.944 200.624C375.647 202.118 375.631 203.684 375.206 205.297C374.836 203.61 373.76 202.088 372.198 201.468C371.606 203.461 373.823 202.939 373.83 204.389C371.216 204.895 373.173 205.912 373.018 206.577C372.932 206.95 371.209 207.207 371.386 208.038C371.502 208.574 372.153 209.297 372.932 209.792C372.848 210.149 372.762 210.513 372.681 210.762C372.67 210.8 372.663 210.837 372.647 210.875C370.926 210.468 371.959 209.28 370.567 207.307C371.789 205.179 372.863 202.994 369.755 202.202C368.974 203.559 372.198 204.643 369.755 205.116C367.264 202.527 371.726 201.741 369.755 199.281C370.93 200.097 371.742 200.067 372.198 198.546C371.209 198.467 370.265 198.329 370.567 197.089C369.871 195.522 372.052 195.387 372.198 194.172C372.48 191.822 369.167 189.012 372.198 187.603V192.711C373.676 192.634 374.008 191.534 374.135 190.25C374.202 190.517 374.216 190.787 374.313 191.053C374.781 190.98 375.206 190.79 375.647 190.635C375.57 190.881 375.504 191.102 375.462 191.25C374.951 193.037 374.464 196.456 376.273 195.629C375.844 192.725 377.514 191.701 377.851 189.485C379.212 188.488 380.326 187.163 381.021 185.675C381.299 187.392 381.044 189.579 381.98 188.333C381.647 186.197 382.885 184.868 382.795 183.221C382.753 182.481 382.266 182.224 381.806 181.85C381.748 180.649 381.323 179.545 380.546 178.596C380.194 176.97 379.738 175.346 377.904 174.463C377.789 176.374 378.303 177.714 378.795 179.077C377.955 179.929 377.1 180.912 376.347 181.982C376.262 179.233 376.738 176.478 376.273 173.737C375.588 169.622 372.886 165.61 370.567 161.325C367.922 156.445 366.09 153.112 362.417 150.382C363.661 151.246 363.89 150.664 364.864 150.382C363.337 150.831 365.958 148.667 367.311 150.382C364.575 150.256 366.253 153.205 369.755 153.299C369.999 151.862 368.653 151.855 368.123 151.115C371.673 151.295 372.446 153.828 373.83 154.756C374.252 155.039 374.325 155.836 375.462 155.49C375.184 153.836 373.471 152.464 372.055 151.193C373.733 150.717 375.249 148.419 376.765 147.266C378.087 146.258 380.797 146.552 380.02 144.344C375.894 145.244 372.237 146.574 370.691 149.796C370.651 149.744 370.606 149.696 370.567 149.647C369.666 148.362 370.629 148.868 368.936 148.186C368.417 147.979 367.744 146.408 367.311 146.003C367.034 145.742 366.77 144.767 366.495 144.542C365.722 143.915 364.045 144.389 363.232 143.812C362.24 143.102 362.56 141.488 361.602 140.89C358.782 139.129 353.691 139.741 353.452 135.782C355.025 137.135 354.089 137.117 356.711 136.516C356.881 133.926 352.884 135.068 353.452 132.133C354.97 131.434 356.177 134.314 356.711 132.133C355.016 131.532 353.479 130.932 352.635 129.212C351.738 127.402 352.98 126.823 352.635 126.298C352.109 125.498 349.936 124.997 349.372 124.103C349.562 124.401 349.975 122.788 349.372 121.916C349.132 121.57 348.119 120.864 347.745 120.455C347.191 119.846 347.241 118.046 346.117 119.725C346.681 120.781 347.237 123.74 345.298 123.377C346.302 124.664 346.886 126.332 348.557 127.024C345.784 127.8 350.826 127.253 349.372 129.212C348.251 129.247 347.582 128.869 346.929 128.482C347.412 129.995 345.92 133.275 347.745 133.594C348.058 132.473 348.723 133.487 347.745 134.321C349.179 134.743 352.531 133.442 352.635 135.048C351.677 136.528 348.615 134.446 346.929 135.048C346.349 135.259 347.234 136.57 346.117 136.516C345.901 136.502 344.323 135.207 342.854 135.048C338.675 134.612 337.379 133.951 334.696 132.863C337.314 129.22 331.928 129.915 330.621 127.755C332.647 126.803 334.008 129.898 334.696 127.755C333.25 127.108 332.624 125.717 329.809 126.298C331.425 125.072 327.269 120.189 324.914 122.643C328.572 123.131 325.572 122.663 326.546 124.837C326.554 124.851 328.022 125.363 328.169 125.564C328.696 126.229 328.14 127.429 328.99 127.755H325.727C325.097 124.671 321.597 121.082 322.472 118.998C324.172 119.448 325.533 122.74 326.546 119.725C323.423 120.089 323.944 117.188 320.024 118.264C321.071 116.544 319.911 116.907 320.836 114.62C316 112.38 310.602 110.646 308.611 105.856C307.386 105.734 305.599 106.119 305.347 105.129C309.55 104.022 302.823 101.436 302.9 99.2934C303.979 96.2163 306.952 98.4106 309.109 98.9745C309.229 99.2796 309.442 99.5708 309.91 99.8224C309.851 99.5911 309.851 99.3459 309.875 99.0999C310.353 99.11 310.764 98.9681 311.05 98.5598C310.676 98.5285 310.328 98.4667 310.029 98.3617C310.346 97.2761 310.989 96.1398 310.86 95.2127C311.119 95.4274 311.436 95.5905 311.87 95.6422C311.7 94.4404 312.515 92.3577 310.694 92.6369C310.702 92.5963 310.714 92.5715 310.726 92.5226C311.155 92.4922 311.371 92.271 311.499 91.9697C311.909 92.1153 312.532 92.1494 313.501 91.99C311.367 89.8307 316.358 88.4327 314.314 86.8817C314.213 87.9756 313.327 88.3701 312.372 88.7055C312.477 87.2236 312.744 85.7463 313.064 84.2681C313.482 84.4349 313.9 84.587 314.318 84.6902C315.949 85.0957 318.496 84.7225 320.028 85.421C320.596 85.6846 319.923 86.6016 320.84 86.8817C320.742 86.8541 321.636 85.9574 322.472 86.1472C324.833 86.7048 327.095 89.1866 328.994 88.3424C327.729 88.148 328.425 86.7398 328.994 86.1472C327.953 85.3031 324.759 85.6597 323.291 84.6902C323.089 84.563 323.492 83.3033 323.291 83.2332C322.115 82.825 320.433 83.4867 319.208 83.2332C318.894 83.1678 317.205 81.8803 316.765 81.7725C315.774 81.5274 314.773 81.3716 313.787 81.2684C315.248 75.7611 317.074 70.2714 315.617 64.7889C315.078 66.7408 315.272 69.347 313.985 70.628C313.336 66.8828 315.705 65.8405 315.617 62.5984C312.23 63.0481 313.838 66.4533 313.169 69.1636C312.496 71.9154 308.981 75.3077 311.537 77.2006C311.936 76.3353 312.407 75.5428 313.169 75.0027C313.459 77.1076 312.975 79.1912 312.477 81.1984C310.353 81.109 308.382 81.2952 306.983 81.7725C307.725 80.9109 307.783 80.2778 306.868 79.8456C307.366 78.0208 308.441 75.3382 307.463 75.0027C307.157 76.2173 305.246 78.5848 305.97 80.0981C305.367 81.8048 305.892 81.6583 306.983 83.2332C308.56 82.3412 310.211 83.036 311.892 83.7733C311.56 85.5381 311.506 87.207 312.299 88.7295C311.518 89.0032 310.702 89.2455 310.242 89.8031C310.548 89.9238 310.609 90.239 310.659 90.5919C310.37 91.3015 310.277 92.1771 310.301 92.7106C310.277 92.7171 310.265 92.7134 310.242 92.7208C310.153 93.3511 310.2 93.8663 310.319 94.3095C310.192 94.199 310.091 94.081 309.91 93.9833C310.353 95.0984 309.831 96.1508 309.41 97.0992C307.455 96.6632 303.511 98.0124 302.9 96.372C302.8 94.7482 308.197 94.3925 305.347 92.7208C305.699 94.7694 302.313 90.8896 302.088 93.4507C305.892 95.8357 300.572 93.2092 300.457 95.6422C301.918 95.5454 302.367 96.3647 302.088 97.8253C301.171 97.9018 300.82 96.7664 300.457 97.8253C301.439 97.9848 300.959 98.6391 300.457 99.2934C302.637 98.7497 301.408 100.602 302.088 101.481C302.784 102.388 305.309 102.765 304.532 104.395C301.246 104.669 301.261 101.972 298.825 101.481C298.655 102.359 297.92 101.931 297.193 101.481C297.116 102.623 297.302 104.007 295.566 103.668C296.753 101.367 294.445 102.657 292.38 102.838C292.16 102.419 291.587 102.157 290.977 102.654C290.489 102.465 290.072 102.149 289.863 101.481C291.6 103.045 294.298 101.748 294.75 100.021C291.475 99.134 288.78 101.952 288.231 99.2934C289.337 94.2819 293.258 96.3647 295.566 94.1815C294.572 94.0939 293.633 93.963 293.934 92.7208C294.754 92.7235 294.908 92.1291 295.566 91.9863C295.748 95.3334 297.085 91.5965 298.825 91.2601C299.714 91.0905 300.116 92.3954 300.457 91.2601C299.365 90.7827 298.94 89.699 298.825 88.3424C299.992 88.5157 300.201 89.5469 301.269 89.7994C302.189 87.5047 301.346 88.1479 301.269 85.421C297.112 84.6147 297.147 87.5701 295.566 89.0686C297.758 88.5673 297.139 90.5781 298.006 91.2601C294.731 92.0075 294.387 90.1284 293.118 89.0686C293.241 90.8823 293.273 92.6129 291.486 92.7208C291.309 92.1494 290.807 91.8692 289.863 91.9863C290.277 90.0178 289.175 88.2143 287.852 87.5047C288.348 85.6182 288.495 83.67 287.899 81.5726C286.248 82.6692 286.936 83.8977 286.267 85.2266C286.183 85.4008 285.634 85.504 285.185 85.6468C285.135 85.5832 285.108 85.5381 284.968 85.421C283.414 84.3446 280.476 82.5697 278.218 81.9191C278.945 80.6307 279.648 79.2944 279.745 77.9277C279.943 75.0921 280.171 72.0334 276.482 69.8944C275.635 72.1689 274.286 74.2691 274.039 76.4634C273.725 79.2327 274.414 81.0491 274.785 82.4305C269.433 79.7967 263.005 78.1213 256.374 76.6293C256.242 76.2625 255.656 75.986 254.858 76.2827C252.121 75.681 249.364 75.0958 246.647 74.4765C249.987 73.7153 253.312 76.7196 255.615 74.4765C250.694 73.8747 246.434 72.2684 242.572 74.4765C242.951 71.7901 240.007 73.9687 237.681 73.7429C237.631 73.7429 237.054 72.5937 236.865 73.7429C237.503 73.9014 237.809 74.3521 237.681 75.2027C240.707 75.6607 246.071 74.0194 246.647 76.6615C244.574 76.0478 243.53 76.6744 242.834 77.291C241.507 77.3776 240.181 77.8033 239.904 77.7342C239.718 77.6854 239.359 76.3841 239.088 76.2736C238.419 75.9897 237.314 76.5528 236.64 76.2736C236.517 76.2173 234.78 73.2757 234.22 75.4709C231.661 75.9233 227.949 75.3492 227.114 77.3463C226.774 77.2633 226.422 77.1564 226.048 77.0007C226.565 75.5252 229.855 76.5224 230.122 74.8129C225.513 73.3973 222.714 77.3877 221.153 76.2736C221.241 74.8949 223.847 75.7648 223.6 74.0858C221.899 73.6701 220.962 72.0021 219.525 73.3558C221.532 68.4227 215.295 75.3381 213.814 73.3558C216.108 73.39 216.049 70.1737 217.89 71.8915C217.711 70.0566 213.699 67.9278 213.002 68.9738C214.015 73.2895 207.802 74.5318 206.48 71.8915C206.565 72.0675 208.599 71.5238 208.108 71.1644C206.411 69.9249 201.733 70.746 204.029 67.5168C200.062 66.8791 198.624 68.513 195.879 68.9738C196.277 66.9353 195.361 66.7196 194.247 66.0561C196.451 67.3703 191.522 65.329 191.8 65.3216C191.186 65.3428 188.795 68.9388 187.725 66.0561C189.129 66.0976 189.818 65.4949 190.169 64.5954C189.225 64.4738 189.287 63.4425 189.352 62.4076C186.755 61.7773 186.835 63.5494 185.278 63.8609C185.599 62.8232 186.259 62.6362 185.278 61.6777H190.169C190.083 65.3843 192.377 63.6462 193.431 63.8609C193.579 63.896 193.296 65.211 193.431 65.3216C193.558 65.4396 196.807 66.069 196.691 66.0561C196.158 65.9695 197.715 63.8886 198.322 63.8609C198.223 63.8683 199.096 65.2875 199.142 65.3216C201.721 67.4781 201.117 64.2766 202.401 63.8609C202.741 66.3077 205.807 67.4191 207.292 68.243C208.39 68.8595 209.841 71.8427 210.551 69.7037C208.413 69.1839 208.943 66.281 207.292 65.3216C203.063 64.9724 201.767 63.1513 201.586 60.9469C201.601 61.1303 201.036 62.1689 200.769 61.6777C200.453 61.0815 202.868 59.2199 203.216 59.4862C203.955 59.9055 206.213 62.497 206.48 60.9469C204.269 60.4935 204.45 57.8938 201.586 58.0256C201.496 58.9158 201.346 59.7563 199.957 59.4862C201.941 57.7758 199.045 57.8523 198.322 56.5649C200.236 55.6194 200.148 56.939 201.586 55.1042C200.939 58.3997 205.602 57.2542 205.664 57.2957C206.032 57.5823 204.755 58.5103 204.849 58.7564C205.243 59.8079 208.41 61.8574 208.923 60.9469C207.933 61.1681 206.117 58.8356 208.108 58.7564C208.433 60.206 209.901 60.6253 211.348 61.0649C211.073 61.6943 210.919 62.3486 210.969 63.0334C208.787 62.4528 210.768 65.5953 208.923 65.3216C208.877 64.8784 208.796 64.4637 208.108 64.5954C208.219 66.9279 209.952 67.8071 213.002 67.5168C212.777 65.3732 216.265 64.8028 213.002 63.8609C213.045 65.1207 212.373 65.7372 211.367 66.0561C211.429 64.2627 210.304 64.494 211.057 63.5043C211.092 63.6784 211.092 63.8471 211.158 64.0277C212.122 62.8647 213.118 61.6049 214.128 60.3064C214.34 60.6704 214.333 61.11 213.814 61.6777C215.898 61.2898 216.668 60.7046 217.89 62.4076C215.855 61.8952 214.537 61.687 213.002 63.1347C214.205 63.9863 215.051 63.9863 216.262 63.1347C214.193 64.9198 217.978 64.6885 217.073 67.5168C215.99 67.6237 214.618 64.5466 213.814 66.7823C217.15 67.2053 217.062 70.6898 221.153 70.4345C218.786 71.7247 223.661 74.3419 224.416 72.625C223.591 72.6149 223.388 71.3441 224.416 71.1644C225.537 71.4786 226.55 72.508 227.602 73.2093C227.493 73.5208 228.134 73.9014 228.924 73.8157C229.554 73.965 230.215 73.8959 230.938 73.3558C230.892 74.6119 231.564 75.2211 232.57 75.5399C233.389 73.7014 230.586 69.8004 227.675 68.9738C226.801 71.6979 230.729 70.1294 230.122 72.625C228.402 71.486 225.598 71.3173 225.231 68.9738C226.403 69.7894 227.219 69.759 227.675 68.243C225.401 67.6099 224.13 66.069 222.784 64.5954C222.51 64.3042 223.043 63.4352 222.784 63.1347C221.922 62.1689 220.387 61.4934 219.525 60.217C218.268 58.3721 218.132 59.548 216.262 58.7564C216.007 58.6495 215.855 58.4753 215.655 58.3343C220.619 51.8676 226.055 44.4822 231.537 39.2145C232.152 38.6257 231.804 37.7151 232.353 37.023C232.62 36.6811 233.679 36.6526 233.977 36.2895C234.495 35.684 234.367 34.6491 234.788 34.1054C236.389 32.0982 238.168 30.2707 239.691 28.2663C240.456 27.2553 241.222 26.4665 242.134 25.3449C243.955 23.1055 244.894 20.7832 246.214 18.7723C246.492 18.3502 247.512 17.7863 247.837 17.3153C248.255 16.7126 248.139 15.72 248.658 15.1275C251.112 12.3204 255.534 11.1159 256.811 7.8241C257.526 5.97906 257.194 3.47333 256.811 1.25513C255.767 1.21643 255.682 0.324341 254.364 0.524292C252.156 2.55267 251.046 3.08258 249.473 5.63348C247.493 8.85895 245.085 13.477 243.766 15.8583C243.186 16.896 243.522 17.7678 242.951 18.7723C241.501 21.3297 238.856 23.6078 237.243 26.0757C236.768 26.8056 236.822 27.6608 236.428 28.2663C235.063 30.3776 233.927 32.1083 232.353 34.1054C231.424 35.2748 230.017 35.8489 229.09 37.023C228.162 38.1962 227.621 40.1103 226.647 41.4014C226.236 41.9378 225.467 42.1626 225.015 42.8621C223.987 44.4509 223.468 45.5199 222.567 46.5143C220.426 48.8569 218.632 51.3037 216.899 53.6961C216.122 53.6988 215.291 53.7477 215.446 52.9173C219.618 53.2076 216.61 51.7718 216.262 50.7295C216.386 51.0963 217.693 48.3721 216.262 49.9996C215.806 51.5147 214.986 51.5469 213.814 50.7295C213.699 52.8721 214.518 54.1697 216.134 54.7549C215.948 55.0102 215.76 55.2673 215.573 55.5235C213.806 54.4609 212.828 51.7055 211.367 54.378C208.892 53.0897 213.598 52.1174 211.367 51.4566C211.035 52.3773 210.316 52.9477 208.923 52.9173C208.019 52.4224 204.69 50.4945 206.48 49.9996C208.174 50.4254 209.114 51.5322 210.551 52.1828C211.266 51.1239 211.205 49.3591 213.814 49.9996V47.8081C210.241 47.2755 214.476 49.2587 212.187 49.2688C210.792 48.5694 210.396 46.9741 209.74 45.6176C206.728 48.0708 206.68 42.2391 204.849 44.1569C205.668 44.1671 205.869 45.4415 204.849 45.6176C204.849 45.213 204.187 44.79 204.029 45.6176C206.36 46.3474 208.417 46.0083 209.74 48.539C209.674 48.4062 208.452 48.7776 208.923 49.2688C209.391 49.76 211.61 48.8569 211.367 49.9996C210.551 49.9959 210.401 50.5903 209.74 50.7295C209.17 50.3415 207.361 49.9886 207.292 49.2688C207.261 48.9573 208.174 47.857 208.108 47.8081C208.058 47.7667 205.417 47.0054 205.664 47.081C201.419 45.8424 205.424 47.5243 203.216 48.539C202.297 47.5621 200.391 47.5243 199.142 46.3475C198.744 45.9742 200.097 45.202 199.957 44.8868C199.877 44.7071 198.496 45.0425 198.322 44.8868C198.045 44.6444 198.585 43.6924 198.322 43.4261C197.897 42.9902 196.621 42.8317 196.691 41.9728C196.799 40.7407 202.115 41.5645 198.322 39.7786C198.237 40.36 195.632 41.993 195.879 40.5121C197 39.5739 198.292 37.0369 195.879 36.8608C195.737 40.9038 191.846 33.7109 190.169 36.8608C192.399 38.4211 193.506 38.2101 194.247 39.7786C194.174 39.6191 192.377 40.8098 192.62 41.2392C192.824 41.5995 194.568 41.101 194.247 41.9728C192.643 41.7516 192.631 42.9551 191.8 43.4261C191.25 41.2456 186.352 42.9552 186.097 40.5121C189.325 39.3795 191.081 43.2703 192.62 41.2392C187.593 37.9133 181.883 38.8431 177.127 34.673C179.513 34.4795 179.633 36.3208 182.022 36.1337C183.027 33.7699 179.381 35.5734 180.39 33.2124C178.354 34.6169 177.038 32.0982 175.495 33.9395C176.567 33.9533 176.536 35.9669 175.495 36.1337C174.197 34.8629 171.827 34.5514 168.977 34.673V36.8608C171.104 37.1447 173.447 37.2341 174.684 38.3178C171.34 38.6358 169.457 37.6432 167.345 36.8608C168.177 39.7638 173.734 38.4423 176.312 39.7786C176.497 39.2145 176.335 38.3418 177.127 38.3178C178.744 39.8237 178.744 39.0099 177.127 40.5121C180.886 41.7682 186.38 41.4742 187.725 44.8868C185.823 43.0455 185.989 46.2857 186.908 47.081C187.365 46.0286 188.182 45.2987 189.352 44.8868C189.113 46.3235 190.455 46.3373 190.984 47.081C189.445 47.2441 189.186 46.2572 187.725 46.3475C187.37 49.22 191.047 47.6146 191.8 47.8081C192.218 47.9123 192.98 50.0863 193.431 48.539C192.98 48.5417 192.507 47.95 193.431 47.8081C195.933 48.5242 193.068 50.2659 192.62 50.7295C194.279 52.1975 194.216 50.4042 195.879 49.9996C199.142 52.4261 204.462 53.0168 207.292 55.8387C206.774 55.9834 205.807 56.4091 204.849 56.5649C203.758 56.7446 204.462 55.5125 204.029 55.1042C203.786 54.8729 200.212 53.7062 199.957 53.6509C199.892 53.6371 199.915 55.3401 199.142 55.1042C198.979 55.059 199.261 53.8029 199.142 53.6509C198.439 52.7579 191.998 52.3008 194.247 52.9173C195.291 54.1697 198.129 53.8232 198.322 55.8387C197.506 55.835 197.356 56.4257 196.691 56.5649C196.61 54.696 193.659 55.3945 192.62 54.378C191.599 56.3152 193.988 55.4092 195.063 57.2957C195.206 57.5472 194.069 57.2607 195.063 58.0256C194.714 57.7629 196.01 57.4404 196.691 58.0256C199.563 60.4871 199.37 60.4871 200.769 63.1347C199.954 63.1273 199.8 63.7292 199.142 63.8609C199.061 63.0444 200.326 62.7292 199.142 62.4076C197.657 64.6433 190.636 63.2656 190.169 60.217C188.718 59.7802 186.789 62.3588 186.097 60.217C190.219 61.6593 187.757 56.4746 186.908 58.7564C187.405 58.8015 187.876 58.8669 187.725 59.4862C185.692 60.0051 184.376 56.2737 182.834 58.7564C183.796 59.113 184.686 59.5351 185.278 60.217C184.324 61.6667 181.376 59.3268 181.206 58.7564C181.261 58.9462 182.575 58.385 182.022 58.0256C179.401 56.3299 176.725 55.7751 173.868 55.1042C173.821 54.3365 172.821 54.5374 173.052 55.8387C176.045 56.1843 177.465 56.9658 180.39 58.7564C177.963 58.9287 173.872 56.87 173.052 58.0256C175.708 59.5416 179.548 59.9977 182.022 61.6777C176.092 62.3735 176.752 60.7773 170.605 61.6777C170.531 63.6674 171.966 63.1449 170.605 64.5954C173.501 65.7299 171.097 62.1164 173.052 62.4076C175.461 62.9228 178.805 62.6048 179.579 64.5954C177.348 66.9804 170.799 65.4949 169.789 68.9738C169.43 69.6133 172.028 74.1825 173.868 70.4345C172.643 70.3128 170.857 70.6971 170.605 69.7037C172.991 68.0181 175.809 70.3202 177.127 69.7037C176.099 69.4033 175.461 68.7618 175.495 67.5168C176.617 67.5435 177.286 67.1703 177.943 66.7823C179.416 69.2152 183.41 66.1317 184.461 69.7037C181.354 70.0815 178.354 70.5616 177.127 72.625C181.419 72.4831 185.703 67.3703 188.54 70.4345C183.36 71.1469 178.899 72.508 175.495 74.8129C179.37 74.529 181.16 72.9153 184.461 73.3558C186.728 73.6563 188.942 75.9473 190.984 74.0858C190.555 74.8893 190.169 75.81 189.352 76.2736C187.291 77.443 187.37 75.3805 186.097 75.5399C185.714 75.5906 186.217 76.9785 185.278 77.0007C184.299 77.0274 182.792 76.4671 181.206 76.2736C175.407 75.5741 170.957 77.0348 168.977 74.8129C167.489 77.2283 164.033 74.6258 162.455 77.7342C165.73 77.0006 167.697 76.7021 168.977 79.1949C169.009 78.1839 168.591 77.5877 168.162 77.0007C169.847 77.4356 173.513 76.1003 173.868 77.7342C170.601 78.6337 167.463 81.2776 163.268 79.1949C163.483 81.285 162.417 79.7755 161.636 79.9211C161.242 79.9976 160.847 81.2703 160.008 81.3818C159.1 81.4998 158.732 80.2879 158.377 81.3818C159.47 83.5973 156.28 83.3798 155.118 84.3004C155.361 84.1096 156.331 84.6423 155.929 85.0331C155.558 85.3971 153.912 85.4726 153.486 85.7611C152.933 86.138 152.871 87.2384 151.858 87.2209C151.591 85.5289 151.986 84.4202 152.67 83.5733C148.309 83.071 150.242 88.2079 146.148 87.9507C146.036 86.5877 145.609 85.5114 144.516 85.0331C142.989 86.4209 144.428 86.8642 144.516 88.6788C143.395 88.6502 142.725 89.0244 142.072 89.4114C141.751 88.1516 143.279 87.5388 142.072 87.2209C141.268 88.2079 139.895 88.6788 138.81 89.4114C138.721 88.5193 138.565 87.6844 137.179 87.9507C137.221 89.5054 137.908 89.4289 137.179 90.1395C138.538 88.8161 134.274 90.5818 133.918 90.8721C135.565 86.9748 131.557 91.2776 130.659 89.4114C129.58 87.5803 134.452 87.6402 131.471 86.491C130.736 87.7784 129.646 88.7506 128.212 89.4114C128.212 88.6788 127.555 88.5433 127.396 87.9507C127.35 86.6145 131.571 85.48 129.028 84.3004C128.464 85.7426 126.847 86.2486 124.949 86.491C124.489 83.8461 130.397 79.429 133.099 79.9211C132.646 79.9211 132.179 80.5164 133.099 80.6547C135.087 76.6256 129.426 79.5792 129.028 79.9211C127.733 81.0362 124.922 82.4481 124.133 83.5733C123.925 83.8737 124.411 84.7805 124.133 85.0331C123.67 85.4588 122.184 85.3897 121.69 85.7611C119.935 87.0863 120.147 89.3534 118.427 89.4114C118.744 88.3322 122.192 84.4312 120.058 85.7611C120.043 86.6983 119.134 87.1416 118.315 87.5148C118.315 87.4807 118.322 87.4494 118.322 87.4144C118.4 84.6322 116.903 81.649 118.322 79.3875C116.188 79.1949 116.331 81.5854 115.875 83.036C115.318 84.8156 116.022 87.4595 114.246 88.1443C114.703 89.7026 115.202 90.5818 115.542 91.6508C115.109 91.6094 114.499 91.4674 114.355 91.5992C114.104 91.825 114.623 92.8728 114.355 93.0599C113.655 93.5308 112.233 93.0184 111.904 93.7935C112.975 95.9573 112.627 97.3867 110.277 98.1682C109.844 97.1203 113.455 96.3895 111.092 95.9776C110.918 96.8595 110.183 96.4282 109.461 95.9776C108.522 96.8429 108.537 98.5562 108.645 100.36C107.106 100.197 106.844 101.18 105.382 101.09C104.894 99.7883 107.774 98.0576 105.382 97.4383C105.204 98.006 105.366 98.8815 104.57 98.899C104.392 98.3276 103.889 98.0475 102.938 98.1682C103.202 101.221 100.077 103.831 102.119 106.199C100.72 106.156 100.031 106.76 99.6791 107.656C102.621 106.966 100.817 110.532 101.311 112.038C105.177 112.809 103.92 109.968 104.57 109.116C104.377 109.379 105.667 110.314 106.201 109.846C106.963 109.175 105.058 106.517 107.014 106.199C108.591 108.815 106.704 108.871 106.201 111.307C108.853 111.498 107.93 108.476 110.277 108.386C109.674 109.674 109.396 112.817 108.645 113.495C109.054 113.121 107.902 112.515 107.833 112.768C107.54 113.814 108.645 114.339 108.645 114.955C108.641 116.06 107.175 116.88 107.014 117.877C106.719 119.669 108.746 123.359 104.57 124.446C104.323 123.009 105.667 122.996 106.201 122.252C105.536 120.999 103.912 120.628 102.938 119.334C102.328 118.524 103.011 116.7 101.311 116.416C102.203 116.139 104.408 113.495 102.119 112.768C101.883 113.411 99.9159 115.966 99.6791 114.221C100.596 114.069 100.944 113.415 101.311 112.768C97.5112 113.405 102.429 110.875 99.6791 110.577C96.9378 113.128 100.321 108.296 97.2322 108.386C97.4566 110.518 97.0387 110.896 95.6006 109.846C95.7396 110.941 95.3062 112.539 96.4159 112.768C96.5981 112.2 96.4395 111.324 97.2322 111.307C97.1972 112.311 97.6182 112.91 98.0475 113.495H95.6006C95.2598 114.969 96.8225 114.89 97.2322 115.682C98.0135 117.215 96.6094 118.676 98.0475 120.064C97.7376 117.842 101.009 118.824 101.311 117.15C101.307 117.877 101.964 118.016 102.119 118.603C102.969 120.984 100.375 118.843 99.6791 119.334C99.0409 119.781 99.815 123.114 96.4159 122.252C98.6929 121.171 94.4219 119.116 93.969 120.795C95.9094 123.476 96.6526 127.607 97.2322 129.555C97.3166 127.769 99.922 129.403 99.6791 130.281C98.4685 129.437 97.6265 129.437 96.4159 130.281C95.9362 128.035 92.9406 128.042 92.3373 125.906C92.9251 127.886 88.4946 125.381 89.0741 127.36C89.9357 127.405 89.7154 128.299 88.2619 128.094C89.035 131.541 90.6512 134.224 93.1568 136.12C91.6878 133.251 92.3373 133.005 90.7057 130.281C92.4146 128.745 93.7713 131.244 94.7801 132.473C92.4928 135.024 96.8369 137.218 97.2322 141.233C96.8369 142.098 96.3654 142.887 95.6006 143.421C92.5309 143.981 91.7032 142.534 89.0741 142.694C89.7237 143.991 89.5415 145.12 88.9784 146.224C89.561 145.649 91.7454 145.881 91.5251 147.068C91.3162 148.176 90.8251 147.13 90.7057 147.068C90.4278 146.916 89.2676 147.29 89.0741 147.068C88.7725 146.715 88.7879 146.442 88.9619 146.251C88.0066 148.09 86.0044 149.848 85.0028 152.178C83.8159 154.932 84.6281 157.362 82.5559 158.02C82.3809 157.196 81.651 156.877 80.9274 156.56C78.8201 157.362 79.8022 160.792 79.2926 162.399C79.2535 162.519 77.6991 162.273 77.6682 162.399C77.4562 163.107 79.1763 165.046 78.4804 166.043C78.0749 166.631 76.9878 165.759 76.8488 166.777C76.8406 166.804 77.7228 167.454 77.6682 168.238C77.4757 170.889 77.0578 175.007 76.0294 176.995C75.9481 177.16 73.8265 177.468 73.5856 177.721C73.1841 178.164 73.9726 179.458 73.5856 179.915C72.8444 180.795 71.1387 180.614 70.3306 181.376C69.3022 182.331 69.9054 183.493 68.6948 184.291C73.984 182.871 74.9352 189.212 71.9581 190.86C72.3524 188.977 69.0778 186.72 67.8785 188.672C69.3794 190.493 72.3297 191.013 72.7734 193.78C71.0656 194.929 71.3404 197.848 69.5101 198.893C68.1112 197.956 69.4957 194.528 67.0674 194.514C67.8528 197.158 63.4026 195.124 63.8124 197.428C64.5659 198.211 66.8121 197.657 66.2479 199.62C64.1057 197.723 65.6056 200.801 62.9919 200.35C61.6279 198.9 63.0619 199.422 62.9919 197.428C59.706 196.924 60.9897 200.506 58.0971 200.35C58.0199 199.201 58.2062 197.816 56.4696 198.159C55.7706 199.859 59.32 201.305 57.2859 201.811C56.0804 201.426 55.2291 200.73 54.0196 200.35C54.5096 202.718 59.811 203.334 61.3603 202.538C61.0134 202.718 60.3401 201.811 61.3603 201.811C63.3563 202.78 59.8923 204.012 62.1725 204.725C63.0156 202.364 63.3018 206.65 63.8124 206.92C64.9879 207.535 66.0585 205.583 66.2479 206.92C67.1137 209.639 63.1937 208.072 63.8124 210.567C67.0241 209.634 65.7754 212.693 67.8785 212.759C69.681 211.706 66.8543 210.976 68.6948 210.567C69.7819 212.354 71.7306 209.765 71.9581 211.298C67.5707 212.191 72.8671 213.725 69.5101 214.942C68.6876 214.382 66.4796 211.446 65.4316 213.489C66.6803 214.299 69.3794 214.531 69.5101 216.403C69.5143 216.441 68.1843 216.508 68.6948 217.137C69.19 217.739 71.3322 216.497 71.9581 218.598C72.3143 219.795 71.5525 220.92 71.1418 221.516C73.3498 222.356 75.8585 225.513 74.3978 227.355C76.4432 227.261 76.9538 225.963 77.6682 228.081C76.0716 227.735 72.4615 229.127 74.3978 229.541C75.6043 229.061 77.8546 227.86 79.2926 228.815C79.4625 228.926 79.1177 230.227 79.2926 230.276C79.7106 230.379 80.0575 230.317 80.3591 230.214C80.356 230.359 80.321 230.525 80.3324 230.663C80.3365 230.678 81.16 230.809 81.6356 231.071C81.5512 231.74 81.4503 232.415 81.3731 233.079C81.2568 233.246 81.1682 233.407 81.1487 233.584C81.1096 233.955 81.1991 234.357 81.3185 234.765C81.3731 235.256 81.4884 235.713 81.7396 236.111C81.7478 236.104 81.7478 236.098 81.755 236.091C81.8827 236.496 81.9907 236.886 81.9681 237.229C81.8168 239.431 80.6144 241.521 81.1487 243.803C81.2331 244.172 81.6397 244.73 82.0875 245.314C80.7431 246.104 80.251 248.267 81.6356 249.444C83.9394 250.043 83.7459 248.412 85.711 248.714C85.4012 247.498 84.6126 246.709 83.7232 246.01C84.029 243.795 85.0728 242.445 85.2272 241.611H86.8547C87.0637 243.778 83.6306 245.211 86.8547 245.99C87.0328 245.425 87.5393 245.142 88.4863 245.263C87.2644 243.13 88.335 242.657 90.0407 241.974C90.3104 241.978 90.5163 242.033 90.7376 242.078C89.6382 244.671 91.7496 242.695 92.5618 243.803C89.8163 245.865 90.644 247.101 90.1179 250.368C91.3368 250.492 93.1259 250.112 93.3729 251.103C93.4501 253.092 92.0203 252.569 93.3729 254.02C92.5576 254.02 92.4074 253.428 91.7496 253.289C91.1381 255.539 93.9844 254.695 93.3729 256.942C91.6991 257.138 92.6081 259.658 90.9301 259.859C86.4481 260.468 85.3631 258.031 81.1487 258.399C82.316 260.745 76.1962 260.173 78.7048 261.32C81.8363 260.205 80.321 260.606 79.5201 262.78C83.1591 263.652 85.4197 265.767 87.6669 267.885C87.6587 269.823 87.9768 272.056 86.8547 272.997C88.2578 273.281 88.9423 271.911 89.3057 272.997C88.1466 275.209 90.0593 275.985 87.6669 276.645C82.3778 278.113 88.1621 276.137 88.4863 278.105C88.7499 279.677 87.5207 281.387 87.6669 283.944C87.74 285.105 88.9506 286.281 89.3057 287.597C90.0943 290.559 90.8756 295.519 90.1179 297.81C90.0129 298.129 87.5043 297.848 88.4863 299.267C92.4074 300.351 89.2357 295.076 92.5618 295.62C91.7804 292.754 92.2437 290.92 92.5618 289.057C92.8593 287.313 92.2601 284.077 94.1934 283.944C93.6519 285.122 95.4688 285.915 95.825 286.863C96.489 288.642 95.8631 290.67 95.825 290.511C96.1956 291.944 97.4947 292.948 97.4525 293.432C97.3712 294.409 93.6282 294.65 96.6362 295.62C98.3296 293.944 96.4931 297.018 96.6362 297.81C96.7216 298.289 97.6646 298.118 97.4525 299.267C97.3938 299.579 95.9094 299.226 95.825 300.002C95.7087 301.005 97.0109 304.197 94.1934 302.923C93.9072 300.293 92.9478 299.399 94.1934 297.083C90.7335 297.388 94.1306 303.836 89.3057 302.923V306.567C85.8922 306.571 85.8922 307.401 84.4119 310.219C87.4579 310.998 86.7353 308.405 89.3057 308.762C90.1725 310.09 91.3388 311.627 92.3373 313.009C92.2982 312.981 92.2674 312.97 92.2334 312.94C92.6122 315.964 88.4215 314.881 86.5263 315.861C86.5613 314.857 86.1403 314.258 85.711 313.67C78.4187 312.901 73.0719 310.393 65.3276 310.021C64.9797 311.416 63.0002 311.341 63.7002 313.67C68.5909 313.525 71.4753 316.068 78.3765 315.861C79.1928 316.833 79.1454 318.574 80.8203 318.779C80.8543 317.774 80.4332 317.18 80.004 316.595C85.5793 316.999 89.6156 315.951 94.0225 315.719C94.0616 315.819 94.1666 315.968 94.1934 316.055C94.425 315.854 94.634 315.774 94.8429 315.704C95.0982 315.698 95.3566 315.694 95.616 315.694C97.0778 316.203 98.1443 319.37 99.8994 319.706C100.372 317.339 99.3425 316.31 99.0882 314.601C101.655 315.459 104.554 316.027 106.422 317.515C104.396 317.63 106.186 319.991 106.422 320.437H104.253C104.779 319.824 104.964 319.159 103.646 318.779C103.766 319.755 100.908 321.496 102.831 321.703C103.007 321.52 103.561 321.136 104.013 320.692C104.11 322.274 105.954 322.292 106.836 323.171C104.779 323.613 102.606 322.981 100.56 322.593C101.388 322.568 102.242 322.568 102.351 321.897C101.172 322.285 100.355 319.052 99.8994 321.167C100.395 321.212 100.866 321.277 100.72 321.897C100.267 321.935 99.8654 322.018 99.8994 322.483C98.9328 322.331 97.997 322.258 97.1282 322.434C94.6566 322.929 93.1454 325.05 92.2334 326.079C88.5594 330.217 85.0182 334.863 86.5263 340.678C93.6746 339.536 97.5606 335.475 100.383 330.457C103.499 330.841 103.303 329.304 104.462 328.273C105.139 327.664 105.715 327.137 106.279 326.625C106.472 327.11 106.526 327.719 106.422 328.466C108.459 328.833 109.775 329.844 111.317 330.654C113.289 336.105 114.382 339.418 114.576 345.254C117.306 345.399 117.623 349.898 119.471 346.711C119.208 348.404 119.594 349.514 120.283 350.363H123.542C123.313 348.701 123.739 347.617 125.174 347.441C125.982 347.876 126.654 347.579 127.188 347.257C127.4 347.711 127.605 348.188 127.821 348.625C127.651 348.874 127.528 349.154 127.62 349.636C127.919 349.68 128.158 349.78 128.44 349.839C128.88 350.698 129.326 351.591 129.735 352.356C129.245 356.236 123.426 358.617 126.472 363.301C132.535 362.493 127.006 355.796 130.551 353.086C134.969 356.841 138.109 361.742 143.952 364.231H143.928C143.836 366.813 141.229 362.677 141.477 364.959C142.907 365.339 143.534 366.744 144.74 367.152C145.347 367.349 145.869 367.055 146.318 366.782C147.616 368.354 149.543 368.806 151.746 369.873C152.62 370.292 153.021 371.118 153.841 371.441C152.221 371.293 150.389 371.098 147.999 370.794C147.513 372.738 151.027 371.887 153.71 372.257C156.559 372.648 161.562 373.535 162.675 372.257C159.594 371.908 157.483 371.763 154.992 371.548C155.242 371.51 155.511 371.441 155.821 371.333C156.764 369.966 157.104 369.07 157.057 368.478C159.695 368.478 163.452 369.475 163.491 367.152C162.997 366.135 160.352 367.041 160.228 365.685C160.863 365.525 161.837 365.671 161.86 364.959C159.428 364.964 159.092 366.854 156.973 367.152C155.45 366.744 153.493 366.578 151.517 366.46C151.252 365.999 150.865 365.397 150.929 365.495C150.559 364.975 150.574 364.449 150.114 364.034C144.585 364.421 144.087 363.154 141.152 361.109C140.438 360.618 139.506 360.167 138.705 359.652C136.648 358.33 136.16 356.841 134.63 355.27C133.18 353.796 131.394 352.11 130.206 350.279C137.008 352.446 140.008 358.018 148.815 358.392C147.911 361.545 150.477 360.157 152.074 360.58C154.437 361.202 156.788 363.469 157.784 363.498C157.823 363.498 157.954 363.4 158.121 363.269C158.55 363.38 159.072 363.418 159.76 363.31C160.065 364.031 161.895 364.023 163.727 364.116C164.374 365.009 165.042 365.879 165.73 366.726C164.782 367.19 164.037 367.64 165.119 367.879C165.509 367.703 165.819 367.457 166.171 367.242C166.778 367.969 167.412 368.672 168.069 369.34C167.62 369.817 167.141 370.264 166.755 370.797C167.675 370.765 168.359 370.517 168.989 370.222C169.906 371.077 170.884 371.867 171.924 372.573C171.935 373.081 171.997 373.432 172.461 373.718C172.306 373.625 172.484 373.396 172.74 373.154C173.684 373.728 174.688 374.227 175.755 374.645C174.84 375.078 173.981 375.588 173.273 375.909C174.448 376.31 175.268 377.045 175.724 378.096C177.286 377.594 178.478 376.764 179.475 375.757C180.302 378.848 179.196 380.44 177.674 381.69C176.799 381.648 176.524 382.136 176.335 382.707C174.823 383.756 173.308 384.783 172.944 386.656C171.649 393.354 179.412 395.077 180.937 401.951C180.929 400.934 182.166 401.027 182.726 400.525C183.008 400.276 182.497 399.359 182.726 399.064C184.678 396.552 186.952 395.24 190.065 394.686C189.728 401.397 186.531 405.001 185.993 410.012C183.913 410.103 182.823 411.076 182.726 412.934C183.862 413.864 183.228 416.378 184.357 417.312C182.026 415.049 179.141 419.386 181.098 420.963C183.449 421.404 183.236 418.651 183.542 418.042C183.657 417.814 184.972 417.568 185.174 417.312C185.425 416.997 184.992 416.212 185.174 415.851C185.278 415.638 186.604 415.36 186.809 415.124C188.854 412.726 188.022 412.006 187.621 410.012C186.77 405.824 188.695 404.993 190.065 402.712C191.03 401.106 191.502 399.715 192.516 398.334C195.087 394.817 199.695 391.969 200.67 388.847C201.435 386.376 201.439 383.58 201.318 380.693C201.482 380.588 201.636 380.495 201.81 380.283C201.601 380.122 201.465 380.066 201.291 379.963C201.134 376.58 200.87 373.102 201.478 369.873C201.666 368.886 202.839 368.409 203.105 367.682C203.619 366.335 203.603 364.619 203.616 362.978C204.099 362.742 204.567 362.552 205.069 362.763C205.664 363.02 203.585 363.94 205.069 364.231C205.448 364.301 208.529 362.037 209.148 364.959C207.659 366.048 203.932 364.719 205.885 365.685C207.729 366.661 208.962 365.439 210.779 365.685C211.039 365.723 211.363 365.838 211.719 365.99C211.575 366.558 211.447 367.128 211.259 367.682C211.171 367.955 209.755 368.755 209.627 369.143C208.626 372.213 209.114 375.324 208 377.899C207.562 378.931 205.97 379.248 206.372 380.821C203.507 380.689 203.689 383.281 201.478 383.738V391.034C202.443 392.121 204.559 392.17 205.556 393.225C203.689 397.849 203.004 402.627 201.478 406.364C201.214 407.001 201.121 407.89 200.67 408.552C200.271 409.119 199.208 409.448 199.038 410.012C199.087 409.843 199.915 410.844 199.854 411.473C199.63 413.529 197.97 416.094 197.402 418.042C196.478 421.192 196.25 424.539 194.959 427.533C194.41 428.803 193.219 429.198 192.516 430.447C191.87 431.589 191.147 432.988 190.88 434.096C190.898 434.034 191.834 434.22 191.696 434.825C191.147 437.269 189.712 440.627 189.248 442.125C181.326 443.905 181.345 453.9 187.621 454.534C191.591 454.935 194.824 451.146 194.959 447.234C195.051 444.41 190.629 442.565 192.516 439.208C204.202 440.755 199.834 432.403 200.67 426.802C200.917 425.083 202.506 424.186 203.105 422.421C203.82 420.361 203.22 417.997 203.92 415.851C204.524 414.02 206.457 412.618 207.188 410.742C207.713 409.396 207.582 407.779 208 406.364C210.326 398.504 212.805 392.166 215.338 385.195C216.401 382.271 217.48 379.675 218.515 377.137C218.875 377.193 219.266 377.103 219.746 376.636C219.413 376.643 219.103 376.567 218.794 376.449C219.289 375.228 219.776 374.017 220.231 372.791C220.503 372.05 220.931 371.412 221.334 370.769C221.345 370.783 221.361 370.783 221.373 370.797C221.21 370.572 221.032 372.738 220.557 372.987C223.059 373.31 223.998 373.929 225.116 374.161C225.29 374.964 225.471 375.753 225.656 376.539C225.583 376.57 225.568 376.622 225.456 376.636C224.06 376.826 222.428 375.528 222.192 376.636C223.596 377.521 224.837 378.014 226.086 378.294C226.55 380.111 227.037 381.776 227.57 383.011C228.147 384.354 227.799 386.864 230.01 386.656C230.738 384.776 228.768 383.205 228.382 381.551C228.162 380.602 228.329 379.599 228.429 378.595C230.671 378.665 233.211 378.286 236.865 378.096C237.058 379.142 238.206 379.329 238.5 380.283C242.033 379.658 245.065 380.43 247.872 380.821H245.506V383.011H247.137C247.179 382.08 248.166 381.994 247.953 380.834C248.896 380.963 249.817 381.046 250.725 381.014C253.992 380.9 257.247 378.149 260.51 380.283C259.876 380.45 258.894 380.305 258.879 381.014C261.922 380.675 263.665 379.169 263.769 378.096C265.217 380.028 267.072 377.024 267.849 379.557C268.03 378.176 266.925 377.944 267.033 376.636C268.572 376.477 268.83 377.46 270.292 377.362C271.34 374.607 272.38 376.369 273.555 373.718C274.468 373.874 274.82 374.524 275.187 375.175C273.462 376.103 268.352 377.767 269.481 378.83C272.167 376.844 280.434 376.003 279.258 372.987C278.519 373.404 276.261 375.995 275.999 374.448C276.741 373.584 279.973 371.285 277.626 370.066C277.205 370.351 276.428 373.611 275.999 371.527C277.051 369.637 277.685 369.236 280.073 370.066C278.844 366.526 284.045 366.535 281.705 364.231C285.041 364.058 285.366 361.186 285.78 358.392C288.499 358.25 288.409 357.454 289.044 356.198C289.182 355.924 290.521 355.82 290.671 355.471C290.908 354.927 290.312 353.747 290.671 353.283C291.286 352.497 292.523 352.992 293.118 351.823C293.049 351.954 291.827 351.577 292.303 351.089C294.194 351.726 294.177 347.378 293.118 349.636C292.786 350.549 292.067 351.124 290.671 351.089C289.756 349.096 289.678 348.493 289.044 346.711C289.163 347.053 288.394 347.579 288.231 346.711C288.262 346.876 288.537 344.304 289.044 344.52C289.697 344.623 290.305 344.769 290.904 344.921C290.508 345.51 289.909 345.914 290.347 347.247C291.772 347.898 292.245 346.524 292.152 345.278C293.993 345.859 295.639 346.61 297.193 347.441C297.51 346.187 295.987 345.572 297.193 345.254C300.886 344.714 295.949 347.254 299.637 346.711C302.251 342.097 296.142 336.185 298.006 332.115C295.323 330.64 294.232 327.74 293.938 324.116C293.938 324.105 293.943 324.099 293.943 324.092C296.11 326.089 295.709 323.223 298.006 323.358C299.014 328.661 299.305 323.68 301.269 325.545C295.855 328.421 302.707 331.589 300.457 336.49H306.164C306.167 334.226 303.31 336.019 302.088 333.576C304.172 332.779 305.977 335.794 306.979 333.576C305.161 332.282 301.624 332.527 301.269 329.923C302.467 328.235 303.856 331.35 303.72 328.466C302.275 328.3 299.637 329.201 300.457 327.006C301.5 327.048 301.586 327.944 302.9 327.733C302.71 324.036 299.215 322.336 302.088 319.706C299.954 319.91 298.578 319.44 298.825 317.515C304.837 317.412 300.243 322.351 305.347 322.627C306.233 320.665 304.83 321.437 303.72 319.706C303.835 319.882 305.008 319.409 304.532 318.976C303.859 318.363 299.51 315.895 302.088 313.867C303.619 314.041 301.624 315.072 302.9 315.328C302.656 313.646 305.259 314.517 305.347 313.133C303.491 313.342 302.282 312.961 302.088 311.68C302.908 311.68 303.054 311.085 303.72 310.949C305.289 311.247 304.361 313.777 306.979 313.133C308.602 313.504 310.2 311.416 311.808 310.264C309.427 311.133 306.541 311.382 306.164 312.406C306.12 311.479 305.119 311.399 305.347 310.219C311.742 309.713 311.081 306.1 315.133 305.11C315.117 305.114 314.419 306.64 314.314 306.567C314.955 307.004 319.586 304.788 320.024 305.841C321.292 303.241 317.259 305.398 317.577 303.649C321.241 300.362 324.419 296.641 325.727 291.244C324.21 290.546 323.004 293.425 322.472 291.244C325.808 291.034 324.628 289.847 323.762 288.493C323.99 288.182 324.196 287.846 324.404 287.52C325.278 287.445 326.059 287.281 326.546 286.863C328.753 284.97 332.615 285.118 331.441 282.509C331.448 282.498 331.455 282.487 331.459 282.481C336.715 282.079 337.279 277.49 340.403 275.184C338.369 274.223 337.851 278.071 337.148 275.918C340.031 275.337 340.294 272.409 342.035 270.806C343.156 272.467 339.936 273.551 342.035 273.723C342.258 272.395 344.973 269.636 342.854 268.616C342.854 269.024 342.189 269.446 342.035 268.616C344.632 267.123 340.499 263.832 342.854 262.78C346.032 264.109 341.833 267.536 346.117 267.885C345.985 263.95 343.968 262.593 342.854 260.589C343.821 262.316 345.367 260.35 344.486 259.128C344.064 258.547 342.986 259.415 342.854 258.399C342.847 258.322 344.516 257.311 344.486 256.207C344.443 255.062 341.81 254.607 342.854 252.563C344.733 251.108 343.758 252.743 345.298 253.289C344.347 250.527 345.189 247.645 344.486 245.263C343.743 242.777 341.021 241.341 341.215 238.697C344.037 239.333 345.545 235.713 347.745 234.315C348.491 233.837 348.986 233.712 349.302 233.706C349.11 233.558 348.866 233.322 348.557 232.854C353.784 231.449 355.736 227.119 360.785 225.551C360.561 223.889 360.986 222.813 362.417 222.63C362.185 223.911 366.252 225.448 364.047 224.098C364.041 222.644 361.821 223.17 362.417 221.176C362.657 221.01 363.894 221.39 364.047 221.176C366.72 217.317 367.863 211.834 372.597 211.058C371.495 214.717 370.659 218.975 369.833 222.679C369.801 222.665 369.794 222.644 369.755 222.633C369.797 223.972 365.579 225.109 368.123 226.285C368.216 225.835 368.823 225.236 369.38 224.644C369.129 225.689 368.873 226.684 368.611 227.548C366.465 234.554 366.039 245.674 362.904 250.902C362.292 253.154 365.715 251.791 364.531 254.553C362.622 259.983 352.926 264.123 359.636 270.609C374.159 270.377 363.94 253.885 370.242 247.98C370.671 245.318 366.658 244.705 368.611 242.875C368.815 228.116 378.547 219.418 381.656 207.84C382.186 205.861 383.066 203.043 383.287 201.274C383.503 199.502 383.244 197.619 383.147 195.739C383.589 194.552 384.164 193.137 383.356 192.348C383.596 191.603 384.516 190.592 384.915 189.596C386.597 185.405 387.702 181.594 387.362 178.645C386.65 180.729 385.622 183.051 384.915 185.214C384.176 187.478 384.041 189.9 383.015 192.126ZM396.332 159.671C394.619 162.558 391.174 164.27 393.065 168.428C391.754 170.2 388.379 173.921 389.81 175.727C391.774 174.959 391.433 172.307 392.252 171.349C394.208 169.068 398.068 168.209 399.591 165.51C399.382 162.772 398.311 160.813 396.332 159.671ZM305.015 84.4967C304.656 85.9297 301.996 89.0106 304.208 90.3321C303.762 88.1802 306.519 85.1823 305.015 84.4967ZM266.7 60.4106C266.882 60.9746 266.721 61.8464 267.516 61.8676C267.512 62.2758 268.174 62.6979 268.336 61.8676C266.689 59.7277 267.598 59.8042 265.885 58.2163C266.727 59.0052 262.773 58.3472 264.253 56.7556C261.571 56.7897 261.137 58.8393 260.994 61.1414C262.741 62.7154 265.544 61.5146 266.7 60.4106ZM156.636 528.247C156.652 531.653 160.695 531.653 160.715 528.247C159.644 527.316 157.711 527.316 156.636 528.247ZM151.746 507.816V504.894C150.33 504.839 149.213 505.06 148.487 505.624C148.24 507.549 149.616 508.016 151.746 507.816ZM149.298 496.867C151.855 497.204 152.944 496.238 152.561 493.946C150.315 491.675 146.765 494.854 149.298 496.867ZM124.844 496.137C128.39 489.723 116.888 494.878 124.844 496.137V496.137ZM172.129 469.864C172.244 470.127 171.236 469.057 171.313 469.134C170.726 468.583 171.057 468.361 170.497 467.676C168.019 464.582 161.137 467.361 159.9 470.591C159.548 471.515 160.352 474.055 160.715 476.43C161.558 481.916 163.553 485.684 167.237 485.916C169.197 486.041 170.667 484.681 173.761 482.999C174.805 480.399 172.469 478.115 172.129 475.702C171.801 473.345 172.94 471.778 172.129 469.864ZM163.159 463.295C165.138 464.444 166.646 466.015 170.497 465.481C177.58 457.922 160.448 450.111 163.159 463.295ZM64.5165 427.533C65.3318 427.529 65.4821 428.122 66.144 428.26C66.1399 427.529 66.8038 427.391 66.9552 426.802C66.1399 426.802 65.9885 426.211 65.3276 426.072C65.3318 426.802 64.6657 426.941 64.5165 427.533ZM187.621 428.26C188.263 425.741 186.859 425.051 185.174 424.612C185.358 425.989 184.252 426.221 184.357 427.533C185.459 427.758 185.919 428.568 187.621 428.26ZM175.392 416.581C175.55 416.699 174.008 415 174.576 415.124C169.701 414.093 168.267 417.651 168.054 424.612C169.102 426.595 172.005 426.91 172.944 428.99C170.527 430.96 166.179 431.205 164.79 434.096C165.173 437.411 168.414 438.155 172.944 437.747C171.679 434.342 172.07 432.877 172.944 431.174C174.564 428.028 178.295 426.589 178.651 423.882C179.092 420.524 176.811 417.589 175.392 416.581ZM144.411 415.124C143.747 417.734 146.144 418.749 147.674 417.312C147.917 415.388 146.541 414.917 144.411 415.124ZM145.227 412.203H142.78C142.633 413.796 143.45 414.526 145.227 414.391V412.203ZM40.0535 399.064C40.1812 399.927 39.9146 401.138 40.8699 401.256C41.3681 400.57 42.7681 398.563 40.0535 399.064ZM222.675 393.956C222.633 394.89 221.632 394.967 221.86 396.143H223.489C224.412 395.099 224.37 394.368 222.675 393.956ZM54.7268 393.956C53.2382 395.686 52.6 398.178 53.9104 400.525C61.0401 402.681 61.7123 392.464 54.7268 393.956ZM232.461 393.225C232.221 395.136 232.758 396.368 234.905 396.143C235.159 395.157 236.064 394.752 235.72 393.225H232.461ZM238.983 391.034H240.615C240.657 390.1 241.656 390.024 241.431 388.847H238.983V391.034ZM61.2491 393.225C62.7027 393.873 63.3254 395.264 66.144 394.686C70.1062 389.383 60.4328 386.21 61.2491 393.225ZM84.0835 389.577C83.434 392.104 84.9884 392.658 85.711 393.956C89.4951 393.454 91.661 391.505 92.2334 388.117C88.335 387.286 87.7287 388.747 84.0835 389.577ZM252.844 383.011C252.968 383.863 252.704 385.081 253.655 385.195C254.158 384.521 255.555 382.507 252.844 383.011ZM110.983 385.195C114.104 386.591 113.953 386.088 116.69 385.195C118.449 384.631 120.159 385.41 119.949 383.738C116.965 382.468 114.042 384.452 110.983 385.195ZM114.246 381.551C111.174 382.378 110.535 380.848 109.352 383.011C110.807 382.569 112.74 385.147 113.427 383.011C112.933 382.967 112.465 382.901 112.613 382.281C113.246 382.112 114.224 382.257 114.246 381.551ZM288.715 381.551H290.347C290.343 380.821 291.004 380.682 291.159 380.09C290.114 380.049 290.03 379.156 288.715 379.36V381.551ZM86.5263 380.821C86.7734 378.893 84.8247 378.937 83.2672 378.629C82.5322 380.987 85.9272 379.654 86.5263 380.821ZM300.128 376.441C298.957 377.505 298.93 379.267 301.76 378.629C301.802 377.373 301.129 376.76 300.128 376.441ZM106.09 378.629C108.111 381.008 112.005 376.632 109.352 374.981C109.747 377.521 107.311 377.529 106.09 378.629ZM41.6852 374.251C41.4968 374.701 42.9184 375.816 43.3209 375.711C45.4631 375.124 42.7907 371.607 41.6852 374.251ZM47.3881 369.873C47.141 370.859 46.2279 371.264 46.5728 372.791C50.3652 373.674 50.4928 369.89 47.3881 369.873ZM289.527 369.143C288.587 370.004 288.606 371.717 288.715 373.522C289.167 375.494 290.938 368.835 289.527 369.143ZM124.844 369.143C123.68 368.966 123.472 367.942 122.397 367.682C121.686 369.181 124.512 370.956 124.844 369.143ZM310.726 339.947C303.278 339.157 303.921 349.154 309.094 350.161C307.446 346.628 313.022 344.254 310.726 339.947ZM342.525 302.721C341.879 305.532 346.426 305.532 345.781 302.721C343.553 302.791 344.142 301.508 342.525 302.721ZM349.863 283.017C351.719 283.222 352.922 282.841 353.118 281.56C351.047 281.18 349.96 280.314 349.863 283.017ZM354.75 280.1C354.704 280.547 354.626 280.961 353.935 280.83V282.287C355.941 283.419 356.331 279.809 354.75 280.1ZM1.73574 270.609C0.614708 271.547 0.320304 274.974 2.55104 274.99C3.41369 272.569 4.96809 271.824 1.73574 270.609ZM461.55 259.662C460.895 264.082 465.286 260.146 461.55 259.662V259.662ZM28.6404 257.471C27.5976 257.436 27.5153 256.54 26.1935 256.741C24.9253 258.537 28.9699 258.89 28.6404 257.471ZM359.636 250.902C358.594 250.867 358.512 249.97 357.194 250.171C355.93 251.971 359.962 252.32 359.636 250.902ZM414.263 229.009C414.217 229.451 414.147 229.871 413.448 229.74V231.2C415.458 232.335 415.849 228.719 414.263 229.009ZM476.219 229.009C479.258 230.816 484.393 229.32 483.561 225.361C479.265 224.914 477.387 226.645 476.219 229.009ZM481.118 212.952C483.248 213.157 484.625 212.682 484.377 210.762C482.248 210.557 480.874 211.028 481.118 212.952ZM500.685 203.458C500.426 204.449 499.525 204.856 499.869 206.382C502.143 207.553 502.122 203.23 500.685 203.458ZM495.791 194.708C492.84 198.149 500.566 195.674 495.791 194.708V194.708ZM424.861 174.998C429.511 174.045 431.943 171.117 432.199 166.237H429.756C428.757 169.725 424.223 170.047 424.861 174.998ZM388.178 134.127C386.941 135.154 385.602 137.671 387.362 139.236C390.737 139.924 392.36 133.819 388.178 134.127ZM356.386 126.097C358.041 124.145 357.15 123.324 358.013 121.719C355.299 121.429 353.462 125.651 356.386 126.097ZM352.303 120.988C354.568 117.503 349.627 119.22 352.303 120.988V120.988ZM417.526 106.389C409.199 105.897 405.997 116.974 411.008 121.719C416.8 120.102 419.598 112.706 417.526 106.389ZM432.199 104.928C429.55 111.142 430.061 118.351 428.94 125.366C427.737 132.895 425.819 141.33 424.049 147.989C422.854 152.482 421.922 157.047 420.786 161.862C420.086 164.838 419.126 167.607 418.339 170.623C417.086 175.436 416.474 180.881 415.08 183.757C413.44 187.138 411.094 189.949 410.192 193.247C408.796 194.605 406.469 194.619 405.297 195.435C402.992 197.038 399.957 201.953 399.591 204.188C398.699 209.626 400.705 216.729 405.297 217.331C411.244 218.103 419.185 206.311 419.154 202.001C419.139 199.467 416.065 196.778 415.895 193.978C415.857 193.349 416.439 191.307 416.711 190.326C417.824 186.27 417.495 181.712 418.339 177.919C418.539 177.039 419.602 175.893 419.97 174.998C420.46 173.812 420.464 172.612 420.786 171.349C422.092 166.192 422.664 161.242 424.049 156.75C424.756 154.461 426.086 152.367 426.493 150.181C426.91 147.961 426.28 145.864 426.493 143.614C427.056 137.796 430.014 130.825 430.571 125.366C430.83 122.819 430.169 120.407 430.571 118.067C431.36 113.529 434.359 109.864 433.83 105.659C433.648 105.095 433.149 104.814 432.199 104.928ZM415.895 102.014C417.294 100.831 417.92 98.9616 417.526 96.1748C413.873 96.2476 413.796 100.456 415.895 102.014ZM420.786 97.6355C421.199 97.4143 423.705 97.2475 424.049 96.9047C424.725 96.2163 423.673 94.1879 424.865 93.9833C421.585 94.7003 418.211 95.3233 418.339 99.0925C420.012 99.5321 420.081 98.0096 420.786 97.6355ZM415.08 83.7659C414.901 83.1955 414.395 82.9153 413.448 83.036C411.345 84.6321 409.241 87.3554 411.004 90.3358C415.249 90.7238 415.148 87.231 415.08 83.7659ZM429.756 79.3875C428.471 81.156 426.72 82.5034 427.308 85.9537C431.997 86.5527 432.043 81.1155 429.756 79.3875ZM274.039 68.4374C274.255 67.4403 273.536 65.5916 273.223 66.9804C273.002 67.973 273.725 69.8253 274.039 68.4374ZM317.248 57.4856C316.312 58.3509 316.327 60.0714 316.432 61.8676C316.884 63.8434 318.66 57.1851 317.248 57.4856ZM353.935 58.9499C354.48 57.4929 356.749 55.8313 353.935 55.3051C354.426 56.5999 351.545 58.3306 353.935 58.9499ZM312.354 58.2163C312.651 56.9602 314.819 53.7089 313.169 53.1145C312.275 53.8416 310.119 57.0911 312.354 58.2163ZM296.053 55.3051C296.625 54.7623 298.083 51.7267 295.237 52.381C295.375 53.474 294.947 55.0738 296.053 55.3051ZM256.915 52.381C262.439 52.4879 261.504 44.0878 259.362 41.4327C258.702 45.6028 255.67 48.5417 256.915 52.381ZM321.323 39.2422C318.69 38.5879 320.174 41.6226 318.876 42.1664C321.025 42.3847 320.979 40.6365 321.323 39.2422ZM203.216 63.1347C205.298 62.3449 206.074 66.2773 207.292 63.8646C206.074 63.8784 203.964 61.1543 203.216 63.1347ZM177.943 41.2392C176.4 41.4051 176.145 40.4144 174.684 40.5084C173.378 42.5432 178.203 42.5257 177.943 41.2392ZM177.943 43.4261C180.746 43.1496 183.027 47.0948 185.278 44.8868C182.479 45.1678 180.198 41.2245 177.943 43.4261ZM166.53 46.3475C166.53 46.4028 170.327 46.2571 168.977 47.8081C167.884 47.7326 164.481 46.4414 166.53 47.8081C168.224 49.1131 172.109 47.9501 173.872 47.0782C170.173 47.8155 172.109 44.9144 168.977 44.8868C169.109 44.8905 166.533 46.2056 166.53 46.3475ZM184.461 47.8081C181.779 46.5649 179.513 44.9457 176.312 44.1606C176.208 46.1641 180.623 46.5069 182.022 47.0782C182.908 47.4404 184.022 50.3618 184.461 47.8081ZM178.759 50.0024C176.869 50.2309 175.627 49.878 174.684 49.2688C173.424 51.4705 178.899 51.1866 178.759 50.0024ZM170.605 41.9691C170.412 43.0114 169.264 43.1975 168.977 44.1606C170.517 44.0113 177.031 44.6518 174.684 43.4298C172.086 44.0528 171.588 42.7957 170.605 41.9691ZM151.858 33.2124C149.995 33.0041 148.788 33.3856 148.596 34.673C150.451 34.8739 151.657 34.4933 151.858 33.2124ZM136.362 32.4788C136.626 34.4168 131.796 31.7968 133.103 34.673C134.324 34.4611 138.994 33.7312 136.362 32.4788ZM161.639 33.2124C159.382 33.3027 158.84 34.6039 160.008 32.4815H158.377C157.881 32.5202 157.414 32.5931 157.561 33.2124C158.059 33.2502 158.527 33.3193 158.377 33.9423C157.742 34.1054 156.768 33.9607 156.746 34.673C158.906 34.662 161.543 35.0749 161.639 33.2124ZM137.179 54.378C137.065 54.4886 135.573 54.2601 135.547 54.378C136.079 54.2527 136.045 55.5337 137.179 54.378ZM164.083 36.1337C161.338 35.8775 158.136 34.4721 156.746 36.8608C159.717 35.472 161.829 37.8534 164.083 36.1337ZM155.118 37.5907C153.833 37.6635 152.29 37.4903 152.67 39.0514C154.073 39.0892 154.758 38.4874 155.118 37.5907ZM160.008 43.4261C155.872 41.4401 156.969 45.9742 160.008 43.4261V43.4261ZM197.506 60.9469C192.781 58.843 195.361 62.7467 197.506 60.9469V60.9469ZM184.461 32.4815C184.419 32.9248 184.342 33.3478 183.645 33.2124C184.157 30.8651 180.72 32.2087 182.834 30.291H179.579C179.39 31.6687 180.491 31.9001 180.39 33.2124C181.211 33.2161 181.358 32.6198 182.022 32.4815C180.905 35.7282 187.37 32.9184 184.461 32.4815ZM198.322 29.5638C202.363 28.5916 199.598 26.1135 198.322 29.5638V29.5638ZM127.396 85.0331C127.272 84.0608 130.71 82.8286 128.212 82.1154C128.336 83.0812 124.895 84.317 127.396 85.0331ZM265.994 93.0599C267.702 93.2912 273.049 93.1714 270.068 91.5992C269.658 93.2433 266.07 90.5744 268.433 89.4114C265.699 90.1625 267.169 87.1416 266.809 85.7611C263.765 84.9888 265.518 88.5009 262.731 87.9507C262.734 87.5498 262.073 87.1204 261.914 87.9507C262.901 88.1065 262.417 88.7608 261.914 89.4114C266.635 89.1137 267.316 90.9965 265.994 93.0599ZM251.119 85.3934C251.959 86.0164 252.732 86.397 253.765 85.0367C252.69 85.0229 253.018 83.753 252.133 83.5696C252.526 85.4072 248.394 81.8103 248.054 84.3022C248.947 84.0267 249.647 84.3511 250.273 84.7769C247.129 84.7225 243.313 84.0608 241.76 85.421C244.817 86.4348 248.832 86.3242 251.119 85.3934ZM258.655 83.5733C253.431 82.731 256.86 85.8016 258.655 83.5733V83.5733ZM261.102 87.9507C255.879 87.1066 259.312 90.18 261.102 87.9507V87.9507ZM182.834 36.8608C183.917 36.753 185.87 39.3141 186.097 37.5907C185.011 37.6976 183.635 34.6242 182.834 36.8608ZM190.169 49.2688C186.279 47.2405 188.196 51.664 190.169 49.2688V49.2688ZM122.505 52.1902C125.022 52.0861 123.104 49.102 121.69 51.4566C121.411 51.9202 122.056 52.2031 122.505 52.1902ZM190.169 55.1079H191.8V53.6472C190.806 53.7274 189.87 53.8647 190.169 55.1079ZM197.506 34.6694C199.375 35.1089 200.468 29.6201 197.506 30.291C198.392 33.392 197.016 33.9662 197.506 34.6694ZM240.72 71.1644C240.936 71.2408 242.781 72.7531 243.979 71.8952C244.385 71.6076 236.841 69.7728 240.72 71.1644ZM116.69 72.825V74.0756C115.952 73.9539 114.747 75.6294 114.351 74.0858C115.643 74.1208 116.307 73.601 116.69 72.825ZM141.257 43.4261C140.553 44.8729 133.409 47.081 133.103 44.1606C136.16 45.4231 138.342 43.2123 141.257 43.4261ZM134.735 39.7813C136.656 39.7961 137.135 38.5252 139.625 39.0514C139.927 40.291 138.991 40.4292 137.994 40.5084C138.427 41.0973 138.844 41.6954 138.81 42.6999C136.504 42.0972 136.699 43.7237 134.735 43.4261C136.261 42.0382 134.823 41.5959 134.735 39.7813ZM113.54 77.7305C115.38 77.6328 116.324 76.2827 116.69 75.2552V77.9277C116.736 78.6927 117.738 78.4991 117.506 77.1979V65.5197C117.929 61.2584 116.938 57.6726 117.506 53.8444C117.696 52.5634 118.272 51.3036 118.686 50.0512C120.708 50.6079 121.179 47.2064 120.058 49.2688C119.706 49.2274 119.308 49.2237 118.929 49.2062C119.03 48.8053 119.119 48.4062 119.138 48.0053C119.196 46.7806 119.138 45.5447 119.034 44.2951C120.402 43.7108 122.331 43.6233 123.322 42.6999C122.974 46.3198 125.757 43.1072 126.577 44.8868C123.487 44.9559 126.641 46.7898 126.577 47.081C126.561 47.199 125.077 46.964 124.953 47.081C124.273 47.7049 125.463 49.9646 124.953 50.7258C129.932 51.2281 131.982 48.9463 136.362 50.7258C133.35 50.5498 135.871 53.2177 135.547 53.6472C134.672 54.813 132.152 53.332 132.288 55.8387C134.244 56.9418 134.32 54.6609 135.547 54.378C135.832 52.9136 139.679 51.7082 137.186 50.7295C137.179 50.7369 137.179 50.7461 137.17 50.7534C137.005 51.3248 137.144 52.169 136.362 52.1866C136.508 51.6161 136.806 51.1589 137.17 50.7534C137.174 50.7461 137.174 50.7369 137.179 50.7258C137.182 50.7258 137.182 50.7295 137.186 50.7295C140.02 47.6634 148.513 49.0956 151.858 49.2651C151.224 49.4283 150.246 49.2891 150.223 49.9996C152.785 50.8327 152.202 48.8541 153.486 48.539C154.344 52.5985 158.241 49.7112 162.455 49.9996C164.412 50.1305 168.823 51.1589 170.605 51.4566C170.184 51.3875 175.272 52.6777 171.421 51.4566C170.582 49.9471 166.611 49.5628 164.083 49.2651C164.709 49.3379 165.764 48.5417 165.714 48.539C164.485 48.4173 164.04 49.1656 163.268 49.2651C160.869 49.6006 157.557 49.0541 155.929 49.2651C156.374 49.2098 156.865 49.9056 155.929 49.9996C154.908 49.6983 154.263 49.0569 154.302 47.8081C159.127 47.798 158.507 48.3233 162.455 48.539C162.696 45.8839 158.105 47.5658 156.746 46.3475C155.929 46.3475 155.778 46.9428 155.118 47.081C155.372 46.0922 156.276 45.6867 155.929 44.1606C147.249 45.0388 140.565 48.8016 133.918 47.8081C137.785 43.8279 144.918 46.8949 148.596 43.4261C150.678 42.6372 152.481 45.648 153.486 43.4261C150.845 39.702 146.07 46.4027 142.072 43.4261C145.865 44.0703 141.521 41.0245 143.701 41.2392C144.922 42.3948 147.037 41.7793 147.779 40.5084C145.312 39.8301 141.438 41.5544 141.257 40.5084C141.5 37.4175 144.686 40.983 145.336 39.0514C144.697 38.8883 143.724 39.0302 143.701 38.3206C144.334 38.1584 145.312 38.3003 145.336 37.5907C142.567 37.7953 140.65 38.7537 137.179 38.3206C136.605 36.1752 134.444 36.1678 137.179 34.673C134.27 34.3376 132.434 36.3061 129.84 36.8608C129.148 37.0092 127.346 36.389 126.577 36.8608C126.051 37.1862 127.033 39.3417 125.764 39.0514C123.684 39.8477 121.571 36.5558 121.69 39.7813C121.296 41.6125 125.425 38.0202 125.764 40.5084C123.73 40.702 123.043 43.2538 120.874 41.2392C119.285 42.5616 121.674 42.8446 120.058 43.4261C119.726 43.5477 119.354 43.544 118.971 43.4878C118.535 39.0514 117.557 34.3855 118.322 29.0238C118.358 28.2488 117.939 27.1724 117.506 28.2939C117.905 33.9219 117.058 38.5003 116.431 43.1146C116.258 43.1708 116.099 43.2537 115.983 43.4261C116.184 43.4297 116.261 43.5404 116.378 43.6206C115.786 48.092 115.442 52.6261 116.69 58.2163V72.6352C112.913 72.6841 114.831 75.1935 113.54 76.2736C113.532 75.54 112.109 75.3529 111.909 76.2736C112.898 76.3556 113.834 76.491 113.54 77.7305ZM168.162 42.6999H165.714C165.08 42.8658 164.106 42.7202 164.083 43.4261C165.266 43.0316 168.297 44.2813 168.162 42.6999ZM184.461 53.6472C185.382 52.0455 187.629 52.0455 188.54 53.6472C188.042 53.6887 187.574 53.7541 187.725 54.378C188.846 54.4084 189.516 54.0315 190.169 53.6472V52.1866C188.735 51.183 181.067 50.771 184.461 53.6472ZM218.709 47.8081C218.434 48.1335 217.657 46.6322 218.709 46.3475C215.651 45.7245 216.586 50.3378 218.709 47.8081ZM158.377 76.2736C159.2 76.2662 159.401 74.9926 158.377 74.8129C158.779 77.1177 154.329 75.0865 155.118 77.7342C157.68 78.5719 157.097 76.5841 158.377 76.2736ZM137.179 87.2181C137.664 86.5315 140.808 83.4581 137.179 83.5733C138.241 85.3823 134.785 86.6016 137.179 87.2181ZM161.639 71.8915C159.784 71.6869 158.574 72.0712 158.377 73.3522C159.891 73.2545 161.102 72.8739 161.639 71.8915ZM51.5757 185.023C52.1594 187.412 54.9162 187.873 58.0971 187.941C57.5021 185.558 53.5399 186.187 51.5757 185.023ZM153.486 71.8952C153.985 71.7247 158.048 72.5495 155.929 71.1644C152.322 71.0943 150.049 72.2196 148.596 74.0858C150.091 74.6009 151.733 72.4933 153.486 71.8952ZM139.625 77.7342C139.3 78.7443 134.997 79.7967 137.179 80.6547C136.559 78.7968 142.749 79.429 139.625 77.7342ZM118.427 59.4862C119.946 59.3821 121.156 59.0052 121.69 58.0256C120.645 57.9841 120.561 57.0911 119.242 57.2994C119.277 58.303 118.86 58.8974 118.427 59.4862ZM142.072 50.7295C141.11 50.8401 139.757 50.6051 139.625 51.4566C140.26 51.6225 141.233 51.4769 141.257 52.1902C140.622 52.3496 139.648 52.2031 139.625 52.9173H142.072V50.7295ZM155.118 73.3522C154.835 73.8222 155.48 74.0996 155.929 74.0858C158.454 73.9816 156.532 70.9985 155.118 73.3522ZM113.54 83.5733C113.439 83.3125 111.463 83.6111 111.909 82.8425C112.039 82.6075 115.202 81.156 113.54 79.9211C113.369 80.8077 112.635 80.3708 111.909 79.9211C108.297 83.9539 113.995 84.8082 113.54 83.5733ZM107.014 76.2736V78.4641H109.465C109.611 76.868 108.792 76.1381 107.014 76.2736ZM125.764 52.9173C127.852 52.8408 129.654 52.5017 130.659 51.4566C129.283 50.2171 126.99 51.8861 125.764 52.9173ZM63.8124 170.425C63.94 168.597 62.5523 168.14 61.3603 167.507C61.2223 169.331 62.609 169.788 63.8124 170.425ZM59.7287 178.455C54.9975 177.687 59.389 181.618 59.7287 178.455V178.455ZM62.9919 191.589C62.9538 192.597 63.3749 193.193 63.8041 193.78H65.4357C65.2185 189.724 68.5991 195.304 68.6948 193.05C66.6762 190.86 67.2454 190.161 63.8041 190.132C63.905 192.151 65.3626 192.634 62.9919 191.589ZM62.1725 175.534C60.6654 176.821 62.3856 177.794 63.8124 178.455C63.696 177.094 63.2668 176.014 62.1725 175.534ZM130.659 53.6472C129.484 52.0999 128.231 54.4738 126.581 55.1079C125.119 55.6645 121.265 54.9309 121.69 57.2994C125.247 57.5206 125.311 55.1355 128.208 56.5649C127.496 54.225 130.327 55.0489 130.659 53.6472ZM138.81 58.7601C137.03 58.6209 136.215 59.3545 136.362 60.9469C137.583 60.8225 139.374 61.2068 139.625 60.2207C138.994 60.0502 138.012 60.1922 137.994 59.4862C138.492 59.4448 138.96 59.3757 138.81 58.7601ZM148.596 49.9996C146.027 49.6282 145.406 51.5875 143.701 49.9996C143.739 51.0032 143.318 51.6013 142.885 52.1866C145.486 52.8132 145.406 51.0373 146.964 50.7295C148.104 50.7811 150.079 50.5664 148.596 49.9996ZM129.028 68.243C127.125 68.4881 125.513 68.9904 124.953 70.4382C126.855 70.1884 128.459 69.6862 129.028 68.243ZM117.615 71.8952C119.633 72.0021 120.997 71.5173 121.69 70.4345C119.667 70.3239 118.31 70.8114 117.615 71.8952ZM171.421 53.6472C168.785 52.7431 170.799 56.0073 168.162 55.1042C167.428 54.918 167.732 52.7505 168.162 52.9173C166.286 52.1828 167.515 53.7993 164.083 53.6472C160.417 53.4841 161.604 53.2703 159.192 54.378C158.013 54.9208 154.278 55.2876 156.746 55.8387C159.281 54.9484 161.914 54.1421 165.714 54.378C166.604 55.1079 169.716 57.5132 170.605 55.8387C168.243 55.4267 171.853 54.6959 171.421 53.6472ZM169.789 66.0561C164.57 65.2147 168.003 68.2854 169.789 66.0561V66.0561ZM168.977 61.6777C166.554 61.5035 161.102 62.3449 162.455 63.1347C165.981 61.7358 167.505 65.834 168.977 63.8646C168.343 63.7024 167.369 63.8471 167.345 63.1347C168.34 63.0518 169.275 62.9135 168.977 61.6777ZM63.8124 213.489C65.7919 212.637 62.8962 210.048 62.1725 212.028C63.2513 212.035 62.9188 213.305 63.8124 213.489ZM125.764 66.7823C123.739 66.8625 123.244 68.1527 121.69 66.7823C121.929 68.7075 118.528 67.3647 119.242 69.7037C123.104 69.5719 122.494 68.396 120.874 68.243C122.293 66.8929 124.013 68.4301 122.505 69.7037C125.06 70.0428 124.802 67.8688 125.764 66.7823ZM123.322 74.8129C123.716 74.2314 124.643 75.0064 124.953 74.0858C125.108 73.6084 124.66 72.5697 124.133 72.625C123.556 74.8128 118.949 77.1794 120.058 78.4604C122.184 77.5398 122.22 76.4459 123.322 74.8129ZM136.362 63.8646C137.329 63.5154 138.21 63.0859 138.81 62.4076C137.719 62.2933 134.317 63.5531 136.362 63.8646ZM147.779 87.2209C148.808 86.3666 148.432 84.1917 146.148 84.3004C146.26 85.6597 146.681 86.7435 147.779 87.2209ZM145.336 78.4604C140.612 76.3556 143.186 80.2602 145.336 78.4604V78.4604ZM145.336 69.7037C145.111 71.2086 141.721 69.8769 142.072 71.8952C144.23 72.5283 147.021 70.1119 145.336 69.7037ZM239.309 81.0427C234.088 80.2013 237.521 83.271 239.309 81.0427V81.0427ZM253.17 86.8817C254.712 86.5564 258.083 87.8724 257.247 85.421C255.794 85.8228 253.869 85.7952 253.17 86.8817ZM296.381 324.815C297.558 327.338 295.469 328.259 297.193 329.927C296.555 328.127 300.159 324.873 296.381 324.815ZM262.142 369.34C262.258 370.309 259.396 372.057 261.322 372.257C261.369 371.811 261.447 371.396 262.142 371.527C262.32 372.092 262.157 372.967 262.954 372.987C264.593 371.5 262.591 371.555 262.142 370.066C262.591 370.073 263.062 369.479 262.142 369.34ZM240.94 378.096C242.374 377.674 245.734 378.979 245.835 377.362H243.39C242.425 377.48 241.079 377.239 240.94 378.096ZM380.352 165.707C380.403 165.26 380.476 164.842 381.168 164.977C381.13 166.233 381.799 166.843 382.799 167.167C383.86 164.564 377.649 163.366 380.352 165.707ZM305.343 288.323C306.75 288.362 307.439 287.76 307.794 286.863C306.391 286.824 305.708 287.424 305.343 288.323ZM245.835 375.175C241.639 376.94 248.641 377.062 245.835 375.175V375.175ZM328.99 91.99C328.135 91.9485 328.347 91.0527 329.809 91.2638C329.074 94.1916 335.856 98.429 336.327 97.0992C336.32 96.9812 336.316 96.9646 336.304 96.8844C336.235 96.4734 336.258 96.3895 336.304 96.8844C336.474 97.8253 337.194 100.214 339.591 100.021C339.409 98.6428 340.511 98.4106 340.407 97.0992C338.941 97.1895 338.501 96.372 338.78 94.9077C334.387 94.939 333.95 91.4435 330.626 90.5293C328.061 87.1306 326.237 94.2921 328.99 91.99ZM328.174 98.5598C324.188 95.7979 325.182 101.121 328.174 98.5598V98.5598ZM389.317 183.221C390.362 184.287 391.653 188.856 392.581 187.603C390.795 186.765 393.385 182.016 389.317 183.221ZM342.854 131.4C343.365 129.184 342.127 124.834 340.407 127.024C343.229 126.679 340.874 130.988 342.854 131.4ZM380.348 166.434C380.108 169.327 381.346 170.898 382.799 172.276C381.605 170.67 382.896 166.831 380.348 166.434ZM390.949 181.763C389.874 181.757 390.208 180.483 389.317 180.303C388.39 181.801 390.601 183.782 390.949 181.763ZM384.431 162.786C381.803 160.332 381.706 154.901 378.721 154.029C379.8 156.902 379.444 157.213 377.089 155.49C376.772 157.722 379.359 157.857 380.352 159.138C382.391 161.761 384.091 166.413 385.243 169.358C385.684 170.484 383.929 172.622 386.875 172.276C385.143 170.549 387.045 167.87 386.875 167.167C386.763 166.676 384.37 162.73 384.431 162.786ZM258.879 75.2027C255.581 72.6352 256.954 77.5536 258.879 75.2027V75.2027ZM82.7834 254.02C83.1591 251.732 80.7307 251.96 79.5201 251.103C79.796 252.794 80.0472 254.522 82.7834 254.02ZM389.317 169.356C389.07 169.524 389.488 170.559 389.317 170.815C389.249 170.923 388.081 171.363 389.317 171.545C391.096 171.81 390.966 168.234 389.317 169.356ZM243.388 70.0953C238.635 69.946 239.718 70.946 241.76 70.8243C246.105 70.5654 245.374 68.925 243.388 70.0953ZM309.427 104.399C308.259 104.223 308.05 103.197 306.983 102.938C306.265 104.44 309.094 106.213 309.427 104.399ZM303.72 348.171C302.235 350.438 300.325 349.358 299.637 347.441C298.93 347.157 296.993 349.023 295.566 348.902C295.288 348.88 294.282 346.568 293.934 348.171C296.467 348.617 293.122 355.876 294.75 353.277C297.015 353.609 294.112 349.303 296.381 349.636C297.746 352.55 302.275 349.328 302.9 351.823C301.366 349.366 306.589 349.427 303.72 348.171ZM299.641 352.55C300.417 353.906 297.202 354.99 299.641 355.474C299.884 355.024 301.667 352.664 299.641 352.55ZM326.546 286.863C326.427 287.725 325.092 288.517 326.546 289.054C326.662 288.192 327.992 287.396 326.546 286.863ZM304.532 339.415C302.282 338.92 302.672 339.283 301.269 337.223C301.311 338.231 300.886 338.826 300.457 339.415C302.08 339.898 303.936 341.93 304.532 339.415ZM161.047 381.744C159.649 381.706 158.953 382.305 158.596 383.202C160.005 383.243 160.689 382.642 161.047 381.744ZM167.57 381.018C167.884 380.222 168.544 379.26 167.57 380.283C162.912 379.772 162.912 381.527 167.57 381.018ZM292.307 357.663C290.586 359.694 287.61 362.583 289.044 364.231C290.571 363.397 289.685 361.102 290.675 359.849C290.837 359.649 292.183 360.064 292.307 359.849C293.181 358.34 292.562 357.413 293.934 356.202C294.347 355.838 295.717 356.339 295.566 355.474C293.359 353.395 293.637 356.09 292.307 357.663ZM314.314 307.302C312.821 307.097 314.475 308.572 314.314 308.762C314.113 308.994 313.857 309.181 313.594 309.368C315.248 308.585 317.043 307.598 314.314 307.302ZM311.87 310.219C311.846 310.233 311.827 310.25 311.808 310.264C312.465 310.025 313.076 309.735 313.594 309.368C312.852 309.717 312.14 310.032 311.87 310.219ZM385.247 237.233C384.129 239.423 377.936 240.878 379.536 243.072C380.967 240.703 383.611 239.423 386.058 237.964C386.098 237.188 385.675 236.108 385.247 237.233ZM359.97 242.345C360.189 240.839 363.005 241.653 363.232 240.151C361.071 239.517 358.288 241.937 359.97 242.345ZM355.079 245.99C354.762 247.032 354.096 247.225 355.079 248.181C352.922 248.19 350.28 247.776 350.192 249.642C352.836 248.98 355.96 249.731 357.526 246.72C356.401 246.751 355.736 246.374 355.079 245.99ZM358.341 229.206C358.74 229.795 358.195 230.55 359.155 230.667C358.585 230.598 360.051 229.56 359.973 229.933C359.997 229.795 356.711 226.78 358.341 229.206ZM349.302 233.706C349.821 234.1 349.901 233.695 349.302 233.706V233.706ZM156.153 378.83C157.22 376.57 153.841 374.684 152.889 376.636C154.464 376.934 152.964 379.976 156.153 378.83ZM64.0244 188.329C63.7969 186.121 68.7535 179.794 66.4724 181.033C65.9999 183.317 61.8596 186.107 64.0244 188.329ZM105.606 330.654C105.56 331.589 104.562 331.665 104.794 332.845H106.426C107.338 331.789 107.303 331.066 105.606 330.654ZM151.262 381.018C152.673 382.288 156.308 381.824 156.973 380.283C154.537 380.482 152.001 378.245 151.262 381.018ZM155.337 383.202C153.181 382.893 150.389 382.402 152.074 383.936C152.125 383.49 152.202 383.07 152.889 383.202C152.5 384.856 154.94 387.587 156.153 385.396C154.46 384.984 154.429 384.254 155.337 383.202Z" fill="#F2CEAE"/>
</svg>
