<svg width="351" height="448" viewBox="0 0 351 448" fill="none" xmlns="http://www.w3.org/2000/svg">
<path d="M271.72 445.79C269.122 442.919 273.141 436.661 277.584 436.661C280.677 436.661 282.298 439.934 281.021 443.599C279.826 447.026 274.067 448.383 271.72 445.79H271.72ZM271.328 435.242C271.328 434.342 273.319 433.528 273.958 434.168C274.218 434.428 273.969 434.934 273.404 435.291C272.051 436.146 271.328 436.129 271.328 435.242H271.328ZM164.178 411.886C162.713 409.649 162.702 409.707 165.133 406.638C167.669 403.436 170.587 402.116 173.796 402.718C177.501 403.413 178.56 405.382 177.489 409.578C176.837 412.133 173.767 413.608 169.103 413.608C165.839 413.608 165.148 413.367 164.178 411.886V411.886ZM298.578 409.499C298.578 409.115 298.893 408.606 299.277 408.369C299.661 408.131 299.975 408.251 299.975 408.635C299.975 409.02 299.661 409.528 299.277 409.766C298.893 410.003 298.578 409.883 298.578 409.499ZM313.544 409.179C313.02 407.812 313.714 406.622 315.036 406.622C316.349 406.622 316.329 408.309 315.003 409.409C314.163 410.107 313.883 410.063 313.544 409.179H313.544ZM274.593 403.362C273.655 402.424 274.165 399.819 275.528 398.586C276.684 397.539 277.23 397.457 278.671 398.113C280.686 399.031 280.854 400.096 279.327 402.275C278.296 403.748 275.598 404.367 274.593 403.362L274.593 403.362ZM233.435 402.366C231.553 401.283 231.861 398.938 233.884 398.938C235.855 398.938 236.649 400.45 235.483 401.984C234.872 402.788 234.34 402.887 233.435 402.366ZM322.497 399.171C322.013 398.976 321.298 398.221 320.908 397.493C320.352 396.454 320.765 395.092 322.837 391.133C325.46 386.122 325.474 386.05 325.419 378.021C325.37 370.767 325.143 369.36 323.192 364.167C320.699 357.535 315.539 349.37 312.451 347.172L310.339 345.668L308.172 347.27C305.762 349.051 302.719 349.348 301.052 347.965C300.451 347.466 299.005 345.059 297.839 342.616C296.673 340.174 295.072 337.829 294.281 337.406C292.294 336.342 288.54 337.182 286.098 339.237C283.644 341.302 280.848 341.427 277.859 339.604C276.521 338.788 275.034 338.42 274.082 338.669C273.179 338.905 272.685 338.8 272.919 338.421C273.143 338.059 271.323 337.044 268.875 336.166L264.424 334.57L262.116 336.188C260.846 337.079 259.703 337.86 259.576 337.924C258.951 338.24 261.035 340.955 261.903 340.955C262.452 340.955 264.036 341.951 265.422 343.168C267.309 344.825 267.837 345.746 267.522 346.836C267.291 347.636 266.613 350.177 266.015 352.482C265.28 355.317 264.213 357.386 262.717 358.877C261.501 360.089 260.1 361.582 259.605 362.195C258.98 362.968 257.542 363.31 254.917 363.31C251.689 363.31 250.866 363.027 249.332 361.389L247.532 359.468L246.334 360.959C244.74 362.945 239.561 366.104 237.901 366.104C235.853 366.104 234.752 364.393 235.682 362.656C236.632 360.88 236.597 360.88 232.445 362.67C230.201 363.638 226.961 364.242 222.782 364.472C217.12 364.784 215.898 364.613 210.503 362.752C200.109 359.168 197.124 356.494 196.193 349.935C195.137 342.499 192.884 339.702 188.647 340.569C187.441 340.816 183.968 341.314 180.929 341.677C174.61 342.431 173.537 341.985 173.521 338.599C173.505 335.328 172.674 334.438 170.155 334.991C168.543 335.345 167.511 336.31 166.051 338.83C163.426 343.36 157.73 349.338 156.039 349.338C155.265 349.338 154.67 349.811 154.67 350.427C154.67 351.026 154.342 351.314 153.941 351.066C153.539 350.818 152.793 350.962 152.283 351.386C151.772 351.81 150.871 351.971 150.281 351.745C149.585 351.478 149.045 351.845 148.745 352.788C148.08 354.886 144.408 356.675 143.061 355.557C142.495 355.088 142.21 354.238 142.428 353.67C142.758 352.811 142.264 352.714 139.496 353.093C127.865 354.688 118.671 358.705 113.577 364.421C109.923 368.521 107.71 369.197 107.301 366.338C107.152 365.298 107.843 364.262 109.559 362.953C112.468 360.735 122.68 356.219 128.543 354.559C130.81 353.917 133.057 352.891 133.538 352.279C134.074 351.596 134.411 351.493 134.411 352.013C134.411 352.568 135.071 352.719 136.332 352.452C137.389 352.228 138.96 351.902 139.825 351.726C140.72 351.545 141.401 350.887 141.407 350.198C141.426 348.113 142.507 347.057 144.104 347.564C144.92 347.823 145.588 348.465 145.588 348.989C145.588 350.499 148.258 350.952 151.617 350.012C155.86 348.824 155.948 348.181 151.86 348.24C146.391 348.32 144.734 345.657 145.593 338.161C145.729 336.975 151.748 333.97 153.988 333.97C155.782 333.97 158.214 335.207 159.363 336.704C160.717 338.468 160.429 342.647 158.811 344.704C158.014 345.716 157.663 346.545 158.031 346.545C158.821 346.545 163.308 341.693 164.392 339.667C165.058 338.423 164.919 338.228 163.227 338.033C161.851 337.875 161.243 337.366 161.083 336.239C160.701 333.55 158.628 333.044 150.179 333.573C145.925 333.84 142.171 334.328 141.836 334.658C141.501 334.988 140.794 335.092 140.264 334.888C139.637 334.648 139.301 335.023 139.301 335.965C139.301 338.9 136.412 345.086 134.087 347.127C130.86 349.961 127.447 350.938 121.947 350.603C116.07 350.244 112.949 348.729 107.402 343.54C97.1735 333.972 95.2165 321.431 102.773 313.875L105.798 310.851L103.567 308.974C102.341 307.942 100.841 307.092 100.235 307.086C99.3679 307.077 99.1824 306.439 99.3669 304.105C99.496 302.472 99.4239 301.136 99.2065 301.136C97.5546 301.136 93.2649 303.585 92.975 304.693C92.7122 305.698 92.0907 306.018 90.6151 305.905C89.5134 305.821 87.2067 306.411 85.4891 307.216C74.7291 312.258 71.6941 311.732 66.1401 303.864C61.645 297.497 58.1197 294.15 55.9061 294.15C52.8073 294.15 43.9651 302.712 41.8381 307.772C41.0584 309.627 40.981 313.318 41.633 317.552C41.7896 318.569 41.3975 319.013 40.191 319.184C38.572 319.413 38.5406 319.317 38.8239 314.993C39.0636 311.333 39.5762 309.847 41.7834 306.411C44.4823 302.21 50.5243 295.834 53.9114 293.612C55.5275 292.552 58.4486 292.359 77.5694 292.045C89.5674 291.848 99.5894 291.481 99.8404 291.23C100.092 290.979 99.6421 290.118 98.8416 289.318C98.0412 288.517 97.3862 287.548 97.3862 287.164C97.3862 286.779 96.3244 286.465 95.0267 286.465C92.2134 286.465 91.4319 285.622 90.8719 281.984C90.5519 279.905 90.6458 279.445 91.264 280.063C91.7111 280.511 93.0958 280.876 94.341 280.876C95.5863 280.876 96.814 281.214 97.0693 281.627C97.3717 282.117 98.0557 281.904 99.0316 281.016C101.27 278.98 103.318 278.088 105.898 278.025L108.214 277.968L105.917 276.964C104.653 276.412 103.442 275.497 103.224 274.93C102.955 274.23 102.238 274.025 100.981 274.289C99.4244 274.616 99.3256 274.554 100.355 273.9C102.328 272.645 101.824 271.571 99.4815 272.039C96.4527 272.645 94.1803 271.528 93.2989 268.999C92.6095 267.022 92.7172 266.633 94.3813 265.09C95.3977 264.149 97.0397 263.178 98.0302 262.935C99.0207 262.691 100.528 262.041 101.381 261.489C102.71 260.628 102.872 260.064 102.522 257.511C102.161 254.873 102.34 254.327 104.109 252.687L106.104 250.837H103.644C102.291 250.837 99.5432 250.411 97.5383 249.891C95.5335 249.371 93.8931 249.214 93.8931 249.542C93.8931 249.87 94.2814 250.138 94.756 250.138C95.2306 250.138 94.4022 250.791 92.915 251.588C89.8018 253.256 87.2247 252.938 86.5466 250.801C85.9659 248.971 87.9039 245.947 89.657 245.947C90.8342 245.947 90.8916 245.72 90.1863 243.851C89.2641 241.408 89.1566 241.382 87.0802 243.114C86.1642 243.879 85.676 244.868 85.9118 245.483C86.4354 246.847 84.065 248.183 82.678 247.306C81.1601 246.346 80.7599 246.495 80.235 248.217C79.9716 249.082 79.2431 250.381 78.6161 251.104C77.541 252.345 77.5622 252.393 78.9893 251.949C80.8459 251.372 81.9605 252.829 80.4907 253.912C79.918 254.334 79.5817 255.072 79.7434 255.552C80.2247 256.981 77.8285 257.427 76.5489 256.147C75.5356 255.133 75.5169 254.894 76.4081 254.343C77.9367 253.398 76.777 252.697 75.1369 253.575C74.3608 253.99 72.248 254.33 70.4417 254.33C67.8349 254.33 66.8235 253.969 65.537 252.581C61.6172 248.352 63.1362 241.966 68.744 239.101C70.8782 238.011 72.5525 237.622 73.9583 237.891C76.0357 238.289 80.7816 241.128 80.2527 241.657C80.0976 241.812 80.2792 242.516 80.6566 243.221C81.2823 244.39 81.5494 244.277 83.69 241.941C86.8795 238.461 89.6678 238.46 94.634 241.936C97.5426 243.972 98.5518 244.349 99.5966 243.789C101.229 242.916 102.277 243.509 102.277 245.306C102.277 246.168 102.993 246.943 104.198 247.385C105.254 247.773 107.055 248.532 108.199 249.071C110.707 250.253 111.297 249.904 109.724 248.166C109.086 247.461 108.564 246.516 108.564 246.066C108.564 245.616 108.122 245.248 107.581 245.248C106.943 245.248 106.727 244.759 106.964 243.851C107.165 243.082 107.641 242.453 108.022 242.453C108.402 242.453 108.524 242.948 108.291 243.553C108.059 244.158 108.85 243.672 110.048 242.474C111.247 241.275 112.11 240.203 111.967 240.091C111.195 239.483 93.9443 237.665 92.2973 238.018C90.9847 238.299 89.928 238.051 89.0493 237.255C87.3028 235.675 80.5124 233.899 79.6216 234.79C78.6572 235.754 77.8262 235.628 77.8262 234.517C77.8262 233.959 76.1782 233.098 73.8321 232.43C70.3137 231.429 69.7687 231.418 69.2566 232.333C68.2861 234.067 66.0714 233.598 65.822 231.606C65.6301 230.073 64.6221 229.442 58.1881 226.824C38.1821 218.686 21.8321 207.204 12.4201 194.684C8.02928 188.843 3.41199 179.002 1.56409 171.547C0.300589 166.449 0.00609058 163.279 0.00699058 154.781C0.00899058 134.64 4.22479 120.096 19.839 86.3614C27.4903 69.8304 28.2264 67.8614 28.2264 63.9274C28.2264 61.118 29.5114 58.7259 31.0207 58.7259C32.4983 58.7259 33.9016 61.0821 33.4727 62.8432C33.2288 63.8446 29.3696 71.5664 24.8966 80.0032C11.8816 104.551 5.8216 119.635 2.2916 136.269C0.0913975 146.638 0.0846848 163.444 2.27728 171.548C5.47418 183.363 12.2354 194.503 21.3063 202.902C32.1313 212.924 52.9183 224.277 71.8213 230.491C77.8127 232.461 82.8723 234.072 83.0643 234.072C83.2565 234.072 83.4138 233.601 83.4138 233.024C83.4138 232.423 84.0438 231.976 84.8924 231.976C86.0028 231.976 86.2843 232.308 86.0229 233.308C85.5902 234.962 88.5812 235.771 89.7822 234.324C90.9027 232.974 92.2282 233.145 93.8119 234.845C94.5659 235.654 95.4944 236.124 95.8752 235.888C96.2561 235.653 96.677 235.789 96.8108 236.19C96.9877 236.721 110.565 239.082 111.083 238.672C111.124 238.639 111.342 237.641 111.567 236.453C111.936 234.512 111.732 234.176 109.55 233.135C107.418 232.119 107.073 232.105 106.72 233.025C106.261 234.222 103.98 234.434 103.305 233.343C103.057 232.942 103.263 232.122 103.761 231.521C104.533 230.592 104.359 230.209 102.599 228.958C98.9386 226.356 90.9809 218.438 89.1719 215.598C88.0937 213.905 87.4158 211.824 87.4158 210.206C87.4158 208.522 86.9457 207.145 86.1139 206.392C84.5094 204.94 84.4586 203.486 85.9547 201.833C87.0244 200.651 86.9389 200.395 84.6151 197.823C83.2499 196.312 81.8216 194.493 81.4411 193.783C80.5734 192.161 80.6218 187.208 81.5168 186.045C82.4491 184.833 85.2758 184.949 85.7632 186.219C86.2405 187.463 85.6204 189.363 84.7372 189.363C84.3941 189.363 84.1134 190.669 84.1134 192.265C84.1134 196.372 87.5396 199.484 95.3134 202.44C100.728 204.499 106.468 208.186 106.468 209.604C106.468 209.923 105.525 210.513 104.373 210.914C103.097 211.359 102.277 212.134 102.277 212.895C102.277 214.909 111.277 222.939 117.984 226.908C121.389 228.923 124.303 230.443 124.461 230.285C124.618 230.128 124.529 228.253 124.262 226.12C123.889 223.132 123.463 222.142 122.408 221.807C121.578 221.544 121.191 220.973 121.426 220.361C121.645 219.788 121.301 219.153 120.632 218.896C119.982 218.647 118.719 217.637 117.826 216.652C116.392 215.071 116.238 214.332 116.507 210.321C116.775 206.337 116.606 205.507 115.129 203.551C113.888 201.907 113.034 201.405 111.878 201.64C111.016 201.816 109.21 201.951 107.866 201.94C106.521 201.929 104.729 201.919 103.883 201.918C103.038 201.917 102.155 201.607 101.921 201.229C101.687 200.85 101.865 200.541 102.316 200.541C102.859 200.541 102.753 199.956 102.001 198.809C100.061 195.848 100.422 192.431 102.959 189.73C103.868 188.763 104.398 187.759 104.138 187.498C103.877 187.238 101.819 187.1 99.5645 187.192C95.8116 187.345 95.3345 187.194 93.9261 185.403C92.7976 183.969 92.4981 182.895 92.8022 181.374C93.2565 179.103 95.5219 176.333 97.4174 175.731C98.553 175.371 98.5465 175.099 97.3069 171.116C96.5825 168.788 95.9897 165.987 95.9897 164.892C95.9897 162.223 95.1567 161.864 92.0036 163.178C85.2658 165.984 80.4306 171.686 80.4306 176.824C80.4306 178.342 80.0963 179.583 79.6876 179.583C79.2155 179.583 79.2503 179.889 79.7829 180.422C81.8199 182.459 79.9193 185.345 75.9922 186.179C73.4315 186.722 71.5396 185.28 71.5396 182.785C71.5396 181.137 73.4872 178.885 74.9129 178.885C75.4078 178.885 75.7311 177.73 75.7311 175.962C75.7311 173.377 76.127 172.657 79.1544 169.739C82.3163 166.692 91.8014 161.42 94.1224 161.42C94.816 161.42 95.2068 160.012 95.5067 156.435C95.7366 153.693 96.4661 149.348 97.1278 146.78C97.7896 144.211 98.1243 141.57 97.8717 140.912C97.4424 139.793 97.2862 139.79 95.4787 140.87L93.545 142.025L95.2167 140.641C96.5146 139.567 96.8008 138.807 96.4966 137.24C96.0805 135.098 97.7007 130.737 99.2707 129.774C101.872 128.179 98.9228 124.651 91.9605 121.029C84.5551 117.176 84.2745 116.781 84.4327 110.423C84.5373 106.22 84.7866 105.14 85.6922 104.966C86.7925 104.754 90.7507 108.529 90.7507 109.79C90.7507 110.138 91.6286 111.523 92.7016 112.868C94.4909 115.11 94.9598 115.313 98.3629 115.313C101.355 115.313 102.439 114.974 103.963 113.561C108.327 109.517 110.309 99.9371 109.108 88.6961C108.465 82.6694 108.511 82.1037 109.711 81.3069C110.425 80.8323 111.554 80.0374 112.22 79.5403C112.934 79.0069 114.124 75.8871 115.123 71.9269C117.67 61.8299 120.294 57.3299 123.634 57.3299C124.698 57.3299 125.331 56.9276 125.331 56.2516C125.331 55.6585 127.024 53.4937 129.093 51.4409C133.119 47.4474 135.27 42.9742 136.185 36.6939C136.853 32.1079 138.289 29.3862 140.041 29.3862C141.972 29.3862 142.474 31.1524 141.126 33.2092C140.507 34.1532 140.001 35.6792 140.001 36.6001C140.001 37.521 139.093 40.2828 137.983 42.7373C131.474 57.1293 131.46 66.7773 137.945 69.8233C140.247 70.905 140.375 71.1638 140.915 75.8428C141.778 83.3218 142.63 85.9718 144.171 85.9718C146.995 85.9718 150.568 79.8254 151.913 72.6548C153.557 63.887 154.64 60.9438 157.395 57.7608C159.542 55.2804 160.339 53.5511 161.275 49.3436C162.49 43.8806 164.951 39.8649 167.084 39.8649C167.695 39.8649 169.242 41.0085 170.523 42.4063C172.77 44.8594 172.976 44.9328 176.471 44.5189C181.336 43.9426 185.835 41.0324 189.102 36.3475C192.197 31.9086 192.709 31.6159 194.518 33.253C195.646 34.2738 196.04 34.3209 196.974 33.5461C201.443 29.8376 203.381 17.0471 201.111 6.25505C199.956 0.763752 200.435 -0.953754 202.719 0.486146C205.538 2.26335 205.465 18.2131 202.586 29.5621C200 39.7581 196.491 46.0911 184.494 62.2171C177.053 72.2191 174.528 76.4802 173.785 80.2892C173.351 82.5153 173.415 82.6136 175.002 82.1512C175.923 81.8828 178.23 80.7226 180.127 79.5732C182.867 77.9139 184.061 77.5743 185.927 77.9243C189.873 78.6644 189.829 82.0542 185.857 83.3782C184.498 83.8313 183.315 83.7049 181.688 82.9329C179.874 82.0722 178.831 82.0034 176.514 82.5916C174.06 83.2145 173.538 83.6674 173.138 85.5236C172.494 88.5104 170.49 92.343 166.409 98.3986C164.024 101.937 163.109 103.906 163.411 104.856C163.733 105.87 163.579 106.121 162.817 105.829C162.094 105.551 161.646 106.093 161.301 107.663C160.599 110.856 162.712 113.542 166.002 113.64C169.374 113.74 170.04 114.317 170.04 117.136C170.04 119.84 169.191 121.722 165.135 127.997C163.621 130.339 162.552 132.53 162.76 132.866C162.967 133.202 162.847 133.477 162.493 133.477C161.46 133.477 158.185 141.417 157.095 146.564C156.544 149.163 156.088 153.209 156.081 155.553L156.069 159.816L159.122 158.348C160.949 157.468 162.676 155.968 163.423 154.608C164.11 153.36 165.015 152.312 165.435 152.281C165.855 152.249 167.001 152.089 167.982 151.926C170.26 151.546 172.835 153.854 172.835 156.277C172.835 157.363 172.012 158.833 170.739 160.023C169.586 161.099 168.643 162.661 168.643 163.492C168.643 164.324 168.302 165.643 167.884 166.422C167.263 167.584 167.389 168.025 168.583 168.861C169.385 169.423 170.04 170.357 170.04 170.937C170.04 171.725 170.44 171.857 171.612 171.458C172.477 171.163 173.923 170.954 174.826 170.992C176.021 171.042 176.258 170.851 175.699 170.292C175.276 169.869 174.941 169.193 174.954 168.79C174.967 168.386 175.586 168.788 176.331 169.681C177.151 170.665 178.038 171.103 178.579 170.792C179.07 170.509 179.235 170.538 178.946 170.857C178.657 171.175 178.947 172.018 179.59 172.729C180.299 173.512 180.8 175.337 180.859 177.358C180.914 179.192 181.205 181.092 181.506 181.579C182.42 183.059 179.995 185.038 177.36 184.964C175.494 184.911 175.149 184.702 175.743 183.986C176.605 182.947 175.761 182.793 174.294 183.721C172.323 184.969 168.136 181.665 167.519 178.375C167.137 176.34 166.82 176.008 165.494 176.262C164.34 176.482 163.619 176.052 162.789 174.647C162.167 173.593 161.657 172.229 161.657 171.616C161.657 170.967 161.074 170.501 160.26 170.501C159.492 170.501 158.863 170.62 158.863 170.765C158.863 172.851 165.095 183.143 173.036 194.169L177.252 200.023L178.564 197.466C179.285 196.059 179.657 194.555 179.391 194.124C179.123 193.691 179.217 193.531 179.598 193.767C180.395 194.259 183.485 192.303 183.044 191.586C182.882 191.324 183.871 191.027 185.241 190.926C188.237 190.706 189.597 189.704 189.611 187.706C189.624 185.852 190.748 183.99 191.437 184.68C191.72 184.963 191.58 185.567 191.126 186.022C190.128 187.019 190.016 191.459 190.988 191.459C192.543 191.459 197.267 195.441 197.949 197.326C199.109 200.533 198.814 203.677 197.156 205.785L195.629 207.726L197.374 209.226C198.334 210.052 199.325 211.265 199.577 211.921C199.829 212.578 200.48 213.115 201.023 213.115C201.567 213.115 202.177 213.748 202.38 214.522C202.582 215.295 203.876 216.4 205.255 216.976C206.959 217.688 207.763 218.476 207.763 219.434C207.763 222.151 209.834 221.817 212.788 218.622C215.934 215.22 220.338 206.519 220.338 203.705C220.338 202.706 220.784 201.192 221.329 200.341C222.244 198.911 224.986 187.61 226.477 179.12C227.098 175.587 227.074 175.507 225.296 175.161C224.298 174.967 223.376 175.1 223.246 175.457C222.752 176.819 220.287 177.617 219.245 176.752C217.843 175.588 217.953 175.203 220.421 172.62C222.311 170.642 222.946 170.386 225.212 170.69L227.824 171.041L230.371 155.577C234.416 131.016 236.928 122.979 241.423 120.21C244.625 118.237 246.487 118.604 246.716 121.251C246.816 122.404 246.502 124.031 246.018 124.868C241.137 133.301 239.713 136.12 237.431 141.86C232.289 154.797 228.069 172.9 227.011 186.57C226.758 189.836 226.374 193.106 226.158 193.836C225.845 194.897 226.028 195.072 227.069 194.708C228.294 194.278 228.299 194.308 227.149 195.203C225.635 196.382 225.571 198.381 227.014 199.436C228.656 200.637 228.716 202.806 227.154 204.52C225.935 205.857 225.826 206.571 226.301 210.108C226.949 214.929 227.048 215.768 227.204 217.832C227.294 219.014 227.76 219.403 229.084 219.403C230.612 219.403 230.786 219.174 230.405 217.657C230.098 216.432 230.25 215.917 230.916 215.932C232.162 215.961 234.505 219.2 233.658 219.724C233.299 219.946 233.174 221.173 233.382 222.451C233.707 224.456 233.45 225.017 231.505 226.539C229.308 228.258 229.273 228.371 230.11 231.014C230.582 232.505 232.06 236.033 233.395 238.854C235.519 243.343 236.185 244.139 238.733 245.229C241.21 246.29 256.141 250.482 266.27 252.961C267.903 253.361 269.239 253.969 269.239 254.312C269.239 255.564 266.658 255.704 262.928 254.655C255.208 252.484 253.682 252.531 250.841 255.025C249.433 256.261 248.282 257.533 248.282 257.853C248.282 258.173 256.849 264.446 267.318 271.792C277.788 279.139 288.117 286.42 290.272 287.973C294.149 290.769 294.212 290.786 296.367 289.671C299.522 288.04 306.291 287.495 310.111 288.564C314.334 289.746 316.045 291.982 316.045 296.317C316.045 299.1 315.663 300.127 313.863 302.177L311.681 304.663L318.688 311.568C326.724 319.486 333.739 328.412 333.387 330.268C333.244 331.024 332.419 331.611 331.321 331.739C329.829 331.913 329.028 331.318 326.959 328.499C324.262 324.825 320.936 322.784 317.686 322.809C315.471 322.826 310.197 325.012 309.448 326.224C309.182 326.653 310.581 329.829 312.557 333.28C321.9 349.607 327.678 368.06 328.983 385.739C329.495 392.682 328.612 396.978 326.348 398.564C324.771 399.669 324.024 399.787 322.499 399.173L322.497 399.171ZM245.907 341.305C245.178 340.753 244.309 340.47 243.975 340.677C242.967 341.3 244.068 342.354 245.702 342.33C247.182 342.309 247.189 342.275 245.907 341.305H245.907ZM218.765 315.366C220.606 314.872 220.766 313.294 219.323 309.841L218.309 307.414L215.83 308.596C213.322 309.791 212.626 311.204 214.224 311.852C214.882 312.119 214.838 312.39 214.05 312.948C212.563 314 211.954 313.885 211.954 312.554C211.954 311.514 211.813 311.525 210.557 312.662C208.153 314.838 208.655 315.128 215.796 315.679C216.565 315.738 217.901 315.597 218.765 315.366L218.765 315.366ZM130.918 305.858C130.918 305.182 130.682 304.627 130.394 304.624C130.106 304.622 129.305 303.627 128.614 302.413C127.501 300.458 127.238 300.325 126.317 301.246C125.745 301.818 125.21 303.206 125.129 304.33C125.009 305.973 125.289 306.418 126.552 306.598C127.417 306.721 128.124 307.274 128.124 307.827C128.124 308.657 128.367 308.68 129.521 307.96C130.29 307.48 130.918 306.534 130.918 305.858H130.918ZM123.087 295.371C123.234 292.971 123.015 290.126 122.599 289.05C121.852 287.114 121.826 287.107 120.151 288.352C117.9 290.025 117.355 292.785 119.008 294.15C120.924 295.734 121.969 298.213 121.447 299.94C121.067 301.202 121.15 301.325 121.9 300.61C122.405 300.129 122.939 297.771 123.087 295.371ZM112.674 287.787C114.452 287.167 114.736 286.82 114.096 286.048C113.656 285.518 113.017 285.256 112.676 285.467C112.336 285.677 112.045 285.281 112.03 284.586C112.013 283.829 111.593 284.265 110.982 285.673C109.524 289.031 109.432 288.917 112.674 287.787L112.674 287.787ZM105.039 271.485C106.001 270.326 105.774 267.481 104.691 267.125C104.072 266.921 102.277 270.561 102.277 272.02C102.277 272.882 104.186 272.513 105.039 271.485ZM119.067 242.775C120.25 241.35 118.997 240.058 117.037 240.68C115.799 241.073 115.712 241.336 116.436 242.496C117.459 244.134 117.9 244.181 119.067 242.775L119.067 242.775ZM103.202 174.931C103.455 174.678 103.292 174.025 102.839 173.481C102.299 172.829 102.259 172.329 102.723 172.019C103.112 171.76 104.021 170.532 104.744 169.289C105.956 167.204 109.407 164.912 111.333 164.912C111.828 164.912 112.06 164.028 111.926 162.647C111.663 159.923 110.912 159.703 104.056 160.345C97.4307 160.966 97.0937 161.222 97.6878 165.184C98.0649 167.699 98.4585 168.405 99.4839 168.405C101.34 168.405 101.786 169.494 100.468 170.812C99.4372 171.843 99.438 172.075 100.478 173.663C101.627 175.415 102.371 175.762 103.202 174.931H103.202ZM115.899 161.419C113.976 160.593 113.293 160.593 113.803 161.419C114.041 161.803 114.924 162.095 115.766 162.068C117.241 162.021 117.246 161.998 115.899 161.419ZM108.129 158.349L110.908 157.545L111.184 151.293C111.461 145.042 111.461 145.042 110.038 146.329C108.507 147.715 106.468 147.414 106.468 145.802C106.468 145.257 105.604 144.663 104.547 144.482C103.49 144.3 102.073 143.916 101.398 143.627C99.5507 142.837 97.2439 148.595 96.8269 155.037L96.4939 160.182L100.922 159.668C103.358 159.385 106.601 158.792 108.129 158.349L108.129 158.349ZM115.724 154.193C117.34 152.922 117.269 151.86 115.505 150.916C113.486 149.835 112.057 151.193 112.057 154.194C112.057 156.723 112.509 156.723 115.724 154.193ZM119.363 73.9401C121.753 71.1482 124.361 64.5527 123.773 62.7881C123.325 61.4443 120.4 65.073 118.318 69.5551C114.604 77.5516 114.967 79.076 119.363 73.94L119.363 73.9401ZM148.599 395C147.587 392.361 151.45 390.104 153.256 392.28C154.013 393.192 153.956 393.606 152.912 394.759C151.393 396.438 149.198 396.561 148.599 395L148.599 395ZM295.249 395.325C294.101 394.177 294.167 393.007 295.439 391.951C296.837 390.79 298.734 392.291 298.441 394.328C298.198 396.023 296.483 396.558 295.249 395.325ZM178.429 393.739C178.429 393.57 178.744 393.237 179.128 392.999C179.512 392.762 179.827 392.901 179.827 393.307C179.827 393.714 179.512 394.047 179.128 394.047C178.744 394.047 178.429 393.909 178.429 393.739ZM226.047 392.72C225.575 392.428 224.92 390.49 224.591 388.413C224.077 385.157 223.574 384.273 220.947 382.003C219.271 380.555 216.514 378.838 214.82 378.188L211.74 377.007L207.709 379.24C205.492 380.468 203.16 381.473 202.527 381.473C200.608 381.473 197.289 377.615 197.314 375.414C197.357 371.564 200.237 369.593 205.803 369.604C213.112 369.617 218.436 373.506 224.854 383.52C226.544 386.156 228.264 388.521 228.676 388.776C229.862 389.509 229.55 391.836 228.166 392.576C227.473 392.947 226.519 393.012 226.047 392.72L226.047 392.72ZM195.552 386.374C195.311 385.984 195.604 385.664 196.203 385.664C197.43 385.664 197.61 386.083 196.641 386.682C196.284 386.903 195.794 386.765 195.552 386.374V386.374ZM292.101 382.923C292.409 380.631 292.174 379.887 290.669 378.382C289.026 376.738 288.369 376.582 283.075 376.58C276.286 376.577 273.871 375.47 270.916 371.003L269.037 368.163L270.643 366.453C271.592 365.443 272.279 363.805 272.32 362.454C272.38 360.48 272.662 360.135 274.372 359.939C279.476 359.354 288.194 366.395 291.803 374.018C295.272 381.345 295.712 385.665 292.99 385.665C291.932 385.665 291.792 385.233 292.102 382.924L292.101 382.923ZM134.901 381.725C134.343 381.166 134.974 380.076 135.855 380.076C136.217 380.076 136.512 380.547 136.512 381.123C136.512 382.204 135.688 382.511 134.901 381.725L134.901 381.725ZM111.363 380.076C111.363 379.691 111.678 379.377 112.062 379.377C112.446 379.377 112.76 379.691 112.76 380.076C112.76 380.46 112.446 380.774 112.062 380.774C111.678 380.774 111.363 380.46 111.363 380.076ZM265.473 377.247C262.519 374.653 262.041 371.535 264.404 370.271C265.646 369.606 266.186 369.858 268.283 372.082C270.177 374.091 270.673 375.151 270.508 376.841C270.218 379.808 268.544 379.943 265.473 377.247V377.247ZM160.043 375.424C159.336 374.717 160.985 373.09 162.41 373.09C164.084 373.09 164.898 374.48 163.678 375.253C162.531 375.979 160.685 376.066 160.043 375.424V375.424ZM113.232 374.021C112.248 373.037 112.832 371.067 114.242 370.62C116.033 370.052 118.036 371.792 117.425 373.385C117.005 374.478 114.126 374.915 113.232 374.021L113.232 374.021ZM180.83 373.012C180.231 372.042 181.769 371.019 183.848 371.005C185.592 370.993 185.851 371.68 184.581 372.95C183.529 374.003 181.464 374.036 180.83 373.012H180.83ZM221.885 372.95C219.729 370.794 221.965 366.802 225.329 366.802C227.452 366.802 228.732 367.996 228.732 369.978C228.732 372.999 223.992 375.056 221.885 372.95ZM225.239 365.796C225.239 365.626 225.553 365.293 225.937 365.056C226.321 364.819 226.636 364.957 226.636 365.364C226.636 365.771 226.321 366.104 225.937 366.104C225.553 366.104 225.239 365.965 225.239 365.796ZM188.301 364.095C188.445 363.663 188.798 363.31 189.086 363.31C189.905 363.31 189.701 364.327 188.824 364.619C188.392 364.763 188.156 364.528 188.301 364.095V364.095ZM142.114 362.969C140.936 361.551 141.776 358.669 143.498 358.218C144.293 358.01 145.573 358.391 146.44 359.093C147.92 360.291 147.932 360.399 146.77 362.171C145.433 364.212 143.43 364.555 142.114 362.969L142.114 362.969ZM263.214 362.96C262.55 361.232 263.506 359.817 265.337 359.817C267.091 359.817 268.38 361.889 267.506 363.303C266.834 364.39 263.665 364.137 263.214 362.96V362.96ZM108.574 361.214C108.574 360.83 108.888 360.515 109.272 360.515C109.656 360.515 109.971 360.83 109.971 361.214C109.971 361.598 109.656 361.912 109.272 361.912C108.888 361.912 108.574 361.598 108.574 361.214ZM150.755 360.898C150.263 359.617 150.978 358.419 152.236 358.419C153.673 358.419 154.218 359.738 153.258 360.895C152.183 362.19 151.251 362.191 150.755 360.898V360.898ZM157.084 359.502C155.707 357.401 156.242 355.437 158.614 353.883C160.107 352.905 160.73 352.852 162.438 353.56C165.25 354.724 165.806 357.292 163.726 359.506C161.593 361.777 158.573 361.775 157.084 359.502V359.502ZM136.867 359.118C137.104 358.734 137.594 358.42 137.956 358.42C138.317 358.42 138.613 358.734 138.613 359.118C138.613 359.502 138.123 359.817 137.524 359.817C136.925 359.817 136.629 359.502 136.867 359.118ZM343.727 353.798C342.926 352.997 343.218 349.001 344.173 347.694C344.734 346.927 345.744 346.54 346.793 346.688C348.139 346.878 348.546 347.401 348.716 349.158C349.023 352.327 345.517 355.588 343.727 353.798L343.727 353.798ZM167.407 351.384C166.334 350.311 167.08 348.675 168.643 348.675C170.36 348.675 171.021 349.898 169.982 351.151C168.967 352.373 168.443 352.421 167.407 351.384L167.407 351.384ZM136.242 348.908C135.211 347.877 135.892 346.181 137.668 345.357C140.421 344.078 141.362 345.4 139.278 347.618C137.554 349.453 137.016 349.682 136.242 348.908ZM322.842 340.147C322.343 338.793 322.986 337.498 324.157 337.498C324.825 337.498 325.116 338.038 324.972 339.015C324.716 340.755 323.336 341.489 322.842 340.147H322.842ZM347.876 327.411C345.792 325.707 345.716 323.526 347.74 323.526C348.996 323.526 350.946 326.17 350.946 327.873C350.946 329.503 350.32 329.409 347.876 327.411H347.876ZM336.276 323.916C336.276 323.317 336.59 322.827 336.974 322.827C337.359 322.827 337.673 323.123 337.673 323.485C337.673 323.846 337.359 324.336 336.974 324.574C336.59 324.811 336.276 324.515 336.276 323.916ZM92.4658 319.742C92.4658 319.133 92.9636 318.636 93.5719 318.636C94.1803 318.636 94.5536 319.009 94.4015 319.465C93.9697 320.761 92.4658 320.975 92.4658 319.742H92.4658ZM90.37 315.841C90.37 315.457 90.6844 315.143 91.0686 315.143C91.4529 315.143 91.7672 315.457 91.7672 315.841C91.7672 316.226 91.4529 316.54 91.0686 316.54C90.6844 316.54 90.37 316.226 90.37 315.841ZM39.3731 289.644C39.3731 289.004 39.766 288.611 40.2463 288.771C41.2352 289.101 41.1265 290.224 40.0716 290.576C39.6874 290.704 39.3731 290.285 39.3731 289.644V289.644ZM71.683 289.819C71.8431 289.339 72.5504 288.946 73.2548 288.946C73.9592 288.946 74.6665 289.339 74.8266 289.819C75.011 290.372 74.4346 290.692 73.2548 290.692C72.075 290.692 71.4986 290.372 71.683 289.819ZM82.679 289.759C79.9321 288.366 79.4486 286.886 80.8089 284.033C82.0155 281.503 82.0127 281.483 80.2577 280.102C78.2573 278.529 78.0258 276.908 79.5194 274.933C80.0835 274.187 80.555 272.849 80.5673 271.959C80.5857 270.612 80.9098 270.378 82.4944 270.561C83.632 270.693 84.7157 271.421 85.1847 272.367C86.3522 274.722 86.6067 274.829 88.388 273.719C91.6712 271.672 98.2527 273.996 97.8761 277.07C97.6245 279.123 94.9985 279.238 93.6979 277.253C92.801 275.884 92.1626 275.665 89.7524 275.894C87.8894 276.072 86.8769 276.512 86.8769 277.143C86.8769 277.679 86.2058 278.789 85.3855 279.609C84.0454 280.949 84.01 281.165 85.0362 281.739C85.6644 282.091 86.1782 282.973 86.1782 283.7C86.1782 284.427 86.4926 285.215 86.8768 285.453C87.261 285.69 87.5754 286.601 87.5754 287.478C87.5754 289.624 84.8854 290.877 82.679 289.759L82.679 289.759ZM88.9725 286.501C88.9725 286.117 89.1111 285.802 89.2806 285.802C89.45 285.802 89.783 286.117 90.0204 286.501C90.2579 286.885 90.1192 287.199 89.7123 287.199C89.3054 287.199 88.9725 286.885 88.9725 286.501ZM70.1105 284.754C70.1105 284.178 70.5821 283.706 71.1584 283.706C71.7348 283.706 72.2063 284.178 72.2063 284.754C72.2063 285.331 71.7348 285.802 71.1584 285.802C70.5821 285.802 70.1105 285.331 70.1105 284.754ZM290.111 280.238C286.676 276.628 284.288 271.966 283.218 266.785C282.355 262.607 282.588 259.171 284.251 251.572C284.797 249.074 285.33 246.088 285.435 244.935C285.62 242.913 285.749 242.839 289.102 242.839C292.438 242.839 292.677 242.705 295.039 239.521C296.706 237.273 298.008 236.203 299.073 236.203C301.377 236.203 301.11 238.73 298.376 242.811C297.127 244.675 295.525 247.096 294.815 248.193C294.106 249.289 292.793 252.848 291.897 256.102C290.04 262.854 289.757 263.448 288.404 263.448C286.012 263.448 285.196 268.994 287.057 272.594C287.652 273.744 289.872 275.794 291.99 277.149C294.982 279.063 295.792 279.95 295.624 281.128C295.255 283.708 293.077 283.356 290.11 280.238L290.111 280.238ZM69.6705 268.689C69.4291 268.06 69.5543 267.222 69.9487 266.828C71.0875 265.689 73.2593 266.457 73.2593 267.998C73.2593 269.775 70.3055 270.344 69.6705 268.689V268.689ZM75.0058 268.029C75.0058 267.86 75.3202 267.527 75.7044 267.29C76.0887 267.052 76.403 267.191 76.403 267.598C76.403 268.005 76.0887 268.338 75.7044 268.338C75.3202 268.338 75.0058 268.199 75.0058 268.029ZM64.5268 265.194C64.5268 264.618 64.8412 264.146 65.2254 264.146C65.6096 264.146 65.924 264.618 65.924 265.194C65.924 265.77 65.6096 266.242 65.2254 266.242C64.8412 266.242 64.5268 265.77 64.5268 265.194ZM60.1214 264.398C59.4695 263.746 60.2573 262.749 61.4244 262.749C61.9781 262.749 62.431 263.22 62.431 263.797C62.431 264.849 60.9563 265.233 60.1214 264.398V264.398ZM79.9184 262.092C78.9491 260.281 80.0875 257.859 81.9081 257.859C83.9077 257.859 85.9318 260.485 85.0356 261.916C83.909 263.716 80.8439 263.821 79.9184 262.092V262.092ZM295.758 262.865C295.758 261.881 296.545 261.429 297.573 261.824C299.031 262.383 298.757 263.447 297.156 263.447C296.387 263.447 295.758 263.185 295.758 262.865V262.865ZM28.4484 261.002C27.7845 259.272 28.7419 257.859 30.5777 257.859C32.6374 257.859 33.3357 258.765 32.7346 260.659C32.2062 262.324 29.0526 262.577 28.4484 261.002V261.002ZM71.8644 256.473C71.6231 256.082 71.9157 255.763 72.5147 255.763C73.7418 255.763 73.9226 256.182 72.9536 256.781C72.5959 257.002 72.1058 256.863 71.8644 256.473V256.473ZM82.8184 255.938C82.9479 255.265 83.5168 254.715 84.0826 254.715C84.6485 254.715 85.2173 255.265 85.3468 255.938C85.512 256.795 85.1348 257.16 84.0826 257.16C83.0304 257.16 82.6532 256.795 82.8184 255.938ZM95.2604 252.969C95.2604 252.584 95.732 252.27 96.3083 252.27C96.8847 252.27 97.3562 252.584 97.3562 252.969C97.3562 253.353 96.8847 253.667 96.3083 253.667C95.732 253.667 95.2604 253.353 95.2604 252.969ZM271.3 252.27C270.433 251.709 270.493 251.593 271.65 251.593C272.418 251.593 273.518 251.898 274.095 252.27C274.962 252.831 274.902 252.947 273.745 252.947C272.977 252.947 271.877 252.642 271.3 252.27H271.3ZM266.059 250.877C266.295 250.494 267.178 249.82 268.021 249.378C269.543 248.579 269.545 248.584 268.223 250.073C266.89 251.574 265.251 252.183 266.059 250.877L266.059 250.877ZM46.1387 248.326C45.1499 247.337 45.7094 245.983 47.1068 245.983C48.0834 245.983 48.4817 246.362 48.3293 247.147C48.08 248.433 46.8875 249.075 46.1388 248.326L46.1387 248.326ZM253.139 247.729C253.617 247.153 254.117 246.681 254.25 246.681C254.383 246.681 254.311 247.153 254.09 247.729C253.869 248.305 253.369 248.777 252.978 248.777C252.57 248.777 252.637 248.333 253.139 247.729H253.139ZM250.791 246.197C250.004 245.41 250.312 244.586 251.392 244.586C251.969 244.586 252.44 244.881 252.44 245.243C252.44 246.124 251.349 246.755 250.791 246.197L250.791 246.197ZM240.651 240.481C240.943 239.605 241.961 239.401 241.961 240.219C241.961 240.508 241.607 240.861 241.175 241.005C240.743 241.149 240.507 240.914 240.651 240.481H240.651ZM84.0811 237.292C84.0811 237.122 84.3955 236.789 84.7797 236.552C85.1639 236.314 85.4783 236.453 85.4783 236.86C85.4783 237.267 85.1639 237.6 84.7797 237.6C84.3955 237.6 84.0811 237.461 84.0811 237.292ZM74.3009 234.148C74.3009 233.741 74.6153 233.408 74.9995 233.408C75.3837 233.408 75.6981 233.547 75.6981 233.716C75.6981 233.886 75.3837 234.219 74.9995 234.456C74.6153 234.694 74.3009 234.555 74.3009 234.148ZM98.8069 233.816C98.7766 233.079 98.9417 232.667 99.1738 232.899C99.406 233.131 99.4308 233.734 99.2289 234.238C99.0059 234.795 98.8404 234.63 98.8069 233.816L98.8069 233.816ZM87.5739 232.412C87.5739 231.764 88.1712 231.312 89.0293 231.312C90.7318 231.312 90.4911 232.945 88.7386 233.285C88.0493 233.418 87.574 233.062 87.574 232.412L87.5739 232.412ZM249.474 232.946C249.954 232.752 250.74 232.752 251.22 232.946C251.701 233.139 251.308 233.298 250.347 233.298C249.387 233.298 248.994 233.139 249.474 232.946H249.474ZM91.2539 232.288C91.4861 232.055 92.0886 232.031 92.5929 232.232C93.1502 232.455 92.9847 232.621 92.1709 232.655C91.4344 232.685 91.0219 232.52 91.254 232.288L91.2539 232.288ZM246.854 230.655C246.854 229.484 248.288 229.068 250.742 229.528C254.179 230.173 253.703 231.312 249.998 231.312C248.269 231.312 246.854 231.017 246.854 230.655L246.854 230.655ZM256.075 229.077C254.746 227.748 255.095 225.849 256.885 224.676C259.07 223.245 260.826 223.994 260.826 226.357C260.826 228.477 259.696 229.915 258.031 229.915C257.417 229.915 256.536 229.538 256.075 229.077H256.075ZM241.644 227.868C241.423 227.51 241.562 227.02 241.952 226.779C242.343 226.537 242.662 226.83 242.662 227.429C242.662 228.656 242.243 228.837 241.644 227.868H241.644ZM245.107 225.025C244.87 224.641 244.99 224.327 245.374 224.327C245.758 224.327 246.267 224.641 246.504 225.025C246.742 225.409 246.622 225.724 246.238 225.724C245.853 225.724 245.345 225.409 245.107 225.025H245.107ZM272.527 225.261C273.008 225.067 273.794 225.067 274.274 225.261C274.754 225.455 274.361 225.613 273.401 225.613C272.44 225.613 272.047 225.455 272.527 225.261H272.527ZM90.3673 222.929C90.3673 222.545 90.6817 222.231 91.0659 222.231C91.4501 222.231 91.7645 222.545 91.7645 222.929C91.7645 223.314 91.4501 223.628 91.0659 223.628C90.6817 223.628 90.3673 223.314 90.3673 222.929ZM82.3848 221.134C81.0507 219.8 81.9366 217.672 84.1134 216.981C85.7269 216.469 88.97 218.259 88.97 219.662C88.97 222.16 84.4265 223.176 82.3847 221.134L82.3848 221.134ZM236.445 221.592C235.295 220.864 235.876 218.884 237.413 218.295C239.119 217.64 240.673 219.323 239.826 220.907C239.058 222.342 237.976 222.561 236.445 221.592L236.445 221.592ZM248.647 221.133C247.293 219.779 247.256 217.997 248.518 214.976C249.249 213.228 250.048 212.545 251.762 212.202C253.099 211.934 254.427 212.071 254.984 212.534C257.195 214.369 255.27 220.986 252.293 221.783C250.035 222.388 249.873 222.359 248.647 221.133L248.647 221.133ZM267.808 221.224C267.808 221.055 268.122 220.722 268.506 220.484C268.891 220.247 269.205 220.385 269.205 220.792C269.205 221.199 268.891 221.532 268.506 221.532C268.122 221.532 267.808 221.394 267.808 221.224ZM278.287 218.21C278.287 217.826 278.758 217.12 279.335 216.642C279.919 216.157 280.383 216.081 280.383 216.471C280.383 216.855 279.911 217.561 279.335 218.039C278.75 218.524 278.287 218.6 278.287 218.21ZM237.26 216.22C237.492 215.988 238.094 215.963 238.599 216.165C239.156 216.388 238.991 216.553 238.177 216.587C237.44 216.617 237.028 216.452 237.26 216.22L237.26 216.22ZM261.711 216.22C261.943 215.988 262.546 215.963 263.05 216.165C263.607 216.388 263.442 216.553 262.628 216.587C261.891 216.617 261.479 216.452 261.711 216.22L261.711 216.22ZM316.71 216.317C316.71 216.139 317.417 215.616 318.282 215.155C319.707 214.396 319.764 214.426 318.895 215.48C318.002 216.562 316.71 217.057 316.71 216.317L316.71 216.317ZM47.6698 213.324C46.8009 212.216 46.8256 212.191 47.9336 213.06C48.606 213.587 49.1561 214.138 49.1561 214.283C49.1561 214.857 48.5824 214.487 47.6698 213.324L47.6698 213.324ZM63.3218 213.763C62.1411 212.582 63.059 211.053 64.9487 211.053C66.7421 211.053 67.147 212.343 65.7822 213.708C64.7426 214.748 64.3162 214.757 63.3218 213.763ZM106.717 213.731C106.049 212.651 107.188 211.622 108.16 212.429C108.653 212.838 109.568 212.977 110.193 212.737C110.818 212.497 111.33 212.613 111.33 212.995C111.33 213.864 107.206 214.522 106.717 213.731V213.731ZM210.527 214.238C210.527 214.069 210.841 213.736 211.225 213.498C211.61 213.261 211.924 213.4 211.924 213.806C211.924 214.213 211.61 214.546 211.225 214.546C210.841 214.546 210.527 214.408 210.527 214.238ZM237.961 213.426C238.193 213.193 238.796 213.169 239.3 213.371C239.857 213.594 239.692 213.759 238.878 213.793C238.141 213.823 237.729 213.658 237.961 213.426L237.961 213.426ZM200.048 210.355C200.048 209.466 200.514 208.958 201.329 208.958C202.977 208.958 203.54 209.545 203.069 210.772C202.476 212.318 200.048 211.982 200.048 210.355H200.048ZM207.034 209.358C207.034 208.71 207.631 208.259 208.489 208.259C210.192 208.259 209.951 209.891 208.198 210.231C207.509 210.365 207.034 210.009 207.034 209.358L207.034 209.358ZM61.3237 207.266C58.9093 206.215 56.1491 203.071 56.1329 201.354C56.1269 200.733 55.8319 199.766 55.477 199.205C54.9251 198.333 54.6222 198.375 53.3829 199.496C52.586 200.217 50.9505 200.807 49.7484 200.807C45.6542 200.807 44.2922 196.295 47.437 193.15C48.8267 191.76 49.7692 191.428 51.8032 191.61C53.2298 191.738 54.5083 191.528 54.6441 191.144C56.0937 187.044 57.6706 185.67 61.7322 184.966C67.0514 184.044 72.0572 186.624 74.0572 191.318C74.5892 192.567 75.4918 193.589 76.0629 193.589C76.6341 193.589 77.1014 193.903 77.1014 194.287C77.1014 194.671 76.7762 194.986 76.3788 194.986C75.9177 194.986 75.8202 196.222 76.1093 198.402C76.5347 201.609 76.4268 201.941 74.3495 203.816C69.5391 208.158 65.7056 209.174 61.3235 207.266L61.3237 207.266ZM111.332 207.951C111.332 207.214 112.672 206.904 113.071 207.549C113.312 207.939 113.02 208.259 112.421 208.259C111.822 208.259 111.332 208.12 111.332 207.951ZM200.518 207.095C199.667 206.244 200.036 204.766 201.1 204.766C201.682 204.766 202.148 205.387 202.148 206.163C202.148 207.555 201.403 207.98 200.518 207.095L200.518 207.095ZM229.729 206.589C228.593 205.759 228.52 205.356 229.222 203.814C230.714 200.54 235.68 200.763 235.68 204.103C235.68 205.705 233.851 207.56 232.271 207.56C231.603 207.56 230.459 207.123 229.729 206.589H229.729ZM271.051 206.504C269.564 205.991 267.942 205.728 267.446 205.918C266.448 206.301 265.378 203.789 266.065 202.676C266.305 202.289 266.149 201.972 265.72 201.972C265.27 201.972 265.17 201.602 265.484 201.098C265.784 200.618 266.086 199.911 266.155 199.527C266.956 195.046 270.42 192.191 275.057 192.191C278.464 192.191 280.579 193.685 281.875 197.008C282.582 198.819 281.481 203.369 280.336 203.369C279.981 203.369 279.691 203.804 279.691 204.335C279.691 205.237 277.296 206.44 275.95 206.214C275.622 206.159 274.993 206.411 274.553 206.775C274.042 207.196 272.777 207.098 271.051 206.504L271.051 206.504ZM232.96 199.615C231.796 198.213 232.788 196.27 234.54 196.521C236.255 196.767 236.953 199.083 235.575 199.956C234.28 200.777 233.881 200.725 232.96 199.615H232.96ZM299.252 197.821C299.252 197.414 299.566 197.081 299.95 197.081C300.335 197.081 300.649 197.22 300.649 197.39C300.649 197.559 300.335 197.892 299.95 198.129C299.566 198.367 299.252 198.228 299.252 197.821ZM207.366 196.348C206.702 195.274 207.611 194.581 208.508 195.477C209.01 195.979 209.022 196.37 208.544 196.665C208.153 196.906 207.623 196.764 207.366 196.348V196.348ZM176.999 192.868C176.067 192.267 176.067 192.116 176.999 191.515C177.674 191.079 178.129 191.079 178.279 191.515C178.741 192.856 178.073 193.561 176.999 192.868ZM218.216 192.89C218.216 192.506 218.53 192.191 218.914 192.191C219.299 192.191 219.613 192.506 219.613 192.89C219.613 193.274 219.299 193.589 218.914 193.589C218.53 193.589 218.216 193.274 218.216 192.89ZM211.338 191.107C211.471 190.422 212.002 189.721 212.519 189.549C213.12 189.349 213.372 189.685 213.218 190.481C213.085 191.166 212.553 191.867 212.036 192.039C211.435 192.24 211.183 191.904 211.338 191.107ZM52.6478 190.096C52.6478 189.711 53.1379 189.397 53.7369 189.397C54.336 189.397 54.6318 189.711 54.3943 190.096C54.1568 190.48 53.6667 190.794 53.3052 190.794C52.9437 190.794 52.6479 190.48 52.6479 190.096H52.6478ZM49.8534 189.397C49.8534 189.013 50.1678 188.698 50.552 188.698C50.9363 188.698 51.2506 189.013 51.2506 189.397C51.2506 189.781 50.9363 190.096 50.552 190.096C50.1678 190.096 49.8534 189.781 49.8534 189.397ZM180.663 189.551C179.799 189.413 179.092 189.007 179.092 188.65C179.092 187.751 181.698 187.83 182.264 188.745C182.862 189.712 182.575 189.856 180.663 189.551V189.551ZM197.254 189.788C197.254 189.05 198.595 188.74 198.994 189.386C199.235 189.776 198.943 190.096 198.344 190.096C197.744 190.096 197.254 189.957 197.254 189.788H197.254ZM204.444 189.082C203.524 188.035 204.142 187.228 206.511 186.384C207.989 185.857 208.169 186.984 206.697 187.549C206.108 187.776 205.839 188.41 206.073 189.021C206.581 190.345 205.587 190.383 204.445 189.082L204.444 189.082ZM87.9244 188.698C88.1619 188.314 88.652 188 89.0135 188C89.3751 188 89.6709 188.314 89.6709 188.698C89.6709 189.083 89.1808 189.397 88.5818 189.397C87.9828 189.397 87.687 189.083 87.9244 188.698ZM193.174 187.613C192.276 187.145 191.808 186.597 192.134 186.395C192.746 186.017 195.639 187.798 195.106 188.225C194.942 188.356 194.073 188.081 193.174 187.613V187.613ZM38.3444 186.633C37.7516 185.674 39.2149 183.83 40.5693 183.83C41.9898 183.83 41.4464 186.9 39.9764 187.18C39.3398 187.301 38.6054 187.055 38.3444 186.633H38.3444ZM209.144 185.926C209.144 185.542 209.635 185.228 210.234 185.228C210.833 185.228 211.128 185.542 210.891 185.926C210.653 186.31 210.163 186.625 209.802 186.625C209.44 186.625 209.144 186.31 209.144 185.926ZM49.7244 183.79C49.0675 183.407 48.3265 182.009 48.0777 180.683C47.6897 178.615 47.4442 178.37 46.3491 178.956C44.4526 179.971 41.307 179.784 39.5476 178.551C38.4102 177.755 37.995 176.76 37.995 174.831C37.995 171.874 39.9027 169.57 42.9845 168.806C45.0401 168.296 48.996 169.983 49.6323 171.642C50.2333 173.208 51.42 172.835 50.9135 171.239C50.4968 169.926 50.6805 169.858 53.4861 170.275C55.1479 170.523 57.1268 171.316 57.8837 172.037C59.1192 173.215 59.1665 173.581 58.3459 175.621C57.8431 176.87 57.3048 178.836 57.1496 179.988C56.6604 183.621 52.8135 185.591 49.7244 183.79L49.7244 183.79ZM193.434 183.83C193.197 183.446 193.336 183.132 193.742 183.132C194.149 183.132 194.482 183.446 194.482 183.83C194.482 184.215 194.344 184.529 194.174 184.529C194.005 184.529 193.672 184.215 193.434 183.83ZM209.819 183.443C209.067 182.536 209.159 182.117 210.374 180.901C211.931 179.344 213.788 179.56 214.486 181.378C215.445 183.877 211.594 185.581 209.82 183.443H209.819ZM223.124 183.522C223.124 182.295 223.544 182.115 224.142 183.083C224.363 183.441 224.225 183.931 223.834 184.173C223.444 184.414 223.124 184.121 223.124 183.522H223.124ZM235 183.132C235 182.748 235.315 182.433 235.699 182.433C236.083 182.433 236.398 182.748 236.398 183.132C236.398 183.516 236.083 183.83 235.699 183.83C235.315 183.83 235 183.516 235 183.132ZM187.496 180.063C187.496 179.912 187.984 179.601 188.581 179.372C189.202 179.134 189.483 179.251 189.238 179.647C188.828 180.311 187.496 180.629 187.496 180.063H187.496ZM235.282 177.97C235.05 177.363 234.337 177.146 233.383 177.392C232.062 177.732 231.978 177.637 232.758 176.685C233.254 176.08 234.433 175.39 235.378 175.153C236.323 174.916 237.096 174.377 237.096 173.955C237.096 173.525 236.465 173.354 235.659 173.564C234.48 173.873 234.37 173.762 235.046 172.947C236.003 171.794 237.794 171.62 237.794 172.679C237.794 173.078 238.644 173.314 239.682 173.203C241.237 173.038 241.695 173.372 242.274 175.098C243.212 177.89 243.191 177.874 244.431 176.845C245.734 175.763 246.374 176.217 245.77 177.792C245.18 179.329 235.864 179.486 235.282 177.97L235.282 177.97ZM257.442 177.724C257.046 177.015 257.083 175.974 257.542 174.968C258.325 173.249 258.457 173.193 262.245 172.968C263.59 172.888 265.369 172.598 266.198 172.324C267.266 171.97 268.131 172.251 269.167 173.287C270.898 175.018 271.018 176.356 269.57 177.804C268.007 179.366 258.326 179.302 257.443 177.724L257.442 177.724ZM63.8724 173.918C61.9259 171.829 61.8806 166.719 63.7994 165.692C65.5684 164.745 67.5497 164.777 69.7671 165.787C72.2737 166.929 72.6871 169.301 70.8873 172.213C68.6452 175.841 66.2139 176.432 63.8725 173.918H63.8724ZM189.982 174.544C190.245 173.855 190.635 173.467 190.85 173.682C191.066 173.897 190.851 174.461 190.374 174.935C189.684 175.62 189.603 175.54 189.982 174.544V174.544ZM191.684 174.05C191.684 173.666 191.823 173.352 191.992 173.352C192.162 173.352 192.494 173.666 192.732 174.05C192.969 174.434 192.831 174.749 192.424 174.749C192.017 174.749 191.684 174.434 191.684 174.05ZM209.365 173.606C208.729 171.947 210.088 170.208 212.019 170.208C213.248 170.208 213.752 170.648 213.925 171.875C214.299 174.518 210.298 176.036 209.365 173.606ZM194.479 172.094C194.479 171.107 196.117 169.859 197.413 169.859C198.964 169.859 199.079 171.648 197.566 172.229C196.016 172.824 194.479 172.757 194.479 172.094L194.479 172.094ZM205.183 170.836C204.689 169.548 206.378 168.206 207.315 169.142C208.077 169.905 207.378 171.954 206.355 171.954C205.946 171.954 205.419 171.451 205.183 170.836H205.183ZM231.92 166.475C231.678 166.084 231.821 165.553 232.237 165.296C233.311 164.632 234.004 165.542 233.107 166.438C232.606 166.94 232.215 166.952 231.92 166.475H231.92ZM211.279 165.36C210.16 164.011 210.602 160.366 211.854 160.631C212.494 160.767 212.663 160.443 212.362 159.659C211.983 158.673 212.082 158.626 212.974 159.367C213.863 160.104 214.04 160.033 214.049 158.941C214.058 157.845 214.167 157.803 214.722 158.681C215.086 159.258 215.789 159.729 216.283 159.729C216.778 159.729 217.28 160.575 217.399 161.608C217.798 165.059 213.312 167.81 211.279 165.36L211.279 165.36ZM186.095 163.703C186.095 162.956 186.563 161.957 187.134 161.483C188.637 160.236 190.428 161.16 190.161 163.044C189.858 165.175 186.095 165.785 186.095 163.703ZM238.664 163.807C238.184 163.613 237.791 162.687 237.791 161.749C237.791 159.673 240.852 158.152 242.417 159.45C245.02 161.611 241.978 165.144 238.664 163.807H238.664ZM54.834 162.233C53.4708 161.371 54.4136 159.38 56.185 159.38C57.2942 159.38 57.5982 159.75 57.4294 160.897C57.1731 162.639 56.2374 163.121 54.834 162.233ZM204.954 162.301C204.954 161.456 206.279 160.472 206.764 160.957C206.94 161.132 206.604 161.674 206.019 162.16C205.355 162.711 204.954 162.764 204.954 162.301L204.954 162.301ZM246.869 160.917C246.869 159.835 248.563 158.681 250.152 158.681C252.279 158.681 252.194 159.656 249.98 160.665C247.897 161.614 246.869 161.697 246.869 160.917L246.869 160.917ZM288.193 159.554C286.665 156.638 290.824 153.112 293.334 155.196C294.585 156.234 294.693 158.781 293.535 159.939C292.27 161.204 288.932 160.964 288.193 159.554V159.554ZM45.323 159.577C41.558 158.662 36.7286 153.709 33.6791 147.633C31.9165 144.122 31.3994 142.097 31.1456 137.712C30.8345 132.338 30.8781 132.151 32.9207 130.108C37.1017 125.928 42.0647 126.34 46.7788 131.26C49.1746 133.761 50.0669 134.306 50.7093 133.664C51.883 132.49 52.4414 132.628 52.85 134.19C53.3044 135.927 52.6989 136.531 51.4999 135.536C49.9752 134.27 50.4249 135.799 52.455 138.783C54.291 141.482 54.88 143.906 55.8626 152.805C56.2899 156.676 56.186 157.196 54.7128 158.569C53.1169 160.056 49.0797 160.489 45.323 159.576L45.323 159.577ZM174.123 157.982C173.777 155.217 173.957 154.828 175.667 154.629C178.018 154.356 179.642 156.14 178.402 157.633C177.428 158.806 174.258 159.065 174.123 157.982ZM250.356 155.631C250.356 153.729 252.755 152.417 253.985 153.647C255.26 154.923 254.283 156.923 252.271 157.156C250.635 157.344 250.356 157.122 250.356 155.631H250.356ZM189.85 155.551C188.068 154.227 189.325 152.131 192.094 151.808C194.715 151.502 195.964 150.431 195.824 148.612C195.762 147.81 195.783 146.84 195.869 146.456C195.956 146.072 196.07 145.289 196.121 144.716C196.239 143.412 203.22 139.819 205.635 139.819C207.807 139.819 210.536 141.605 210.536 143.026C210.536 143.593 209.436 145.158 208.091 146.502C206.747 147.847 205.645 149.487 205.644 150.147C205.643 150.806 205.018 152.368 204.257 153.616C203.198 155.354 202.388 155.887 200.808 155.887C199.672 155.887 198.555 155.583 198.325 155.211C197.892 154.509 194.257 154.96 192.295 155.958C191.598 156.313 190.666 156.158 189.85 155.551L189.85 155.551ZM259.438 156.277C259.438 156.108 259.752 155.775 260.137 155.537C260.521 155.3 260.835 155.439 260.835 155.846C260.835 156.252 260.521 156.585 260.137 156.585C259.752 156.585 259.438 156.447 259.438 156.277ZM222.18 154.722C221.198 153.74 221.779 151.769 223.182 151.324C225.062 150.727 226.175 151.841 225.579 153.721C225.134 155.124 223.163 155.705 222.18 154.722H222.18ZM244.519 152.056C243.886 150.406 244.757 148.93 246.642 148.457C248.604 147.965 249.305 148.514 249.885 150.997C250.261 152.607 250.084 152.758 247.609 152.929C245.729 153.059 244.804 152.798 244.519 152.056L244.519 152.056ZM210.387 151.558C209.778 149.868 211.24 146.204 213.11 144.733C215.815 142.606 216.551 143.819 215.299 148.338C214.434 151.459 213.991 152.078 212.494 152.257C211.497 152.376 210.571 152.069 210.387 151.558V151.558ZM216.125 151.13C216.125 150.755 216.623 150.257 217.232 150.023C217.912 149.762 218.231 149.918 218.061 150.429C217.713 151.473 216.125 152.048 216.125 151.13L216.125 151.13ZM264.327 150.373C264.327 150.03 264.825 149.558 265.432 149.325C267.141 148.669 267.367 148.811 266.423 149.949C265.459 151.11 264.327 151.339 264.327 150.373L264.327 150.373ZM80.2474 149.595C80.0083 149.208 80.3176 148.697 80.9349 148.46C82.2724 147.947 83.0179 148.513 82.3749 149.553C81.7948 150.492 80.8136 150.511 80.2474 149.595ZM172.56 149.25C172.782 148.674 173.086 148.202 173.237 148.202C173.388 148.202 173.512 148.674 173.512 149.25C173.512 149.827 173.207 150.298 172.835 150.298C172.463 150.298 172.339 149.827 172.56 149.25ZM158.841 147.247C158.841 147.106 160.138 146.133 161.722 145.085C164.523 143.231 164.59 143.095 164.184 140.132C163.946 138.395 164.064 136.902 164.459 136.658C164.84 136.422 164.971 135.937 164.75 135.579C164.529 135.222 164.659 134.929 165.04 134.929C165.421 134.929 165.922 134.334 166.153 133.607C166.667 131.987 168.682 131.237 172.813 131.129C176.215 131.04 177.169 131.791 178.499 135.606C179.924 139.694 176.539 143.834 171.187 144.547C169.584 144.76 167.889 145.434 167.421 146.045C166.654 147.046 166.568 147.035 166.548 145.932C166.517 144.244 163.69 144.341 161.445 146.107C159.772 147.423 158.841 147.83 158.841 147.247V147.247ZM277.951 141.915C278.189 141.531 278.679 141.217 279.041 141.217C279.402 141.217 279.698 141.531 279.698 141.915C279.698 142.299 279.208 142.614 278.609 142.614C278.01 142.614 277.714 142.299 277.951 141.915H277.951ZM180.681 138.099C181.034 135.464 181.896 135.115 181.896 137.607C181.896 138.824 181.571 139.819 181.174 139.819C180.776 139.819 180.555 139.045 180.681 138.099L180.681 138.099ZM221.715 138.422C221.715 137.654 221.996 137.025 222.339 137.025C223.125 137.025 223.857 138.842 223.297 139.402C222.456 140.243 221.715 139.784 221.715 138.422V138.422ZM71.2754 133.652C69.9758 132.216 69.751 128.54 70.8386 126.508C72.0343 124.273 75.4827 122.892 78.5657 123.413C80.304 123.707 81.2967 123.607 81.2967 123.139C81.2967 122.025 84.1265 120.714 84.8875 121.475C85.8042 122.391 84.9045 124.32 83.3265 124.821C82.3136 125.142 82.0959 125.656 82.4223 126.957C82.9823 129.188 81.5871 132.483 79.5041 133.847C77.2046 135.354 72.7194 135.247 71.2754 133.652L71.2754 133.652ZM217.785 129.723C217.294 128.442 218.009 127.245 219.266 127.245C220.704 127.245 221.249 128.564 220.289 129.72C219.214 131.015 218.282 131.016 217.785 129.723V129.723ZM254.14 127.854C253.482 126.788 255.223 125.367 257.864 124.814C259.599 124.451 260.235 124.602 260.562 125.452C260.796 126.063 260.643 126.98 260.22 127.489C259.285 128.616 254.778 128.886 254.14 127.854V127.854ZM170.265 126.887C169.745 125.53 171.214 123.752 172.855 123.752C174.483 123.752 175.114 124.791 174.555 126.552C174.025 128.222 170.872 128.468 170.265 126.887V126.887ZM60.3354 120.259C60.3354 119.875 60.4741 119.56 60.6435 119.56C60.8129 119.56 61.1458 119.875 61.3833 120.259C61.6208 120.643 61.4821 120.958 61.0753 120.958C60.6684 120.958 60.3354 120.643 60.3354 120.259ZM177.425 117.791C176.8 117.165 176.481 116.341 176.717 115.96C176.956 115.573 177.608 115.927 178.191 116.76C179.491 118.616 178.962 119.328 177.425 117.791L177.425 117.791ZM230.445 116.762C231.143 115.991 231.865 115.512 232.05 115.697C232.52 116.166 230.777 118.163 229.898 118.163C229.502 118.163 229.748 117.532 230.445 116.762L230.445 116.762ZM177.248 112.915C176.645 111.342 178.382 109.68 180.379 109.92C182.549 110.18 183.008 111.356 181.521 112.843C180.1 114.265 177.781 114.304 177.248 112.915ZM189.274 108.464C188.641 107.439 190.905 105.942 191.774 106.811C192.3 107.337 192.1 107.779 191.088 108.32C190.285 108.75 189.49 108.813 189.274 108.464V108.464ZM36.7344 103.803C35.0355 102.613 34.712 100.087 35.9598 97.7558C36.583 96.5913 36.5135 96.1766 35.6105 95.6713C32.8051 94.1013 35.3946 91.717 39.7226 91.8849C41.3153 91.9467 41.8251 92.3016 41.8463 93.3634C41.8617 94.1319 42.7262 95.6108 43.7674 96.6499C46.182 99.0596 46.1518 100.315 43.6186 102.848C41.3455 105.121 39.0678 105.437 36.7344 103.803L36.7344 103.803ZM72.0324 104.486C71.05 103.497 71.5053 100.219 72.786 99.0603C74.3805 97.6173 75.6525 97.5993 77.6403 98.9916C79.4063 100.229 79.6619 102.234 78.2074 103.441C76.9665 104.471 72.7301 105.188 72.0324 104.486H72.0324ZM61.1514 103.026C61.4476 101.488 64.173 101.279 64.173 102.794C64.173 103.371 63.4377 103.946 62.539 104.074C61.2719 104.253 60.9603 104.018 61.1514 103.026V103.026ZM181.941 103.202C181.911 102.465 182.076 102.053 182.308 102.285C182.54 102.517 182.565 103.119 182.363 103.624C182.14 104.181 181.975 104.016 181.941 103.202L181.941 103.202ZM49.8514 102.794C49.8514 102.41 50.323 102.096 50.8993 102.096C51.4757 102.096 51.9472 102.41 51.9472 102.794C51.9472 103.178 51.4757 103.493 50.8993 103.493C50.323 103.493 49.8514 103.178 49.8514 102.794ZM183.511 100.995C183.279 100.39 183.482 98.5825 183.962 96.9784C187.509 85.1304 210.096 66.6964 229.064 60.1704C233.826 58.5321 235.545 58.4665 237.378 59.8531C238.289 60.5422 240.467 60.8821 244.015 60.8891C251.378 60.9035 255.717 63.3663 250.321 64.4697C249.119 64.7156 247.295 65.6988 246.27 66.6544C245.244 67.6099 242.676 68.9454 240.563 69.6219C235.881 71.1208 232.425 72.8368 223.833 77.9263C216.393 82.3332 214.715 82.7274 214.715 80.068C214.715 77.6329 213.511 77.3764 208.34 78.71C199.76 80.9225 191.853 86.2815 187.488 92.843C185.581 95.7093 185.342 96.5596 185.721 99.1269C186.08 101.56 185.958 102.096 185.046 102.096C184.434 102.096 183.744 101.601 183.512 100.996L183.511 100.995ZM68.0114 98.2534C68.0114 97.6771 68.483 97.2055 69.0593 97.2055C69.6357 97.2055 70.1072 97.6771 70.1072 98.2534C70.1072 98.8298 69.6357 99.3013 69.0593 99.3013C68.483 99.3013 68.0114 98.8298 68.0114 98.2534ZM83.4594 98.0788C82.6496 97.4064 81.7908 95.8411 81.5511 94.6004C81.1767 92.6621 81.4615 91.9984 83.5749 89.8849C86.6448 86.815 89.9136 86.5479 92.7088 89.1384C95.2613 91.504 95.1879 94.5866 92.5153 97.2592C90.0891 99.6854 85.856 100.068 83.4594 98.0787L83.4594 98.0788ZM55.7084 97.604C55.4731 96.9909 55.6475 96.047 56.0961 95.5065C56.7337 94.7383 56.6589 94.3825 55.7532 93.8756C54.345 93.0876 54.6411 90.9998 56.3102 89.9487C57.1804 89.4007 57.873 89.3935 58.7137 89.9239C60.4659 91.0292 60.5712 92.0713 59.0812 93.5613C58.3479 94.2946 57.7781 95.6186 57.815 96.5034C57.8939 98.3979 56.3272 99.2166 55.7085 97.6042L55.7084 97.604ZM46.6413 95.2588L45.1809 94.0183L46.816 92.7849C48.978 91.1541 48.8836 90.6621 46.1807 89.4725C43.1067 88.1195 42.6689 84.761 45.2323 82.1975C49.8573 77.5725 56.1293 83.1292 52.0163 88.208C50.7035 89.8293 50.7072 89.8588 52.4321 91.4573C54.0269 92.9353 54.0874 93.1997 53.1537 94.614C51.8584 96.5762 48.5752 96.9013 46.6413 95.2587V95.2588ZM181.581 92.6148C181.324 91.591 181.249 90.6186 181.414 90.454C181.578 90.2894 181.923 90.9923 182.18 92.0161C182.437 93.0399 182.513 94.0123 182.348 94.1768C182.183 94.3415 181.838 93.6386 181.581 92.6148ZM196.551 86.5352C196.551 85.9175 196.838 85.2348 197.189 85.0182C197.539 84.8016 197.758 85.0883 197.675 85.6554C197.455 87.1512 196.551 87.8591 196.551 86.5352L196.551 86.5352ZM99.8833 84.9539C99.3615 83.5939 101.346 82.7572 102.458 83.8687C103.086 84.4969 103.034 84.8435 102.236 85.3479C100.787 86.2638 100.358 86.1919 99.8833 84.9538V84.9539ZM104.702 73.2249C104.1 72.3062 103.81 71.0252 104.059 70.3781C104.481 69.2767 104.594 69.2773 105.821 70.388C107.223 71.6569 107.56 73.8049 106.464 74.4825C106.097 74.7095 105.304 74.1436 104.702 73.2249V73.2249ZM50.8067 71.77C48.8744 70.3784 48.3258 67.3388 49.572 64.929C50.8006 62.5533 52.569 61.5709 55.5656 61.5997C58.5269 61.6281 60.212 62.9237 60.7434 65.5807C61.6332 70.0295 54.5318 74.4528 50.8067 71.77ZM98.1767 70.4844C98.3232 69.4527 98.8801 68.9127 99.7971 68.9127C100.714 68.9127 101.271 69.4528 101.418 70.4844C101.601 71.7738 101.309 72.0562 99.7971 72.0562C98.2848 72.0562 97.9936 71.7738 98.1767 70.4844ZM110.765 62.8349C110.304 62.3739 109.926 61.361 109.926 60.584C109.926 59.2059 109.964 59.2092 111.471 60.7159C112.512 61.757 112.785 62.4908 112.309 62.9669C111.833 63.443 111.33 63.3999 110.765 62.8349ZM105.036 61.5775C105.036 61.1933 105.351 60.879 105.735 60.879C106.119 60.879 106.434 61.1933 106.434 61.5775C106.434 61.9618 106.119 62.2761 105.735 62.2761C105.351 62.2761 105.036 61.9618 105.036 61.5775ZM151.143 47.9966C151.143 47.8271 151.458 47.4942 151.842 47.2567C152.226 47.0193 152.54 47.1579 152.54 47.5648C152.54 47.9717 152.226 48.3046 151.842 48.3046C151.458 48.3046 151.143 48.166 151.143 47.9966ZM70.6313 46.8514C69.1189 45.9706 67.313 42.583 67.313 40.627C67.313 39.8242 67.928 37.9619 68.6795 36.4887C72.4937 29.0123 82.0825 26.3877 86.4815 31.6159C89.8914 35.6683 88.1777 41.3852 82.369 45.3359C79.6537 47.1825 78.3607 47.6023 75.4419 47.5851C73.4681 47.5734 71.3031 47.2435 70.6307 46.8518L70.6313 46.8514ZM217.511 44.113C217.511 43.7288 218.001 43.4145 218.6 43.4145C219.199 43.4145 219.495 43.7288 219.258 44.113C219.02 44.4973 218.53 44.8116 218.169 44.8116C217.807 44.8116 217.511 44.4973 217.511 44.113ZM224.264 40.8529C223.218 39.8068 223.963 36.532 226.184 32.4117L228.537 28.0455H226.866C224.888 28.0455 224.643 26.3507 226.283 24.0094C227.59 22.1435 229.053 22.0154 230.051 23.6794C230.707 24.7739 230.875 24.7887 231.657 23.8219C234.077 20.831 238.322 19.5443 241.609 20.8056C243.548 21.5498 244.176 24.3138 243.029 27.0587C239.901 34.546 227.254 43.8428 224.264 40.8528L224.264 40.8529ZM149.748 30.8399C149.748 30.4557 150.063 30.1414 150.447 30.1414C150.831 30.1414 151.146 30.4557 151.146 30.8399C151.146 31.2242 150.831 31.5385 150.447 31.5385C150.063 31.5385 149.748 31.2242 149.748 30.8399ZM96.1123 26.9581C93.6746 25.2507 94.0207 22.0664 96.8301 20.3535C101.976 17.2161 106.893 19.3776 105.001 23.9453C103.397 27.8175 99.3147 29.2011 96.1123 26.9581ZM173.633 25.4259C173.763 24.7535 174.332 24.2034 174.898 24.2034C175.463 24.2034 176.032 24.7536 176.162 25.4259C176.327 26.2837 175.95 26.6484 174.898 26.6484C173.845 26.6484 173.468 26.2837 173.633 25.4259ZM141.554 24.8292C141.786 24.5971 142.389 24.5723 142.893 24.774C143.451 24.9971 143.285 25.1626 142.471 25.1961C141.735 25.2264 141.322 25.0613 141.554 24.8292L141.554 24.8292ZM153.64 23.4549C152.254 22.0687 152.261 21.4412 153.678 20.0246C155.275 18.4267 157.728 18.9356 158.01 20.9236C158.448 24.0135 155.758 25.5721 153.64 23.455V23.4549ZM229.852 20.594C229.596 20.3379 229.387 19.4058 229.387 18.5228C229.387 15.4126 235.108 14.2984 235.539 17.3247C235.868 19.6353 231.44 22.1814 229.852 20.594H229.852ZM137.871 19.3545C137.871 19.1851 138.186 18.8522 138.57 18.6147C138.954 18.3773 139.269 18.5159 139.269 18.9228C139.269 19.3297 138.954 19.6626 138.57 19.6626C138.186 19.6626 137.871 19.524 137.871 19.3545ZM100.147 15.471C100.147 15.0868 100.776 14.7725 101.545 14.7725C102.313 14.7725 102.942 15.0868 102.942 15.471C102.942 15.8553 102.313 16.1696 101.545 16.1696C100.776 16.1696 100.147 15.8553 100.147 15.471ZM146.604 14.0757C146.027 13.1409 146.8 11.9781 148 11.9781C149.616 11.9781 149.871 13.2595 148.412 14.0407C147.5 14.5288 146.892 14.5406 146.604 14.0758L146.604 14.0757ZM135.076 6.38944C135.076 6.00521 135.391 5.69084 135.775 5.69084C136.159 5.69084 136.474 6.00521 136.474 6.38944C136.474 6.77366 136.159 7.08801 135.775 7.08801C135.391 7.08801 135.076 6.77366 135.076 6.38944Z" fill="#F5C8E4"/>
</svg>
