<svg width="717" height="669" viewBox="0 0 717 669" fill="none" xmlns="http://www.w3.org/2000/svg">
<path d="M274.163 400.328C272.66 394.503 269.933 398.551 274.163 400.328V400.328ZM99.0854 272.048C97.8027 271.596 96.908 270.769 95.624 270.317C94.9827 272.239 98.8147 273.888 99.0854 272.048ZM101.695 255.583C97.8747 256.721 96.2534 250.695 94.7547 254.717C96.1387 255.425 100.048 258.001 101.695 255.583ZM490.841 299.784C491.085 298.016 493.189 298.087 493.443 296.315C491.665 296.087 489.424 299.684 490.841 299.784ZM134.627 343.981C132.625 344.252 133.655 341.487 132.027 341.381C131.612 343.079 134.356 345.823 134.627 343.981ZM501.248 284.188C500.82 284.213 498.013 284.42 498.643 285.053C499.693 286.104 504.332 283.745 501.248 283.323C501.251 283.323 501.235 284.188 501.248 284.188ZM117.291 343.117C117.573 343.519 117.835 344.059 118.097 344.615C118.055 344.644 118.004 344.665 117.961 344.699C118.047 344.797 118.143 344.821 118.232 344.899C118.932 346.388 119.649 347.803 120.756 346.585C120.423 346.228 120.056 345.721 119.684 345.227C121.208 344.788 122.512 342.459 120.832 341.381C121.097 343.135 119.928 343.564 118.877 344.108C117.464 342.032 115.952 339.516 114.687 337.92C114.231 337.343 113.931 333.24 112.091 336.187C113.964 338.52 115.927 341.188 117.291 343.117ZM497.773 278.113C500.171 279.261 500.745 274.695 499.508 277.249C499.344 277.24 499.157 277.24 498.972 277.245C500.436 276.872 500.112 273.716 497.937 274.703V277.127C498.169 277.232 498.36 277.245 498.549 277.261C497.503 277.333 496.565 277.603 497.773 278.113ZM113.821 333.585C113.403 332.56 112.896 331.619 112.091 330.989C111.955 332.145 113.453 335.764 113.821 333.585ZM424.1 159.377C423.935 157.052 427.047 155.541 424.1 153.312C424.109 154.861 421.771 158.348 424.1 159.377ZM432.765 166.308C432.837 167.815 432.576 169.007 431.896 169.783C435.049 169.745 434.687 166.212 437.101 165.452C434.652 164.725 434.855 166.668 432.765 166.308ZM281.963 421.125C280.731 420.917 280.499 419.697 279.363 419.385C278.604 421.171 281.609 423.285 281.963 421.125ZM249.896 170.643C246.972 168.011 247.267 173.848 249.896 170.643V170.643ZM106.887 220.051C104.256 220.583 99.4187 218.936 98.22 220.916C100.859 220.371 105.687 222.027 106.887 220.051ZM280.232 400.328C280.279 401.94 279.565 402.155 278.493 401.189C277.624 403.803 280.427 402.725 281.963 402.919C282.009 401.429 281.296 400.703 280.232 400.328ZM434.5 160.248C436.784 160.513 436.737 158.441 437.101 156.783C434.307 155.997 435.885 159.605 434.5 160.248ZM88.6934 223.516C87.048 223.713 86.7774 222.536 85.22 222.649C83.8307 225.065 88.964 225.043 88.6934 223.516ZM439.7 164.579C439.828 163.552 441.245 162.616 439.7 161.977C439.575 163.004 438.164 163.945 439.7 164.579ZM117.287 332.72C117.577 334.739 118.181 336.452 119.891 337.051C119.6 335.029 119 333.32 117.287 332.72ZM144.157 345.712C140.653 342.669 142.105 348.507 144.157 345.712V345.712ZM148.492 373.453C149.163 374.107 149.716 374.909 150.26 375.656C150.299 376.533 150.724 377.053 151.569 377.189C152.168 377.716 152.839 377.999 153.696 377.792C152.928 377.78 152.451 377.556 152.127 377.223C152.219 377.217 152.287 377.244 152.384 377.235V375.243H151.497C151.443 374.249 151.501 373.208 151.088 372.587C150.907 372.308 149.603 372.832 149.357 372.587C149.065 372.292 149.644 371.152 149.357 370.853C147.648 369.037 145.335 367.637 143.292 365.656C141.456 363.88 140.033 360.485 137.225 360.461C137.311 362.411 139.539 363.391 140.688 364.788C141.519 365.792 141.624 367.26 142.417 368.252C144.081 370.316 146.777 371.799 148.492 373.453ZM151.092 350.921C151.269 351.521 149.188 348.195 148.488 350.052C149.839 351.056 148.04 351.276 149.361 352.656C151.269 354.648 155.561 362.212 157.157 360.461C154.781 357.667 152.249 354.835 150.227 351.791C150.437 352.116 151.248 351.445 151.092 350.921ZM270.693 427.191C267.245 423.788 262.517 419.851 259.427 416.785C257.955 415.333 257.245 413.42 255.967 412.455C255.025 411.741 253.535 412.141 252.492 411.581C251.86 411.251 252.349 408.783 250.761 410.724C250.921 408.828 250.053 407.964 248.161 408.12C249.099 409.935 249.775 411.529 250.761 412.455C252.223 413.827 254.367 414.468 255.967 415.92C258.481 418.229 259.477 419.972 262.032 421.125C264.779 422.369 267.536 429.824 270.693 427.191ZM143.292 376.048C147.627 376.075 148.619 383.98 152.827 381.252C151.055 381.409 149.293 379.059 147.627 377.792C146.137 376.66 143.495 372.799 143.292 376.048ZM181.428 378.657C184.809 382.785 183.757 376.467 181.428 378.657V378.657ZM235.161 410.724C234.059 414.139 237.533 412.977 238.623 414.189C238.251 412.248 237.099 411.104 235.161 410.724ZM147.627 346.585C146.605 346.721 145.161 346.443 145.027 347.452C146.268 347.659 146.487 348.879 147.627 349.183V346.585ZM234.836 95.688C233.709 96.676 234.039 98.6601 236.271 98.3467C236.469 96.8361 236.099 95.8521 234.836 95.688ZM239.855 158.108C242.049 158.757 243.384 153.22 240.572 153.46C239.584 154.316 239.863 156.348 239.855 158.108ZM232.684 157.44C236.081 158.559 236.635 153.625 233.401 154.123C232.797 154.896 232.451 155.904 232.684 157.44ZM228.289 35.9014C228.829 35.3654 228.521 34.5388 229.007 33.9094C229.239 33.5974 230.172 33.5721 230.433 33.2427C230.889 32.6907 230.776 31.7494 231.147 31.2547C232.553 29.4267 234.119 27.764 235.456 25.9414C236.132 25.0201 236.807 24.3027 237.609 23.2854C239.209 21.2467 240.032 19.1321 241.197 17.3054C241.443 16.92 242.336 16.4054 242.624 15.9788C242.987 15.4307 242.885 14.5267 243.341 13.9867C245.503 11.4333 249.393 10.3401 250.517 7.34277C251.141 5.66675 250.851 3.38403 250.517 1.36536C249.597 1.33203 249.521 0.522705 248.364 0.702698C246.423 2.54803 245.444 3.02942 244.059 5.35071C242.32 8.28406 240.201 12.4841 239.044 14.6534C238.529 15.5987 238.829 16.3921 238.327 17.3054C237.052 19.6307 234.723 21.7027 233.304 23.9481C232.889 24.6107 232.937 25.392 232.585 25.9414C231.388 27.8614 230.391 29.436 229.007 31.2547C228.188 32.3187 226.951 32.8414 226.137 33.9094C225.317 34.9774 224.845 36.7174 223.984 37.8894C223.625 38.3801 222.949 38.5867 222.549 39.22C221.645 40.6667 221.189 41.6387 220.4 42.5414C217.905 45.3694 215.947 48.3588 213.947 51.1694C212.473 53.2414 209.359 55.5627 210.367 58.4761C215.703 51.8027 221.967 42.1921 228.289 35.9014ZM247.027 17.3374C246.92 18.1187 245.748 18.8414 247.027 19.3267C247.128 18.5414 248.301 17.824 247.027 17.3374ZM134.457 336.068C133.436 335.908 133.251 334.973 132.305 334.739C131.68 336.101 134.167 337.717 134.457 336.068ZM150.135 111.596C150.353 110.064 148.065 110.859 147.981 109.612C150.265 109.06 148.985 105.219 152.287 105.62C154.54 105.299 154.177 107.912 155.875 106.283C155.815 105.131 156.035 104.219 156.592 103.632C148.297 102.087 143.908 109.183 147.272 114.256C149.096 114.171 150.049 113.289 150.135 111.596ZM147.981 99.6427C147.467 97.8441 151.371 100.12 150.852 98.3174C149.079 99.1787 147.88 96.3668 147.272 98.3174C148.615 98.4734 146.863 99.4107 147.981 99.6427ZM250.605 47.8814C255.464 47.9774 254.64 40.3334 252.759 37.9188C252.176 41.7148 249.512 44.3907 250.605 47.8814ZM127.289 53.1907V71.1214C127.328 71.8187 128.211 71.6401 128.008 70.4587V59.8347C128.375 55.9561 127.505 52.6974 128.008 49.2108C128.261 47.4134 129.363 45.6614 129.443 43.9C129.688 38.5987 127.817 33.188 128.725 26.6334C128.751 25.928 128.388 24.9481 128.008 25.9654C128.708 36.2307 125.019 42.6641 127.289 53.1907ZM148.699 100.972C149.661 100.875 150.868 103.673 151.569 101.636C151.121 101.268 149.408 98.9427 148.699 100.972ZM143.064 355.319C140.096 353.537 136.247 353.353 133.74 351.335C133.799 351.385 134.672 351.073 133.74 350.672C134.009 350.791 132.271 351.939 132.305 350.672C132.709 350.677 133.123 350.137 132.305 350.009C132.296 351.107 130.316 350.381 130.152 351.335C132.14 351.225 132.616 352.357 131.587 353.332C136.163 351.124 139.835 356.556 143.064 355.319ZM157.309 100.972C157.015 99.3721 158.617 99.5281 158.028 97.6547C155.249 96.9241 155.469 100.005 153.721 98.3174C153.852 100.183 154.972 101.145 157.309 100.972ZM201.756 71.0961C198.819 69.5601 196.26 73.304 196.737 77.0734C201.14 77.6014 201.553 74.444 201.756 71.0961ZM193.159 80.3907C191.267 80.188 190.807 81.3067 191.001 83.0468C192.892 83.2441 193.357 82.1254 193.159 80.3907ZM118.679 347.355C118.899 350.069 117.692 347.245 115.817 348.021C115.369 352.272 114.556 348.727 114.383 348.684C114.433 348.696 114.285 349.516 113.665 349.347C113.289 349.247 111.651 347.232 111.512 348.684C113.403 349.849 110.557 351.457 110.085 349.347C109.097 350.195 109.097 352.483 110.085 353.327C113.235 353.623 113.217 352.024 113.665 351.335C115.184 352.707 118.628 350.22 121.549 350.672C121.347 348.873 118.924 349.124 118.679 347.355ZM283.592 140.84C285.652 136.993 281.82 139.096 283.592 140.84V140.84ZM285.028 107.641C286.695 108.237 285.437 103.121 285.028 105.653C284.8 113.408 277.979 115.061 279.287 124.243C286.961 123.06 283.389 112.673 285.028 107.641ZM285.028 50.5401C285.525 50.0468 286.808 47.2854 284.309 47.8814C284.428 48.8774 284.053 50.3294 285.028 50.5401ZM285.028 131.549C285.636 133.933 282.993 136.691 284.309 137.523C284.775 136.145 286.987 132.98 285.028 131.549ZM279.287 136.86C279.043 135.609 280.945 132.023 279.287 133.541C279.717 134.723 277.185 136.299 279.287 136.86ZM267.815 127.564C268.625 125.299 271.968 122.849 269.249 120.257C269.452 126.429 263.373 130.304 266.38 136.86C267.055 133.773 266.848 130.257 267.815 127.564ZM268.532 114.281C268.321 114.691 266.751 116.835 268.532 116.94C267.848 115.708 270.68 114.72 268.532 114.281ZM277.852 74.4401C276.4 75.436 277.008 76.5547 276.417 77.7654C276.299 78.0147 275.116 78.0987 274.981 78.4241C274.205 80.3947 274.753 82.688 274.273 85.0681C273.665 87.9974 271.305 90.8974 272.837 93.0374C273.613 86.4441 279.735 81.2814 277.852 74.4401ZM265.667 62.4894C265.856 61.5827 265.223 59.8987 264.948 61.1654C264.755 62.0681 265.392 63.7521 265.667 62.4894ZM266.38 110.301C265.433 117.388 260.393 120.693 260.647 128.893C267.24 128.131 265.852 120.084 266.38 113.619C266.519 111.947 268.337 111.343 266.38 110.301ZM275.699 149.475C275.901 147.952 278.207 142.587 276.417 143.499C276.653 145.427 273.901 150.379 275.699 149.475ZM266.38 77.0988C266.101 77.7694 267.088 78.2587 267.097 78.4241C267.476 83.3881 268.912 86.2628 269.249 89.7147C269.401 91.2681 268.524 92.868 268.532 94.3627C268.549 98.4227 270.567 102.281 269.968 106.312C270.195 107.38 270.989 106.265 270.685 104.987C270.744 103.556 270.605 102.264 270.685 101.001C270.816 98.7814 272.091 96.316 272.12 94.3627C272.12 94.392 270.711 93.7974 270.685 93.7001C270.491 93.08 271.419 92.8721 271.403 92.3748C271.288 89.7708 270.816 89.4187 269.968 87.7227C268.415 84.6201 267.583 81.8214 267.815 78.4241C267.957 76.2547 270.507 73.7427 270.685 71.1214C270.859 68.5427 271.056 65.7614 267.815 63.8147C267.072 65.884 265.881 67.796 265.667 69.7921C265.231 73.7734 267.004 75.5961 266.38 77.0988ZM259.212 55.188C259.372 55.6987 259.229 56.4921 259.929 56.5134C259.925 56.8841 260.508 57.2681 260.647 56.5134C259.204 54.5667 260.001 54.6347 258.495 53.1907C259.237 53.9094 255.759 53.3094 257.059 51.8614C254.7 51.8907 254.316 53.756 254.193 55.8507C255.729 57.2814 258.195 56.192 259.212 55.188ZM280.723 128.231C280.156 128.688 279.127 131.928 280.723 132.212C279.941 130.511 282.9 129.047 280.723 128.231ZM72.7947 358.641C71.484 360.216 70.9227 362.483 72.0774 364.619C78.3454 366.581 78.9387 357.287 72.7947 358.641ZM66.3413 336.731C66.124 337.629 65.3214 337.996 65.624 339.385C68.9587 340.192 69.0707 336.748 66.3413 336.731ZM61.3254 340.715C61.16 341.125 62.4094 342.139 62.764 342.044C64.6467 341.509 62.2974 338.308 61.3254 340.715ZM59.892 363.289C60.0027 364.075 59.7694 365.176 60.6094 365.285C61.0467 364.66 62.2787 362.833 59.892 363.289ZM287.889 97.6801C288.303 97.2787 289.569 94.5307 287.889 94.3627C288.32 95.5441 285.787 97.1227 287.889 97.6801ZM134.457 451.608C137.576 445.771 127.459 450.46 134.457 451.608V451.608ZM81.404 389.189C82.1214 389.189 82.252 389.725 82.8347 389.852C82.8307 389.189 83.4174 389.063 83.548 388.527C82.8307 388.527 82.7 387.985 82.1173 387.863C82.1214 388.527 81.536 388.652 81.404 389.189ZM98.612 304.195C98.0093 305.239 95.5107 307.893 97.1774 308.843C96.68 306.631 98.6547 307.771 99.3307 308.176C99.048 306.153 101.213 304.795 98.612 304.195ZM100.761 346.692C100.976 344.94 99.2627 344.977 97.8947 344.699C97.2454 346.844 100.233 345.633 100.761 346.692ZM98.612 354.661C98.0387 356.957 99.4067 357.46 100.044 358.641C103.373 358.187 105.273 356.413 105.78 353.332C102.352 352.576 101.816 353.901 98.612 354.661ZM97.1774 337.397C95.076 338.039 95.5654 336.811 94.3067 336.068C93.7414 335.735 93.3027 335.7 92.872 335.405C92.2814 334.991 92.6187 334.743 91.4414 334.739C92.1387 334.743 87.908 336.033 87.8533 336.068C86.752 336.731 82.112 342.805 82.1173 342.707C81.94 346.68 85.4854 348.224 91.4414 348.684C94.1814 347.684 94.2147 344.168 97.1774 343.373C97.9294 340.596 95.6627 338.869 97.1774 337.397ZM143.777 357.979C146.867 356.067 149.991 361.44 152.384 359.972C150.429 359.22 144.875 354.369 143.777 357.979ZM78.5294 357.979C79.808 358.565 80.3574 359.832 82.8347 359.308C86.3214 354.484 77.812 351.596 78.5294 357.979ZM99.3307 339.385C99.2627 340.436 97.4987 339.905 97.8947 341.381C98.968 341.268 100.537 341.615 100.761 340.715C100.2 340.568 99.3467 340.697 99.3307 340.052C99.7267 340.052 100.14 339.516 99.3307 339.385ZM88.5707 29.2881C89.96 27.3 91.4627 20.8041 87.8533 19.9894C87.0427 22.2601 86.1947 28.0081 88.5707 29.2881ZM162.417 480.817C162.433 483.919 165.988 483.919 166.004 480.817C165.063 479.972 163.363 479.972 162.417 480.817ZM0.38269 292.909C1.33869 293.769 3.04802 293.783 3.25202 292.241C2.30136 291.376 0.58269 291.367 0.38269 292.909ZM9.70669 268.333C9.66402 268.74 9.59203 269.124 8.98936 268.996C8.76936 270.749 9.98136 271.179 11.8547 270.993C12.0574 269.253 11.5934 268.136 9.70669 268.333ZM176.043 427.7C176.143 427.941 175.257 426.971 175.325 427.037C174.809 426.535 175.101 426.337 174.607 425.712C172.429 422.897 166.376 425.425 165.287 428.363C164.975 429.203 165.684 431.517 166.004 433.677C166.748 438.667 168.5 442.099 171.741 442.305C173.468 442.419 174.759 441.183 177.477 439.655C178.397 437.287 176.341 435.209 176.043 433.015C175.755 430.871 176.755 429.444 176.043 427.7ZM174.607 423.716C180.837 416.84 165.768 409.732 168.153 421.724C169.896 422.771 171.223 424.201 174.607 423.716ZM122.267 350.672C125.011 351.943 124.88 351.487 127.289 350.672C128.835 350.157 130.337 350.865 130.152 349.347C127.527 348.191 124.96 349.997 122.267 350.672ZM178.912 379.227C179.052 379.332 177.696 377.788 178.195 377.903C173.907 376.965 172.644 380.201 172.459 386.533C173.379 388.336 175.932 388.623 176.76 390.519C174.632 392.307 170.808 392.531 169.588 395.161C169.925 398.18 172.776 398.855 176.76 398.483C175.645 395.385 175.992 394.051 176.76 392.503C178.187 389.64 181.461 388.332 181.779 385.867C182.163 382.815 180.163 380.143 178.912 379.227ZM61.3254 234.469C59.636 233.908 63.3 232.84 62.0467 230.484C60.6214 230.476 61.1334 228.679 59.176 229.159C59.024 229.903 58.3787 230.193 57.7454 230.484C57.4454 232.084 59.052 231.928 58.4587 233.805C58.0574 233.805 57.644 234.343 58.4587 234.469C58.6867 232.269 60.6774 237.065 61.3254 234.469ZM49.8547 234.469C48.936 234.439 48.864 233.621 47.7014 233.805C46.5867 235.44 50.1427 235.76 49.8547 234.469ZM151.667 377.903C151.08 380.273 153.191 381.197 154.536 379.889C154.751 378.141 153.54 377.712 151.667 377.903ZM125.137 347.355C122.436 348.111 121.875 346.717 120.832 348.684C122.115 348.283 123.812 350.631 124.42 348.684C123.98 348.645 123.572 348.583 123.701 348.021C124.259 347.865 125.12 348 125.137 347.355ZM26.1934 246.423C25.2054 247.275 24.948 250.395 26.9094 250.408C27.668 248.204 29.0347 247.528 26.1934 246.423ZM155.963 452.271C158.213 452.575 159.171 451.696 158.833 449.612C156.859 447.548 153.739 450.439 155.963 452.271ZM158.116 462.233V459.573C156.871 459.523 155.891 459.725 155.249 460.236C155.029 461.987 156.247 462.415 158.116 462.233ZM16.876 264.349C15.956 265.227 15.956 266.803 16.876 267.667C20.096 268.009 19.2334 264.196 16.876 264.349ZM189.667 389.852C190.233 387.56 188.996 386.935 187.515 386.533C187.675 387.788 186.704 387.999 186.797 389.189C187.768 389.396 188.169 390.135 189.667 389.852ZM366.044 122.255C364.956 123.188 363.779 125.479 365.328 126.901C368.295 127.527 369.721 121.972 366.044 122.255ZM354.573 163.417C354.539 162.505 354.911 161.965 355.289 161.429H353.851C353.052 162.383 353.079 163.045 354.573 163.417ZM329.475 166.081C328.875 166.849 328.528 167.859 328.756 169.395C331.028 170.373 332.205 165.579 329.475 166.081ZM389.699 76.436C389.547 75.9161 389.099 75.66 388.264 75.7694C386.416 77.2214 384.567 79.6987 386.12 82.4134C389.852 82.7627 389.763 79.5894 389.699 76.436ZM334.493 110.301C336.485 107.127 332.141 108.688 334.493 110.301V110.301ZM335.928 53.8587C336.405 52.532 338.407 51.0214 335.928 50.5401C336.359 51.7188 333.827 53.2921 335.928 53.8587ZM338.085 114.948C339.537 113.171 338.756 112.424 339.516 110.964C337.132 110.697 335.511 114.543 338.085 114.948ZM349.549 146.816C347.663 146.619 347.203 147.741 347.396 149.475C349.288 149.679 349.752 148.556 349.549 146.816ZM391.852 97.0174C384.528 96.5694 381.713 106.645 386.12 110.964C391.213 109.495 393.675 102.763 391.852 97.0174ZM464.984 185.328C464.756 186.232 463.964 186.603 464.267 187.992C466.268 189.056 466.251 185.121 464.984 185.328ZM108.651 235.799V237.791H110.085C110.077 237.124 110.664 237.001 110.795 236.461C109.879 236.423 109.807 235.613 108.651 235.799ZM460.68 177.367C458.087 180.5 464.883 178.247 460.68 177.367V177.367ZM394.721 89.0521C395.085 88.8494 397.289 88.7014 397.588 88.3894C398.184 87.7614 397.259 85.9161 398.305 85.7307C395.421 86.3854 392.456 86.9507 392.571 90.3774C394.039 90.7787 394.097 89.3947 394.721 89.0521ZM447.78 193.969C449.653 194.155 450.861 193.72 450.64 191.972C448.771 191.787 447.565 192.217 447.78 193.969ZM390.417 93.0374C391.648 91.9614 392.197 90.2601 391.852 87.7227C388.64 87.7907 388.573 91.6187 390.417 93.0374ZM289.324 120.925C289.211 119.7 291.017 115.484 289.324 116.94C290.101 118.637 287.143 120.107 289.324 120.925ZM402.607 72.4507C401.476 74.0587 399.94 75.288 400.455 78.4241C404.583 78.9694 404.62 74.0214 402.607 72.4507ZM356.008 134.204C357.168 133.288 359.552 133.559 358.869 131.549C354.843 132.457 351.297 133.828 350.267 137.523C352.416 138.94 354.208 135.619 356.008 134.204ZM294.339 73.7774C294.5 72.316 296.095 68.8293 295.056 68.4627C294.74 69.7707 292.397 72.5694 294.339 73.7774ZM297.209 91.0454C296.8 89.2681 299.333 86.8907 297.209 85.7307C298.041 87.8881 295.019 89.8121 297.209 91.0454ZM316.567 159.437C316.609 158.293 316.019 157.736 315.136 157.44C314.111 158.416 314.084 160.016 316.567 159.437ZM292.195 82.4094C291.807 80.4494 294.229 77.7227 292.904 77.0988C292.592 78.4027 290.253 81.2054 292.195 82.4094ZM300.08 68.4627C300.688 73.0254 297.424 77.5001 299.361 81.0828C299.801 73.7387 304.103 66.444 302.232 59.168C301.76 60.944 301.928 63.3174 300.797 64.4827C300.223 61.076 302.308 60.1268 302.232 57.1761C299.252 57.5854 300.667 60.684 300.08 63.1481C299.488 65.6507 296.395 68.7414 298.644 70.4641C298.991 69.6734 299.408 68.952 300.08 68.4627ZM288.607 103.657C289.308 102.527 291.232 99.58 289.324 99.0094C289.519 101.399 288 102.209 287.889 104.324C288.472 105.307 288.105 104.472 288.607 103.657ZM291.477 144.161C291.435 144.571 291.367 144.947 290.76 144.828V146.153C292.524 147.188 292.865 143.9 291.477 144.161ZM290.76 23.3107C290.203 24.788 289.249 25.9027 289.324 27.9627C291.545 28.4147 292.308 24.16 290.76 23.3107ZM290.043 158.769V160.767C292.132 161.737 292.132 157.8 290.043 158.769ZM297.927 84.4014C299.26 84.3 298.365 82.1561 299.361 81.7467C297.176 80.8387 297.344 86.8907 297.927 84.4014ZM299.361 53.1907C299.624 52.0468 301.531 49.0881 300.08 48.5481C299.295 49.2108 297.395 52.1654 299.361 53.1907ZM305.093 130.883C310.404 130.928 311.105 126.712 312.269 122.917C309.18 121.44 312.983 117.497 309.4 116.277C306.471 119.507 301.887 126.121 305.093 130.883ZM313.7 13.3494C313.797 12.3788 314.261 10.4027 312.983 10.032C312.101 12.5387 310.581 14.4467 310.835 18.0001C312.355 18.0934 313.544 14.9494 313.7 13.3494ZM306.529 152.793C306.643 153.579 306.411 154.68 307.247 154.791C307.685 154.169 308.917 152.341 306.529 152.793ZM307.247 35.9268C304.933 35.3321 306.237 38.092 305.093 38.5867C306.985 38.7854 306.943 37.1974 307.247 35.9268ZM309.4 10.6947C309.611 10.2894 311.185 8.14008 309.4 8.03473C309.188 8.44806 307.619 10.5934 309.4 10.6947ZM303.667 52.524C302.84 53.3134 302.857 54.8801 302.949 56.5134C303.347 58.3107 304.908 52.2494 303.667 52.524ZM321.704 406.883C321.648 407.376 321.568 407.841 320.813 407.689V409.303C323 410.555 323.425 406.571 321.704 406.883ZM693.752 317.423C696.079 317.651 697.581 317.128 697.311 315.005C694.984 314.781 693.487 315.301 693.752 317.423ZM328.824 414.139C327.748 414.063 328.272 415.316 328.824 414.139V414.139ZM316.36 433.483C316.503 434.433 316.208 435.771 317.251 435.903C317.795 435.145 319.319 432.925 316.36 433.483ZM444.533 505.219C444.669 506.16 444.381 507.507 445.419 507.633C445.969 506.885 447.492 504.661 444.533 505.219ZM326.152 408.495C328.217 409.2 328.195 404.397 327.043 406.883C326.545 407.6 324.363 410.412 326.152 408.495ZM688.405 335.156C691.723 337.152 697.328 335.503 696.42 331.129C691.731 330.636 689.68 332.547 688.405 335.156ZM672.391 369.004C671.672 373.888 676.468 369.54 672.391 369.004V369.004ZM620.763 335.156C620.712 335.645 620.637 336.109 619.872 335.963V337.575C622.068 338.828 622.493 334.835 620.763 335.156ZM592.285 230.379C590.933 231.515 589.473 234.292 591.395 236.023C595.08 236.783 596.852 230.036 592.285 230.379ZM601.187 258.587C599.316 261.775 595.556 263.665 597.62 268.257C596.189 270.212 592.504 274.323 594.067 276.315C596.209 275.468 595.839 272.541 596.733 271.483C598.869 268.963 603.083 268.017 604.745 265.032C604.517 262.011 603.348 259.851 601.187 258.587ZM640.345 198.136C637.453 204.993 638.011 212.959 636.787 220.704C635.473 229.02 633.38 238.331 631.447 245.689C630.141 250.648 629.125 255.688 627.884 261.007C627.12 264.295 626.073 267.351 625.212 270.681C623.845 275.995 623.179 282.009 621.653 285.184C619.864 288.919 617.303 292.023 616.319 295.664C614.796 297.163 612.253 297.18 610.975 298.08C608.46 299.852 605.145 305.28 604.745 307.749C603.769 313.751 605.961 321.593 610.975 322.26C617.468 323.113 626.137 310.092 626.103 305.331C626.085 302.532 622.731 299.565 622.544 296.472C622.503 295.775 623.139 293.521 623.435 292.44C624.651 287.961 624.292 282.925 625.212 278.739C625.432 277.768 626.592 276.501 626.993 275.509C627.529 274.205 627.533 272.875 627.884 271.483C629.311 265.789 629.936 260.323 631.447 255.359C632.219 252.835 633.671 250.521 634.115 248.107C634.571 245.655 633.881 243.341 634.115 240.856C634.731 234.431 637.96 226.732 638.568 220.704C638.851 217.893 638.129 215.229 638.568 212.641C639.428 207.632 642.704 203.584 642.127 198.941C641.927 198.32 641.383 198.008 640.345 198.136ZM632.333 275.509C637.412 274.459 640.067 271.225 640.345 265.84H637.677C636.587 269.689 631.637 270.048 632.333 275.509ZM314.583 453.635C315.609 456.255 311.86 458.589 314.583 460.08C314.941 458.725 317.537 452.861 314.583 453.635ZM411.597 517.304C411.551 518.337 410.459 518.421 410.707 519.723H412.484C413.492 518.565 413.447 517.759 411.597 517.304ZM359.975 542.292C360.148 542.421 358.464 540.544 359.084 540.684C353.761 539.544 352.195 543.473 351.964 551.16C353.107 553.351 356.277 553.696 357.304 555.992C354.665 558.167 349.917 558.441 348.401 561.632C348.819 565.292 352.357 566.115 357.304 565.663C355.923 561.903 356.349 560.285 357.304 558.408C359.072 554.929 363.145 553.343 363.533 550.355C364.015 546.643 361.524 543.401 359.975 542.292ZM341.28 478.623C339.301 479.856 338.276 484.3 343.061 483.456C343.049 481.315 343.555 478.711 341.28 478.623ZM354.632 596.291C362.364 587.941 343.661 579.317 346.62 593.876C348.781 595.141 350.427 596.877 354.632 596.291ZM356.413 601.128C356.539 601.419 355.437 600.237 355.523 600.321C354.88 599.713 355.244 599.469 354.632 598.713C351.925 595.299 344.412 598.367 343.061 601.933C342.677 602.951 343.555 605.757 343.953 608.379C344.872 614.436 347.051 618.603 351.073 618.856C353.213 618.995 354.817 617.492 358.195 615.636C359.333 612.764 356.784 610.241 356.413 607.577C356.055 604.972 357.3 603.243 356.413 601.128ZM326.152 540.684C325.427 543.563 328.044 544.685 329.715 543.097C329.981 540.971 328.479 540.452 326.152 540.684ZM339.5 665.603C339.516 669.363 343.931 669.363 343.953 665.603C342.783 664.573 340.672 664.573 339.5 665.603ZM331.488 630.949C334.277 631.32 335.468 630.252 335.051 627.724C332.597 625.216 328.723 628.724 331.488 630.949ZM715.115 306.939C714.832 308.032 713.849 308.483 714.224 310.172C716.705 311.464 716.685 306.691 715.115 306.939ZM429.401 514.079H431.183C431.229 513.048 432.317 512.965 432.073 511.664H429.401V514.079ZM422.281 516.497C422.019 518.608 422.607 519.972 424.948 519.723C425.227 518.633 426.215 518.187 425.839 516.497H422.281ZM709.771 297.277C706.551 301.076 714.984 298.345 709.771 297.277V297.277ZM436.523 505.219H438.304C438.351 504.189 439.439 504.1 439.195 502.801H436.523V505.219ZM420.5 485.068C420.861 487.009 418.875 486.819 419.604 489.099C422.88 489.875 423.151 485.136 420.5 485.068ZM586.055 295.664C584.695 297.775 581.099 299.189 579.824 301.3C578.317 303.795 578.909 306.513 578.043 309.365C577.904 309.813 576.531 311.059 576.257 311.78C575.827 312.941 575.603 314.261 575.367 315.005C573.523 321.057 572.369 328.749 570.921 333.543C568.58 341.28 568.116 353.56 564.692 359.329C564.025 361.82 567.76 360.312 566.469 363.364C564.384 369.363 553.799 373.933 561.125 381.092C576.979 380.84 565.823 362.627 572.703 356.104C573.172 353.167 568.791 352.491 570.921 350.471C571.145 334.168 581.769 324.565 585.164 311.78C585.743 309.593 586.704 306.483 586.945 304.528C587.32 301.443 586.337 298.049 586.945 294.855C587.101 294.023 588.253 292.815 588.723 291.635C590.559 287.003 591.765 282.795 591.395 279.54C590.617 281.841 589.495 284.408 588.723 286.792C587.781 289.713 587.827 292.9 586.055 295.664ZM418.719 493.127C418.477 494.228 419.271 496.271 419.604 494.739C419.849 493.64 419.056 491.593 418.719 493.127ZM334.16 643.037V639.812C332.615 639.753 331.395 639.999 330.601 640.619C330.332 642.747 331.833 643.261 334.16 643.037ZM480.133 469.753C478.861 470.927 478.825 472.873 481.915 472.173C481.961 470.784 481.227 470.104 480.133 469.753ZM479.243 449.603C477.861 451.039 476.795 452.756 475.685 454.436C474.557 455.752 464.921 455.204 467.673 457.665C471.667 454.563 482.429 457.593 483.695 452.027C482.844 450.641 480.901 450.253 479.243 449.603ZM467.673 374.647C472.515 374.884 474.685 376.537 480.133 377.872C479.065 381.16 481.644 379.644 482.805 380.287C483.291 380.565 483.084 382.343 483.695 382.709C484.287 383.068 485.696 382.465 486.363 382.709C486.988 382.933 487.469 384.871 488.144 385.128C489.303 385.563 490.167 384.271 490.816 384.321C492.771 384.477 493.624 387.463 495.265 385.933C496.055 383.76 493.488 385.001 492.597 384.321C491.18 383.237 491.349 381.055 489.925 380.287C488.875 379.721 486.427 380.899 486.363 379.484C488.76 380.037 488.085 377.817 489.035 377.067C486.803 375.031 486.216 378.611 484.583 379.484C482.899 376.441 475.984 378.139 474.795 374.647C472.164 374.073 468.513 374.428 467.673 372.229C469.227 371.485 469.636 369.708 469.451 367.392C466.504 364.761 462.375 364.669 460.552 368.197C459.024 371.267 463.191 373.229 461.443 373.841C459.523 372.389 458.295 371.557 458.771 375.453C461.62 374.533 466.148 376.437 466.787 376.259C467.395 376.087 466.461 374.588 467.673 374.647ZM359.084 440.736C357.172 442.389 358.62 444.568 360.861 444.771C362.276 443.559 362.167 440.169 359.084 440.736ZM486.363 461.688C486.731 463.631 484.739 463.444 485.476 465.723C488.161 466.964 487.82 461.553 486.363 461.688ZM488.144 453.635C487.68 446.488 490.855 438.371 489.035 432.677C486.964 439.072 489.239 452.575 484.583 454.436C487.156 455.247 488.756 457.391 490.816 454.436C489.537 452.659 488.647 455.453 488.144 453.635ZM483.695 503.607H485.476C485.472 502.801 486.195 502.648 486.363 501.993C485.224 501.948 485.131 500.96 483.695 501.188V503.607ZM448.979 391.573C449.117 392.524 448.825 393.861 449.869 393.992C450.415 393.241 451.941 391.016 448.979 391.573ZM477.461 348.051H479.243C479.243 347.245 479.965 347.092 480.133 346.439C478.989 346.396 478.901 345.405 477.461 345.633V348.051ZM281.647 434.289C281.777 435.365 278.659 437.287 280.756 437.519C281.251 437.008 284.373 435.083 281.647 434.289ZM373.325 555.187C374.027 552.405 372.495 551.645 370.653 551.16C370.857 552.68 369.649 552.936 369.763 554.384C370.967 554.635 371.469 555.528 373.325 555.187ZM311.02 466.529C310.792 473.051 314.608 461.197 311.02 466.529V466.529ZM490.816 282.769C493.573 283.073 494.437 278.887 491.707 278.739C490.956 279.676 490.529 280.896 490.816 282.769ZM294.997 391.573C294.947 392.068 294.867 392.528 294.107 392.38V393.992C296.297 395.241 296.724 391.252 294.997 391.573ZM327.043 537.455H324.371C324.211 539.215 325.101 540.021 327.043 539.872V537.455ZM484.583 489.905C483.557 490.856 483.579 492.749 483.695 494.739C484.191 496.916 486.123 489.564 484.583 489.905ZM555.791 391.573C555.74 392.068 555.655 392.528 554.9 392.38V393.992C557.089 395.241 557.517 391.252 555.791 391.573ZM554.9 143.339C555.435 144.764 552.291 146.677 554.9 147.361C555.495 145.752 557.972 143.916 554.9 143.339ZM546.888 283.576C546.144 284.509 545.715 285.733 545.997 287.603C548.816 288.789 550.277 282.968 546.888 283.576ZM550.455 394.799C552.48 395.023 553.793 394.604 554.009 393.191C551.747 392.768 550.56 391.813 550.455 394.799ZM557.576 221.511C559.381 219.359 558.412 218.451 559.353 216.677C556.389 216.357 554.384 221.017 557.576 221.511ZM561.125 359.329C559.985 359.292 559.897 358.304 558.457 358.524C557.077 360.512 561.48 360.9 561.125 359.329ZM428.435 368.252C429.317 368.873 431.124 368.881 431.993 368.155C431.765 370.639 431.255 372.705 430.697 374.756C430.123 372.477 429.308 370.275 428.435 368.252ZM425.835 212.249C428.081 209.265 427.932 216.699 425.835 212.249V212.249ZM425.835 202.705C428.861 205.935 423.472 207.117 425.835 202.705V202.705ZM429.305 243.447C429.363 243.191 430.557 242.1 431.035 242.577C431.639 243.191 430.169 243.515 430.169 243.447C430.203 244.092 430.043 248.711 429.305 247.787C428.945 247.331 429.175 244.047 429.305 243.447ZM432.765 200.119C430.9 194.509 435.099 207.091 432.765 200.119V200.119ZM433.639 205.315C433.964 203.668 434.729 205.867 434.5 207.041C434.172 208.695 433.395 206.496 433.639 205.315ZM436.244 289.384C434.661 286.424 436.349 285.227 436.244 281.587C437.725 281.545 438.484 282.229 438.831 283.323C439.629 286.311 436.805 284.145 436.244 285.917C435.901 286.961 437.776 286.345 437.973 286.788C438.789 288.644 436.252 289.857 435.369 291.984C433.243 291.887 435.189 289.119 436.244 289.384ZM435.369 234.785C437.607 231.797 437.469 239.235 435.369 234.785V234.785ZM435.369 224.381C436.62 224.58 435.683 226.969 437.101 226.98C436.121 229.767 434.632 226.145 435.369 224.381ZM437.101 198.38C438.612 199.772 438.983 202.28 438.831 205.315C437.135 204.112 436.045 199.689 437.101 198.38ZM439.7 212.249H437.973V210.505H439.7V212.249ZM443.175 213.98C442.477 216.989 444.472 217.311 444.036 220.051C441.567 220.873 439.74 220.868 437.101 219.181C437.328 217.155 440.912 218.679 441.44 219.181C442.613 218.911 442.157 217.011 442.305 215.711C442.039 214.537 440.132 214.993 438.831 214.845C436.08 213.655 441.896 213.993 443.175 213.98ZM439.7 222.649C442.837 221.832 440.912 226.065 441.44 227.847C437.307 227.737 440.284 225.884 439.7 222.649ZM445.771 242.577C444.521 243.616 444.315 246.553 444.036 249.517C443.915 250.86 444.683 253.923 444.036 257.317C440.844 258.124 442.461 252.747 443.175 252.117C440.257 251.223 441.828 254.813 441.44 256.452H437.973C437.177 252.564 436.519 246.764 437.973 242.577C438.105 242.168 440.596 240.648 440.571 240.847C440.553 240.944 440.476 236.171 440.571 236.516C440.325 235.583 438.864 235.92 438.831 234.785C438.367 232.857 440.489 233.548 440.571 232.177C441.643 229.379 437.768 231.519 438.831 228.711C440.641 230.616 441.639 227.948 443.175 229.581C441.253 234.156 443.964 235.152 442.305 239.981C442.445 241.003 443.883 240.716 444.905 240.847C443.939 241.916 444.149 242.628 445.771 242.577ZM442.305 282.453C443.617 279.388 443.951 284.044 443.175 284.188C442.656 284.272 442.085 282.972 442.305 282.453ZM449.864 352.247C449.528 355.193 452.148 355.447 452.541 357.717C455.691 359.132 457.129 355.016 457.88 356.916C455.677 362.179 453.448 367.413 452.541 373.841C446.441 374.769 446.248 381.037 440.972 382.709C441.685 379.916 439.645 379.611 440.081 377.067C437.367 377.104 435.547 376.327 434.741 374.647C435.581 373.335 436.201 371.819 436.636 370.139C437.844 370.772 437.219 373.243 438.831 373.453C440.959 371.415 437.544 371.845 437.971 369.123C438.645 368.923 439.684 369.101 439.7 368.252C438.511 368.341 437.505 368.616 436.831 369.219C437.159 367.661 437.369 365.989 437.413 364.171H439.307C439.7 364.303 440.101 364.467 440.571 364.779C438.755 361.212 443.044 360.836 443.175 360.461C443.855 358.417 442.705 357.476 443.175 354.387C445.576 353.656 447.771 352.96 449.864 352.247ZM447.511 249.517C450 248.157 448.86 255.32 446.636 254.717C446.615 252.675 448.135 252.163 447.511 249.517ZM455.259 350.187C455.352 350.293 455.572 350.389 456.099 350.471C455.467 349.161 460.3 349.161 459.661 350.471C458.915 351.403 458.488 352.627 458.771 354.496C456.243 354.1 457.487 350.284 453.432 351.276C451.899 353.319 454.787 354.4 451.651 354.496C449.881 354.272 452.633 352.508 450.195 352.137C451.975 351.525 453.664 350.879 455.259 350.187ZM460.852 271.361C460.435 272.851 460.383 274.357 459.573 275.497C458.492 275.083 458.112 275.359 457.985 275.893C457.56 275.315 457.519 274.387 456.099 274.703C455.428 275.743 454.415 276.464 453.787 277.54C453.713 277.439 453.623 277.361 453.571 277.249C454.027 272.525 457.281 272.627 460.852 271.361ZM461.443 273.897C461.937 272.588 463.536 271.968 464.111 270.681C464.216 270.44 464.257 270.179 464.343 269.929C466.773 268.832 468.732 267.799 470.903 266.853C474.169 265.425 476.855 264.045 479.437 262.687C479.328 263.379 479.445 263.757 480.133 263.42C480.172 263.117 480.299 262.661 480.445 262.159C481.876 261.403 483.3 260.651 484.776 259.913C485.641 259.483 486.508 259.089 487.364 258.719C486.975 259.491 486.579 260.263 486.363 261.003C484.645 266.827 484.831 271.752 481.024 273.897C482.219 274.428 482.683 275.628 482.805 277.127C480.496 276.383 480.383 276.616 479.239 277.384C478.107 277.48 476.956 277.629 475.799 277.793C476.039 276.201 476.525 274.628 477.461 273.091C479.527 273.353 480.876 272.96 481.915 272.289C482.045 270.293 482.084 268.376 480.133 268.257C477.203 270.403 475.799 273.931 474.904 277.924C470.248 278.608 465.495 279.444 461.195 278.704C461.451 277.088 460.831 275.519 461.443 273.897ZM476.101 280.723C476.557 280.617 477.005 280.512 477.453 280.407C477.368 280.685 477.352 280.908 477.357 281.111C476.867 281.069 476.432 280.972 476.101 280.723ZM480.133 284.381C478.537 285.648 479.377 289.119 478.204 290.764C477.623 291.027 477.015 291.325 476.389 291.595C476.153 291.608 475.972 291.668 475.685 291.635C475.992 289.895 475.976 288.139 475.883 286.383C477.352 285.597 478.749 284.737 480.153 283.892C480.153 284.048 480.18 284.18 480.133 284.381ZM483.036 291.984C481.776 293.179 480.323 294.195 478.125 294.467C478.213 294.12 478.297 293.769 478.381 293.423C479.573 292.58 480.989 291.968 483.036 291.984ZM479.573 303.249C477.393 302.883 481.016 301.371 482.172 301.52C481.531 302.321 480.597 302.832 479.573 303.249ZM476.964 294.584C476.972 294.576 476.984 294.568 476.997 294.559C476.992 294.568 476.989 294.576 476.984 294.584H476.964ZM477.841 309.315C475.308 310.583 476.525 309.387 478.703 308.451C480.509 307.683 479.2 308.636 477.841 309.315ZM472.64 314.512C472.227 314.456 471.945 314.528 471.683 314.621C471.803 314.088 471.916 313.548 472.037 313.027C472.531 312.793 473.055 312.671 473.503 312.78C473.663 313.524 473.164 313.604 472.64 313.655C472.659 314.495 473.696 314.329 474.367 314.512C474.152 315.608 472.649 315.393 472.64 314.512ZM470.712 315.305C469.965 315.039 470.413 314.173 471.265 313.511C471.084 314.111 470.893 314.705 470.712 315.305ZM462.232 284.188C460.333 286.825 456.687 283.184 462.232 284.188V284.188ZM450.76 377.872C450.557 383.301 445.373 378.611 450.76 377.872V377.872ZM440.081 393.992C437.831 392.464 440.9 391.168 439.195 389.155C439.908 389.581 440.633 389.995 441.861 389.961C441.477 391.493 439.307 391.416 440.081 393.992ZM436.523 416.557C433.412 413.704 435.141 411.255 436.523 407.689C437.864 404.207 438.973 400.349 440.081 398.024C440.119 396.643 439.417 395.937 438.304 395.604C438.883 394.237 440.343 395.093 440.081 396.411C442.989 394.74 444.039 391.396 443.643 386.736C442.44 388.695 441.861 387.239 440.972 388.349C437.557 387.459 444.315 385.149 443.643 386.736C445.399 385.377 446.255 383.199 448.979 382.709C444.648 393.832 440.456 405.077 436.523 416.557ZM414.269 469.753C410.851 468.927 415.081 465.065 415.16 462.493C419.183 463.869 414.953 467.737 414.269 469.753ZM412.479 477.816C412.075 479.437 410.816 478.467 411.597 475.393C412.176 473.127 412.632 477.255 412.479 477.816ZM412.479 456.048C417.68 457.876 412.885 462.891 412.479 466.529C408.815 465.083 413.155 459.831 412.479 456.048ZM408.039 471.367C409.592 469.72 407.372 469.784 408.929 468.139C410.125 468.669 410.584 469.864 410.707 471.367H408.039ZM405.363 496.351C403.456 501.504 400.977 506.561 399.133 511.664C397.259 516.872 395.964 522.471 393.797 527.784C392.759 530.329 391.109 532.495 390.232 535.035C389.377 537.529 389.361 540.552 388.453 543.097C387.915 544.617 386.436 546.235 385.791 547.931C385.005 549.961 384.591 551.595 384.005 553.579C382.448 550.443 385.715 547.243 386.681 543.904C387.732 540.223 387.404 536.251 388.453 532.621C388.581 532.192 390.135 531.308 390.232 531.009C390.755 529.456 391.456 527.096 392.013 525.361C394.005 519.207 394.211 514.876 399.133 511.664C399.079 509.325 399.036 505.3 400.028 502.801C399.851 503.244 401.223 500.195 400.919 500.381C400.985 500.34 402.62 501.424 402.695 501.188C402.813 500.837 401.648 499.14 401.809 497.968C401.812 497.896 402.505 496.253 402.695 495.544C403.185 493.755 404.633 492.657 405.363 490.711C406.499 487.701 407.253 484.575 408.039 481.032C411.172 484.916 407.301 491.133 405.363 496.351ZM398.248 500.381C401.357 491.492 403.797 486.477 405.363 477.011C408.568 478.103 406.841 480.4 406.253 482.649C405.899 484.008 403.959 486.317 403.585 487.481C402.961 489.436 403.396 492.012 402.695 493.932C402.544 494.355 401.02 495.245 400.919 495.544C400.344 497.253 400.464 499.609 399.133 501.188C399.5 504.096 397.513 502.295 398.248 500.381ZM401.809 461.688C400.513 459.523 398.039 457.319 398.248 455.239C398.188 455.851 401.653 454.195 400.028 452.027C402.86 456.445 406.495 460.135 406.253 467.331C403.109 467.745 403.295 464.195 401.809 461.688ZM399.839 388.189C399.927 388.235 399.997 388.227 400.079 388.26C400.065 388.289 400.044 388.319 400.028 388.349C399.94 388.323 399.867 388.277 399.784 388.251C399.796 388.227 399.82 388.213 399.839 388.189ZM409.82 449.603C411.295 453.385 409.305 455.221 408.929 459.273C404.429 457.712 403.869 452.575 401.809 448.797C405.252 448.371 406.152 450.232 409.82 449.603ZM392.013 458.472C391.476 462.084 392.64 465.851 391.123 469.753C390.64 471.016 388.771 471.603 388.453 472.975C387.305 477.98 387.969 482.447 386.681 487.481C385.432 492.345 384.237 494.355 382.224 497.968C380.683 500.724 380.033 502.483 377.775 505.219C377.289 505.797 376.805 508.325 375.103 507.633C373.933 504.692 372.841 500.791 370.653 497.156C373.888 495.54 375.281 495.177 377.775 491.517C379.016 489.691 380.24 486.791 379.56 481.843C379.268 479.757 378.927 476.909 376.884 476.204C383.119 471.793 385.085 463.352 384.005 454.436C383.844 451.9 389.523 454.697 388.453 449.603C395.097 450.088 396.339 454.96 392.013 458.472ZM365.319 468.139C361.073 467.788 357.591 468.079 354.632 466.529C352.627 465.477 350.815 460.671 348.401 459.273C347.127 458.535 344.067 459.1 343.061 458.472C342.855 458.336 343.285 456.931 343.061 456.86C341.217 456.259 340.639 457.86 339.5 457.665C338.68 457.523 338.697 456.044 336.832 456.048C334.375 456.065 330.636 457.917 327.043 458.472C325.469 458.708 321.721 458.464 321.704 458.472C317.28 459.539 314.904 462.823 307.463 461.688C306.297 458.176 304.769 454.997 304.791 450.415C306.884 453.525 309.864 450.197 311.911 450.415C314.287 450.655 315.715 453.604 318.141 452.027C320.936 452.407 320.496 449.853 322.595 449.603V443.964C327.339 442.685 331.995 443.596 336.832 442.348C338.984 441.799 340.015 440.343 342.171 439.933C346.425 439.132 349.216 439.832 352.851 438.324C353.289 438.143 354.315 436.793 354.632 436.708C356.86 436.1 359.608 436.624 360.861 434.289C361.579 434.712 362.309 435.131 363.533 435.096C366.145 436.599 362.623 438.033 362.643 438.324C362.773 439.937 364.816 439.228 364.424 441.536C365.779 442.745 370.191 441.587 371.549 442.348C372.633 443.897 369.857 443.639 369.763 443.964C369.848 443.677 369.759 449.493 369.763 449.603C369.928 451.415 370.612 453.183 371.549 453.635C367.747 457.568 365.085 462.667 365.319 468.139ZM300.341 428.645C303.38 428.183 304.481 425.953 308.348 426.232C310.509 430.727 310.061 437.573 311.911 442.348C308.348 443.419 307.276 446.749 303.009 447.185C302.933 440.271 300.552 435.441 300.341 428.645ZM306.533 395.587C307.001 395.715 307.475 395.837 307.964 395.992C309.167 396.372 310.708 397.559 311.429 397.719C312.78 398.007 314.452 397.309 315.764 397.719C317.545 398.276 318.272 400.003 320.095 400.328C323.363 400.893 327.296 399.961 331.365 400.328C332.737 400.441 334.059 400.829 335.367 401.209C334.172 402.661 333.104 404.169 333.269 406.081C331.297 407.423 331.044 408.263 329.715 408.495C332.484 410.036 328.317 412.003 328.824 414.139C330.297 411.217 332.369 410.091 335.051 410.108C331.036 410.184 335.443 407.676 334.16 405.275C335.3 405.316 335.396 406.305 336.832 406.081C336.173 404.735 336.649 403.177 337.456 401.763C338.027 401.889 338.592 402.004 339.167 402.055C340.263 402.151 341.309 402.177 342.332 402.168C343.527 402.881 344.079 404.169 343.953 406.081C342.463 407.504 340.972 405.363 337.723 406.081C339.031 409.416 337.283 413.835 338.609 416.557C338.727 416.799 340.175 417.101 340.389 417.363C341.036 418.148 340.521 419.153 341.28 419.783C341.588 420.039 342.673 419.613 343.061 419.783C345.151 420.677 343.724 421.636 346.62 420.584C349.055 419.711 348.421 420.584 350.183 420.584C349.896 420.584 352.167 419.925 352.851 419.783C356.369 419.048 359.241 414.375 363.533 415.751C364.871 420.555 364.956 417.139 363.533 420.584C364.581 421.808 366.2 423.1 367.096 424.62C368.248 426.579 369.227 427.916 367.981 430.259C366.323 429.617 364.724 428.913 362.643 428.645C359.708 435.131 349.229 434.775 342.171 437.519C338.436 435.788 334.028 434.683 327.933 435.096C325.92 437.311 326.752 442.085 322.595 442.348C320.856 439.891 318.943 437.595 315.473 436.708C313.62 433.281 312.789 428.928 311.911 424.62C313.805 422.032 316.959 420.596 321.704 420.584C321.856 422.867 320.936 426.113 323.48 426.232C324.891 424.548 325.54 422.188 328.824 422.196C332.523 423.416 332.395 428.097 334.16 431.065C336.633 430.9 343.328 433.948 343.953 430.259C343.369 426.877 340.863 428.54 338.609 427.029C334.527 424.304 331.535 418.495 327.043 417.363C323.889 416.571 320.915 418.617 317.251 416.557C317.195 413.616 322.256 412.632 319.923 410.108C316.343 409.555 314.836 410.88 311.911 410.915C312.189 412.788 311.768 414.008 311.02 414.945C311.353 416.799 314.583 416.021 315.473 417.363C311.413 419.073 312.059 417.301 311.02 414.945C310.817 414.484 309.568 414.08 309.239 413.332C308.293 411.18 308.889 407.587 308.348 404.469C307.851 401.589 307.171 398.568 306.533 395.587ZM270.701 355.256C271.368 354.479 271.627 353.303 271.563 351.791C272.703 352.089 272.921 353.315 274.155 353.521C273.588 354.683 272.305 355.131 270.701 355.256ZM258.561 171.5C258.465 169.847 257.945 169.931 256.967 170.053C257.257 169.305 257.481 168.537 257.633 167.752C259.909 167.972 260.783 165.452 257.912 166.325C258.06 165.557 258.224 164.803 258.491 164.084C258.553 163.924 259.795 163.629 259.929 163.417C260.393 162.699 260.465 162.004 260.465 161.311C262.488 163.417 260.909 166.343 264.632 168.048C262.767 169.361 259.752 169.517 258.561 171.5ZM262.036 387.327C263.805 389.295 267.283 390.552 267.232 393.393C263.712 389.687 260.343 385.833 256.832 382.123C259.212 381.109 260.195 385.293 262.036 387.327ZM264.632 393.393C264.573 393.316 263.188 392.224 263.767 391.661C264.092 391.328 268.287 398.517 264.632 393.393ZM262.901 391.661C261.753 391.351 261.529 390.131 260.301 389.919C260.656 387.761 263.657 389.868 262.901 391.661ZM257.701 395.992C256.265 393.992 259.237 397.457 259.432 397.719C260.293 398.917 259.321 398.263 257.701 395.992ZM250.757 387.327C253.388 387.867 253.143 391.295 255.092 392.528C257.279 393.489 249.58 390.961 250.757 387.327ZM253.361 402.919C250.153 400.299 255.996 400.003 253.361 402.919V402.919ZM249.896 400.328C251.336 398.601 249.812 399.227 249.896 396.859C247.165 397.824 247.933 396.933 244.692 396.859C244.908 395.913 246.423 396.267 246.431 395.128C247.276 395.148 247.097 396.179 247.296 396.859C249.124 393.713 254.375 400.024 249.896 400.328ZM242.961 380.379C244.025 377.767 246.271 380.996 247.296 381.252C247.452 381.996 246.955 382.077 246.431 382.123H244.692C244.54 381.384 245.033 381.304 245.565 381.252C245.417 380.245 243.979 380.524 242.961 380.379ZM242.961 390.797C242.636 392.439 241.86 390.232 242.092 389.053C242.421 387.408 243.197 389.615 242.961 390.797ZM250.757 358.717C254.544 360.389 250.851 364.083 250.757 358.717V358.717ZM244.692 413.324C243.957 413.164 243.877 413.657 243.831 414.189C242.057 409.769 249.023 417.6 244.692 413.324ZM239.492 389.053C239.399 388.907 240.336 387.728 240.357 387.327C240.353 387.369 239.533 387.268 239.492 387.327C242.113 383.651 240.893 391.168 239.492 389.053ZM234.296 391.661C235.845 389.336 236.639 395.023 238.623 395.128C237.423 397.103 235.635 392.413 234.296 391.661ZM233.431 404.653C232.675 404.037 232.257 402.885 231.692 402.055C229.691 399.121 237.804 408.259 233.431 404.653ZM229.091 409.859C228.361 409.695 228.277 410.193 228.231 410.724C227.964 409.34 226.567 407.832 226.5 407.253C226.111 404.371 227.293 409.395 229.961 409.859C229.8 410.839 229.091 410.336 229.091 409.859ZM219.56 406.385C219.708 405.384 219.375 404.849 218.699 404.653C220.329 402.679 224.609 405.575 225.631 408.993C223.372 411.745 223.604 404.709 219.56 406.385ZM210.895 403.789C213.183 403.531 213.128 405.604 213.495 407.253C212.228 406.503 210.743 405.955 210.895 403.789ZM198.269 388.527C198.244 388.479 198.244 388.428 198.223 388.383C198.244 388.395 198.269 388.408 198.295 388.424L198.269 388.527ZM191.82 380.379C192.243 379.793 189.144 379.704 190.089 380.379C189.436 379.919 189.337 379.708 190.089 379.515C190.023 379.535 193.251 378.336 191.82 380.379ZM180.348 347.967C180.027 347.292 180.208 346.224 179.689 345.712C178.516 344.569 176.207 343.648 175.367 342.251C174.983 341.627 175.764 340.259 175.367 339.651C174.205 337.908 171.893 336.803 171.028 335.32C170.791 334.919 170.681 334.519 170.619 334.117C173.256 337.417 176.367 340.167 180.576 341.487C180.863 342.149 180.251 343.336 180.555 343.981C180.647 344.176 181.412 345.083 182.099 346.117C181.652 346.844 181.04 347.443 180.348 347.967ZM178.824 363.913C176.785 366.712 175.325 360.869 178.824 363.913V363.913ZM177.093 369.987C176.076 369.857 176.645 368.963 176.22 368.252C174.497 365.377 177.992 368.963 177.959 369.123C178.043 368.675 176.481 369.912 177.093 369.987ZM164.957 356.121C165.811 353.463 167.271 357.113 168.428 356.995C167.575 359.645 166.115 355.991 164.957 356.121ZM161.497 352.656C162.345 349.992 163.801 353.648 164.957 353.521C164.113 356.181 162.644 352.525 161.497 352.656ZM159.767 334.367C159.691 333.083 160.923 333.772 161.721 334.507C161.151 334.388 160.441 334.388 159.767 334.367ZM156.292 328.389C158.512 328.471 157.529 331.767 159.757 331.856C158.525 334.135 156.465 330.024 156.292 328.389ZM153.696 344.848C155.22 345.633 155.123 348.047 157.157 348.321C155.993 350.545 151.581 346.109 153.696 344.848ZM164.088 338.787H162.357V337.051H164.088V338.787ZM164.891 139.511C164.983 140.84 165.119 142.329 164.957 143.781C164.92 143.773 164.899 143.781 164.865 143.777C163.176 143.123 162.067 141.937 161.607 140.151C162.556 139.805 163.671 139.607 164.891 139.511ZM144.153 341.381C143.009 340.867 142.992 341.584 142.417 340.517C140.797 337.472 137.379 335.857 136.357 331.856C139.244 330.188 139.809 333.864 140.688 334.456C141.363 334.899 141.472 333.472 142.417 334.456C144.089 336.16 143.279 335.421 141.556 335.32C141.835 335.337 142.283 337.029 142.417 337.051C142.904 337.132 143.647 336.376 143.288 336.187C145.888 337.595 147.217 340.412 147.627 343.117C147.255 345.561 145.027 341.779 144.153 341.381ZM135.931 325.908C134.491 323.548 133.419 321.151 132.027 318.851C130.832 316.879 127.973 315.549 128.552 312.78C133.005 314.676 133.317 320.223 135.487 324.055C135.732 324.485 136.036 324.865 136.323 325.271C136.179 325.477 136.056 325.693 135.931 325.908ZM130.152 198.616C130.211 198.476 130.236 198.304 130.279 198.16C132.093 197.629 134.195 196.797 134.617 199.245C130.481 198.836 129.704 199.616 132.027 201.849C130.329 201.545 129.096 202.073 127.944 202.851C128.653 201.023 129.733 199.684 130.152 198.616ZM127.391 216.463C127.451 216.775 127.505 217.071 127.56 217.373C125.917 218.071 124.348 216.248 127.391 216.463ZM123.795 221.823C125.459 221.375 123.444 221.096 122.199 221.131C122.555 221.029 123.001 221.017 123.356 220.916H125.96C126.04 222.027 124.956 221.963 123.795 221.823ZM123.356 318.851H121.625V315.385C123.179 315.267 123.448 316.449 125.087 316.249C124.344 316.951 124.58 318.632 123.356 318.851ZM130.747 195.788C131.52 196.02 132.253 196.277 132.887 196.644C131.967 196.531 131.207 196.585 130.624 196.817C130.684 196.488 130.713 196.139 130.747 195.788ZM128.856 212.161C128.823 211.945 128.797 211.689 128.759 211.481C129.249 211.421 129.813 211.444 130.287 211.376H132.887C132.803 212.9 130.549 212.249 128.856 212.161ZM137.223 214.845C135.968 216.193 133.841 216.669 131.156 216.584C132.415 215.239 134.541 214.761 137.223 214.845ZM138.535 328.195C139.852 329.837 141.076 331.505 141.556 333.585C140.24 332.387 139.168 330.921 138.172 329.436C138.375 329.069 138.492 328.656 138.535 328.195ZM117.16 281.288C117.375 281.124 117.595 280.959 117.809 280.803C117.944 281.027 118.067 281.267 118.156 281.587C117.793 281.465 117.497 281.393 117.16 281.288ZM114.687 305.851C114.231 305.44 114.467 304.495 114.273 303.859C115.235 304.576 117.227 304.861 114.687 305.851ZM490.841 302.388C492.981 300.987 488.023 305.361 486.508 305.851C484.595 307.496 488.8 302.356 490.841 302.388ZM459.661 460.881C459.383 460.776 459.091 459.476 458.771 459.273C455.837 457.445 450.435 458.776 447.197 457.665C442.765 456.133 430.968 444.281 431.183 442.348C431.167 442.495 432.825 440.951 432.96 440.736C434.084 438.959 434.417 437.359 437.413 437.519C437.857 440.093 440.815 441.837 442.752 444.771C444.184 446.936 444.255 448.311 445.419 449.603C447.413 451.805 453.473 456.944 456.099 457.665C458.2 458.24 462.584 459.743 464.111 456.86C461.088 458.404 459.857 456.669 457.88 456.048C453.101 454.551 452.576 454.972 450.76 452.027C448.213 447.868 444.985 441.36 443.643 437.519C441.861 436.181 439.503 435.345 439.195 432.677C440.896 430.732 439.751 426.201 440.081 423.003C439 421.837 436.527 421.921 436.523 419.783C439.219 418.093 438.245 415.063 439.195 412.527C440.612 408.723 442.364 405.224 443.643 401.24C444.555 398.408 445.193 395.144 446.315 392.38C446.737 391.328 448.903 389.387 448.979 389.155C450.013 386.095 449.493 382.591 450.76 379.484C453.6 379.004 453.512 380.996 455.208 379.484C455.609 375.943 453.457 375.956 452.541 375.453C454.623 372.591 454.399 369.241 455.208 365.779C455.473 364.673 456.605 363.82 456.989 362.559C458.011 359.207 458.792 354.589 459.661 352.884C460.979 350.297 461.869 348.237 462.629 346C464.933 344.299 467.099 342.277 469.172 339.651C468.976 339.9 467.989 339.352 468.303 338.787C468.472 338.503 469.779 338.199 470.036 337.92C471.501 336.337 471.232 335.363 472.64 334.456C474.516 333.236 474.904 331.217 476.101 330.125C476.672 329.592 478.145 329.691 478.703 329.255C480.163 328.128 479.817 325.485 479.573 325.785C480.472 324.693 482.437 324.187 483.036 323.185C483.725 322.041 483.076 320.323 483.907 318.851C484.612 317.601 486.92 316.976 487.372 315.385C488.352 311.932 487.613 312.649 489.112 311.045C489.715 310.396 489.372 309.168 489.969 308.451C490.208 308.167 491.475 308.737 491.703 308.451C492.383 307.627 492.708 306.028 493.443 304.984C494.291 303.751 495.287 302.883 496.041 301.52C492.383 301.667 496.06 300.185 496.041 298.923C493.357 298.464 494.113 300.953 492.573 300.649C492.357 300.607 492.597 299.307 491.703 299.784C489.825 300.785 486.469 305.685 484.776 304.115C486.317 304.44 484.653 302.507 484.776 302.388C487.111 300.059 487.257 302.452 489.112 300.649C489.369 300.388 488.943 299.273 489.112 298.923C489.248 298.611 490.639 298.424 490.841 298.053C491.437 296.952 490.964 295.529 491.703 294.584C493.763 291.975 497.908 292.305 496.904 289.384C494.291 291.696 489.099 295.989 484.776 293.719C488.192 292.229 492.56 291.68 495.172 289.384C492.716 288.667 492.923 290.604 490.841 290.253C491.112 288.215 493.527 288.311 494.304 286.788C492.417 286.141 490.964 288.885 489.112 289.384C489.208 289.355 487.964 287.543 487.372 287.653C487.263 287.675 486.115 289.181 485.639 289.384C484.115 290.041 481.255 289.887 479.573 290.253C479.437 290.283 479.285 290.351 479.145 290.397C479.757 287.983 480.408 285.601 481.133 283.289C482.055 282.719 483.028 282.199 483.907 281.587C483.252 281.271 482.569 281.128 481.889 281.056C482.885 278.219 484.028 275.515 485.476 273.091C485.524 272.596 485.612 272.14 486.363 272.289C485.3 267.744 486.968 262.847 488.521 258.22C494.425 255.717 499.559 253.848 499.508 246.913C499.453 239.985 494.016 236.477 486.508 237.381C485.941 237.453 484.815 239.145 483.036 239.981C481.417 240.741 479.159 241.087 477.841 241.716C475.175 242.987 472.068 244.579 468.867 246.212C469.323 242.971 469.341 239.56 470.341 236.828C471.349 234.077 475.499 231.1 472.123 227.96C472.355 234.984 465.736 239.555 467.989 246.655C461.451 249.989 454.596 253.416 450.109 254.717C449.435 251.455 451.164 250.568 450.972 247.787C449.324 247.592 449.055 248.756 447.511 248.651C446.227 246.179 447.751 246.427 447.511 245.177C447.437 244.873 446.675 245.233 446.636 244.312C446.593 243.249 447.669 240.952 447.511 239.981C447.235 238.403 445.88 237.188 445.771 235.651C445.661 234.123 446.636 232.853 446.636 231.311C446.636 222.187 443.787 215.001 444.036 208.827C446.733 209.996 450.607 208.624 449.924 205.255C446.151 204.851 444.495 206.424 443.471 208.573C440.021 207.392 440.197 204.099 439.7 200.119C439.485 198.341 439.271 196.688 438.831 194.915C438.949 195.353 438.117 195.923 437.973 194.915C437.805 193.829 438.959 192.804 438.831 192.313C438.805 192.163 437.333 191.044 437.101 190.583C435.716 187.805 434.404 184.852 433.639 182.783C432.171 178.807 434.319 179.467 434.5 176.709C431.225 177.968 432.837 174.328 430.169 174.973C429.401 177.764 433.024 176.169 432.765 178.448C430.253 180.179 434.619 186.908 432.765 187.979C428.819 189.288 430.027 180.969 428.435 182.783C427.307 184.936 430.368 186.987 428.435 187.119C424.703 185.484 428.869 181.331 425.835 179.313C426.283 176.924 431.639 174.012 427.571 172.383C427.427 173.671 427.883 175.579 426.704 175.844C426.16 171.695 425.539 174.616 423.24 174.973C423.057 172.488 423.459 170.581 424.969 169.783C426.257 169.976 425.907 170.66 426.704 169.783C425.675 170.921 427.139 167.929 427.571 167.175C428.279 165.908 428.945 164.603 429.305 163.712H425.835C425.367 167.58 423.788 170.336 421.5 172.383C420.783 170.116 424.117 167.621 421.5 166.308V168.917C419.247 165.68 418.508 169.741 416.3 168.917C415.607 168.651 415.591 166.343 414.569 166.308C414.248 166.305 413.424 168.917 411.965 168.048C412.248 166.009 413.336 164.799 412.839 161.977C407.976 162.493 406.828 155.676 403.3 157.647C403.096 157.385 402.961 157.144 402.839 156.909C403.987 155.563 404.64 153.764 404.755 151.464H402.607C402.139 153.16 400.792 154.043 399.719 155.175C399.095 151.396 395.92 152.503 396.368 155.047C395.929 154.861 395.508 154.635 395.097 154.393C395.979 150.328 396.521 146.416 397.588 142.836C398.208 140.751 399.383 138.848 399.737 136.86C400.104 134.837 399.551 132.929 399.737 130.883C400.235 125.589 402.835 119.249 403.324 114.281C403.552 111.964 402.971 109.769 403.324 107.641C404.017 103.513 406.659 100.179 406.191 96.3507C406.033 95.84 405.595 95.5827 404.755 95.688C402.429 101.34 402.877 107.899 401.889 114.281C400.833 121.132 399.145 128.805 397.588 134.861C396.536 138.953 395.719 143.105 394.721 147.487C394.275 149.441 393.717 151.324 393.177 153.241C392.013 152.579 391.205 152.421 391.168 154.183C388.628 150.42 389.907 154.253 387.703 155.047V152.447C384.664 152.341 379.915 153.337 379.028 154.183C377.628 155.52 376.217 156.14 374.697 156.783C372.787 157.592 370.76 157.943 368.864 158.331C369.131 157.477 369.245 156.583 369.625 156.115C371.347 154.043 374.74 153.261 376.083 150.805C375.896 148.315 374.956 146.529 373.212 145.491C371.709 148.116 368.679 149.679 370.341 153.46C369.46 154.693 367.531 156.956 367.227 158.691C366.5 158.876 365.8 159.091 365.167 159.377C363.833 159.989 362.964 161.548 361.7 161.977C360.407 162.416 358.7 161.657 357.367 161.977C356.932 162.092 355.505 163.46 354.765 163.712C351.112 164.967 347.524 163.575 345.236 163.712C340.145 164.008 338.803 167.765 336.565 170.643C335.472 172.053 334.523 173.729 332.231 174.973C329.313 176.565 325.271 175.515 322.695 177.58C323.025 176.621 320.56 175.748 320.965 174.973C321.032 174.857 323.281 174.789 322.695 174.105C321.835 173.117 319.673 173.932 317.496 172.383C317.251 170.687 316.237 169.736 315.136 169.065V168.069C315.097 167.664 315.029 167.284 314.423 167.407C314.491 167.964 314.22 168.208 313.857 168.364C313.62 168.259 313.376 168.144 313.165 168.048C312.852 167.909 312.671 166.503 312.304 166.308C311.611 165.959 310.391 166.641 309.695 166.308C309.365 166.148 309.264 164.725 308.829 164.579C304.639 163.164 301.553 164.959 296.779 164.583V154.617C297.239 149.911 296.159 145.951 296.779 141.721C297.1 139.539 298.463 137.412 298.56 135.276C298.864 128.839 296.547 122.272 297.669 114.315C297.707 113.459 297.251 112.272 296.779 113.508C297.652 125.965 293.068 133.773 295.888 146.551V164.476C292.043 163.979 290.84 162.531 288.899 161.113C287.983 161.919 288.615 164.269 286.332 163.717C286.383 163.269 286.268 162.844 285.981 162.535C285.636 161.236 285.863 161.611 287.155 160.248C284.537 159.285 281.253 160.543 278.228 161.244C278.776 159.935 279.321 158.619 280.004 157.44C280.047 157.035 280.115 156.66 280.723 156.783C279.583 151.797 282.335 146.309 283.592 141.507C281.415 140.763 282.377 143.452 282.157 144.161C281.828 145.225 281.031 146.408 280.723 147.483C279.337 152.283 279.485 156.339 276.417 158.108C277.379 158.547 277.755 159.529 277.852 160.767C275.597 160.024 275.961 160.455 274.273 161.429C274.264 161.468 274.264 161.515 274.264 161.556C273.559 161.437 272.913 161.176 272.331 160.729C272.551 159.619 272.905 158.517 273.551 157.44C275.209 157.656 276.299 157.335 277.135 156.783C277.244 155.136 277.273 153.557 275.699 153.46C273.636 155.005 272.551 157.467 271.816 160.251C271.397 159.8 271.013 159.251 270.701 158.513C266.016 158.145 273.272 161.108 269.832 161.977C267.197 160.847 264.835 159.463 262.036 158.513C261.389 161.472 265.219 159.944 265.497 161.977C266.092 163.507 266.447 164.667 265.497 165.452C263.847 164.52 262.825 158.761 260.473 160.985C260.436 160.028 260.284 159.079 260.647 158.108C261.044 157.028 262.336 156.516 262.796 155.457C263.788 153.156 263.455 150.413 264.231 148.145C264.673 146.867 265.509 146.804 265.667 145.491C265.889 143.587 266.109 140.885 264.948 138.852C266.016 141.017 261.247 146.471 263.513 148.145C263.969 148.488 262.796 148.977 262.796 148.812C262.767 150.193 263.108 151.751 262.796 152.793C262.508 153.755 261.103 153.979 260.647 154.791C259.592 156.672 260.175 158.897 258.491 160.1C257.363 160.044 257.933 158.408 256.341 158.769C255.48 160.135 253.885 160.821 254.055 163.139C253.843 163.033 253.661 162.919 253.361 162.844C253.361 165.731 254.813 165.321 254.961 164.401C256.236 164.696 256.869 163.54 257.777 164.748C257.693 165.292 257.44 165.955 257.148 166.651C256.772 166.803 256.435 166.916 255.963 167.175C256.257 167.36 256.515 167.419 256.785 167.52C256.401 168.436 256.037 169.357 255.975 170.112C255.468 170.112 254.889 170.04 254.227 169.783C252.517 172.315 253.928 172.585 251.627 174.105C248.625 174.801 247.968 173.151 246.431 172.383C246.639 176.265 240.995 170.867 240.357 174.973C238.892 173.864 237.128 173.429 235.144 173.315C235.397 172.999 235.676 172.716 235.553 172.057H234.119C234.093 172.644 233.675 172.872 233.481 173.304C230.365 173.379 226.816 173.977 223.021 174.105C223.081 172.071 221.316 172.159 220.421 170.643C219.94 169.812 220.197 167.487 219.56 166.308C219.18 165.629 218.139 165.612 217.829 164.579C217.083 162.117 217.728 159.065 216.96 156.783C216.369 155.027 214.12 153.417 213.495 151.583C212.735 149.345 213.845 148.812 213.495 148.121C213.119 147.364 211.033 147.436 210.895 146.377C212.723 142.228 207.041 138.899 203.089 137.703C204.588 136.204 203.052 135.652 202.229 135.107C200.427 133.913 199.671 134.208 197.899 133.376C196.273 132.617 195.543 130.025 194.424 129.907C190.516 129.857 184.704 130.975 182.297 130.777C182.087 130.76 181.871 130.696 181.656 130.633C181.656 130.481 181.652 130.329 181.685 130.191C182.593 126.425 186.055 122.483 188.136 120.237C189 119.3 190.871 118.156 191.719 116.911C192.116 116.336 191.871 114.657 192.441 113.588C192.765 112.972 194.353 112.108 194.589 111.596C194.935 110.845 194.268 109.705 194.589 108.945C195.603 106.561 197.961 104.747 196.737 102.303C189.869 99.3854 189.257 107.671 188.136 112.259C184.831 112.073 184.273 114.441 183.116 116.244C183.379 117.772 186.257 116.885 185.983 118.903C185.675 123.613 180.588 126.108 179.592 129.735C178.103 128.979 176.608 128.345 175.367 129.907C178.035 131.267 172.572 130.544 171.893 130.777C171.576 130.891 170.749 132.216 170.159 132.512C168.136 133.516 166.672 133.943 165.756 135.137C164.696 135.529 163.856 136.323 163.759 137.492C162.864 136.103 161.673 135.001 160.171 134.171C159.124 136.083 156.491 136.521 155.875 138.817C154.832 139.185 152.168 138.049 152.287 139.484C153.097 139.624 153.401 140.219 153.721 140.813C150.573 140.337 150.852 143.033 150.852 145.467C152.088 145.728 152.692 144.481 153.004 145.467C151.679 146.099 151.679 146.901 152.025 147.871C151.205 149.193 150.86 152.296 150.227 153.312C149.961 153.739 148.175 153.147 148.488 154.183C148.611 154.587 151.637 153.819 151.092 155.047C148.615 157.195 150.193 163.388 146.757 164.579C148.673 164.693 147.128 168.249 147.627 169.783C144.579 173.375 139.848 175.287 137.223 179.313C138.936 180.592 136.847 179.115 136.357 179.313C134.605 180.031 133.723 183.416 132.027 183.648C142.629 179.841 137.931 186.48 131.156 187.979C132.097 188.187 133.241 189.403 132.027 189.713C131.571 189.748 131.113 189.819 130.655 189.865C130.456 187.717 130.185 185.784 130.152 184.665C130.123 183.328 131.093 182.408 130.877 181.348C130.573 179.905 129.755 177.672 129.443 177.367C124.841 172.923 127.112 165.645 127.289 160.1C127.349 158.331 126.539 156.549 126.572 154.791C126.615 152.524 127.991 150.464 128.008 148.145C128.025 145.681 126.733 142.705 126.572 140.181C126.521 139.361 127.295 139.236 127.289 138.185C127.281 137.231 126.357 136.999 126.572 135.533C126.805 133.96 127.901 132.904 128.008 131.549C128.067 130.663 127.167 130.291 127.289 128.893C128.008 120.132 125.923 109.795 127.289 100.339C127.573 98.3721 128.649 96.8614 128.725 95.0254C128.776 93.6868 128.168 92.488 128.008 91.0454C127.577 87.2841 128.615 83.5014 128.725 79.7534C128.792 77.2214 127.476 74.5067 128.725 72.4507C126.847 72.2747 126.969 74.452 126.572 75.7694C126.083 77.3894 126.699 79.7961 125.137 80.42C125.72 82.4641 126.399 83.2067 126.572 85.0681C126.864 88.2081 125.2 89.5467 125.137 91.0454C125.087 92.2014 125.753 93.868 125.855 95.0254C126.193 99.0388 126.379 102.985 126.572 104.987C127.365 113.18 125.387 120.093 125.137 124.905C124.791 131.608 125.652 138.236 125.137 144.161C125.061 145.027 124.479 145.083 124.42 146.149C124.04 153.799 124.437 162.476 122.993 168.069C122.935 168.272 121.664 169.085 121.549 169.395C121.035 170.851 121.499 173.24 120.832 174.708C120.587 175.269 119.008 175.912 118.679 176.704C118.443 177.288 119.143 179.769 118.679 180.677C118.595 180.867 117.413 180.533 117.252 180.677C116.459 181.416 117.907 184.661 117.961 185.328C118.172 187.625 117.936 190.137 117.852 192.416C114.184 193.299 110.74 194.053 107.755 194.044C110.52 194.977 114.159 195.036 117.903 194.991C117.924 195.307 117.916 195.661 117.961 195.953C118.553 199.427 120.263 201.481 121.549 203.263C121.853 203.677 122.052 204.285 122.267 204.592C122.545 204.981 122.833 205.488 123.115 205.944C122.904 206.02 122.715 206.117 122.487 206.176C119.684 206.919 113.757 207.096 112.96 207.041C108.832 206.797 104.057 203.631 101.695 207.041C109.807 208.135 120.039 207.032 123.356 208.784C121.625 211.097 114.273 207.788 113.821 211.376C116.823 212.764 118.435 210.181 120.756 212.249C115.353 213.36 110.372 213.66 107.755 213.98C106.063 214.192 102.691 213.001 103.424 214.845C109.224 216.373 112.416 213.804 114.687 215.711C114.091 215.213 111.719 216.349 112.091 216.584C114.239 217.935 116.353 215.225 117.291 218.319C117.675 216.884 123.837 216.884 124.225 218.319C120.832 217.357 121.017 219.683 119.895 220.051C119.828 220.072 119.751 220.088 119.684 220.105C118.857 219.593 117.961 219.155 116.535 219.201C116.32 219.885 115.817 220.304 115.285 220.704C111.555 220.916 108.144 220.809 111.225 222.649H101.695C101.863 224.427 100.783 224.951 99.3307 225.103C98.748 224.339 97.9547 223.768 97.1774 223.183C96.3667 223.448 95.8734 224.288 95.776 225.179C94.5854 225.221 93.5267 225.395 93.024 226.12C96.4347 226.757 98.824 228.404 101.695 229.581C101.019 229.775 99.98 229.601 99.9547 230.455C106.704 230.831 114.728 227.901 120.756 230.455C119.351 234.524 118.755 239.42 114.687 240.847C116.667 242.037 117.949 238.605 118.156 240.847C118.797 243.857 113.576 245.439 116.421 247.787C117.56 247.495 119.271 247.12 121.625 246.043V249.517C119.988 249.691 113.056 248.933 115.556 250.381C118.249 250.299 120.368 250.765 121.625 252.117C119.819 252.624 118.823 253.936 117.291 254.717C116.147 256.887 120.723 257.423 118.156 258.183C116.045 257.051 113.749 256.105 111.225 254.717C109.241 253.628 106.992 250.555 105.155 252.117C106.176 252.543 107.123 253.036 107.755 253.852C104.193 255.932 102.083 252.189 99.9547 253.852C102.699 252.597 102.944 256.996 103.424 257.317C103.973 257.676 105.384 257.123 106.025 257.317C106.349 257.415 107.308 258.9 107.755 259.052C110 259.777 113.833 258.744 114.687 261.647C110.469 259.313 114.332 262.753 112.96 263.387C111.824 262.141 106.556 260.609 106.025 261.647C107.029 261.792 106.967 263.02 106.887 264.252C110.584 264.287 113.011 264.881 114.687 265.987C116.055 266.877 117.877 269.115 118.156 270.313C116.121 270.039 114.905 268.951 112.091 269.448C111.756 268.123 111.048 269.325 112.091 270.313C114.775 270.229 116.893 270.709 118.156 272.048C111.267 274.724 106.788 267.949 101.695 265.987C100.723 268.937 104.223 269.148 106.025 270.313C107.908 271.537 111.099 272.943 112.091 273.783C112.381 274.032 111.169 275.42 112.091 276.379C112.381 276.699 115.328 277.573 113.821 276.379C113.816 275.24 112.305 275.593 112.091 274.648H115.556C114.788 278.187 115.636 278.877 116.593 279.575C116.573 279.591 116.552 279.604 116.535 279.621C115.893 280.216 115.585 280.52 115.303 280.751C113.091 280.183 111.343 279.861 109.485 278.983C107.072 277.84 103.496 274.72 102.556 275.515C103.383 277 105.433 277.261 106.025 278.983C104.48 279.499 102.42 276.447 101.695 278.983C103.196 280.773 105.772 278.472 107.755 278.983C107.852 279.004 109.107 280.499 109.485 280.723C110.457 281.28 111.795 281.659 112.989 282.137C112.111 282.993 111.419 284.509 110.795 284.935C112.263 284.745 113.572 283.993 114.796 283.107C115.581 283.741 115.977 284.601 115.556 285.917C113.099 287.113 111.212 283.685 110.397 285.847C110.288 285.767 110.179 285.691 110.085 285.597C109.056 284.601 107.587 286.577 105.78 284.935C106.109 287.688 102.428 286.699 100.761 287.593C100.791 286.679 100.419 286.135 100.044 285.597C93.632 284.901 88.9294 282.617 82.1173 282.28C81.8107 283.551 80.0707 283.479 80.6867 285.597C84.988 285.467 87.524 287.78 93.5893 287.593C94.3067 288.476 94.2694 290.059 95.7427 290.245C95.772 289.333 95.4 288.793 95.0253 288.26C101.609 288.755 105.751 286.863 111.512 287.593C111.609 286.644 111.052 286.307 110.524 285.944C112.597 285.821 112.605 287.776 112.96 289.384C111.368 289.629 107.409 286.611 109.485 288.519C109.731 290.296 112.72 289.333 112.96 291.119C112.985 291.849 112.964 292.76 112.947 293.709C111.951 293.521 110.972 293.385 110.085 293.572C107.912 294.023 106.583 295.952 105.78 296.888C102.547 300.653 99.432 304.879 100.761 310.172C107.047 309.129 110.465 305.436 112.947 300.873C113.576 300.953 114.036 300.932 114.408 300.857C114.112 301.667 113.732 302.431 113.821 303.249C113.825 303.296 113.867 303.329 113.884 303.372C113.673 303.257 113.403 303.195 112.96 303.249C112.541 303.305 108.992 306.884 111.225 307.581C111.233 306.711 112.74 306.491 112.96 307.581C110.448 309.235 110.103 311.996 110.36 315.385C110.503 317.416 114.535 320.193 111.225 322.32C110.491 318.715 110.035 314.84 108.625 311.916C108.232 313.621 105.4 317.276 107.755 318.851C107.967 317.521 109.183 318.728 109.485 319.72C107.553 322.396 112.808 325.305 108.625 327.516C111.161 327.58 110.52 330.821 113.821 330.125C114.923 327.481 110.861 325.705 112.96 324.92C114.923 328.701 114.632 322.739 117.291 322.32C116.155 322.307 116.189 319.917 117.291 319.72C119.625 318.905 118.291 321.501 119.025 322.32C119.908 323.3 121.331 322.265 121.625 324.055C121.639 324.127 120.056 324.869 120.756 325.785C122.9 324.667 124.96 327.727 125.087 325.785C123.925 325.216 123.479 323.932 123.356 322.32C124.225 322.32 124.387 321.62 125.087 321.455C126.015 322.544 126.311 323.1 128.552 324.055C128.505 324.029 128.743 321.876 129.417 322.32C129.7 322.505 129.185 323.813 129.417 324.055C129.688 324.312 130.937 323.759 131.156 324.055C131.409 324.388 130.861 325.499 131.156 325.785C131.941 326.545 133.056 326.659 133.756 327.516C136.551 330.961 134.567 332.692 135.487 336.187C136.796 336.849 137.513 337.641 138.957 338.787C140.451 339.964 140.585 341.259 141.556 342.251C142.165 342.872 143.503 342.523 144.153 343.117C145.208 344.075 144.279 345.055 145.888 345.712C145.812 345.688 146.833 344.196 147.627 344.848C148.901 349.52 153.823 349.689 156.292 353.521C157.605 355.564 155.723 359.397 159.757 359.591C160.104 358.096 158.475 357.367 159.757 356.995C162.139 357.021 161.987 359.351 163.227 360.461C164.392 361.495 165.684 361.668 166.693 363.056C167.259 363.824 166.895 364.175 167.557 364.779C167.245 364.496 168.149 363.479 168.428 363.913C169.137 365.091 170.884 369.857 175.367 369.123C173.915 370.849 175.435 370.228 175.367 372.587C178.785 371.928 178.853 375.449 179.689 376.048C179.233 375.724 180.2 375.175 180.555 375.184C182.525 375.289 183.48 378.475 185.4 379.349C183.825 379.511 182.593 382.101 183.927 383.216C185.996 383.613 185.809 381.109 186.08 380.557C186.084 380.548 186.109 380.54 186.117 380.531C186.881 382.493 188.472 383.617 189.228 385.583C190.925 385.841 190.951 384.419 191.82 383.853C191.989 387.053 194.167 385.656 196.16 386.457C196.303 386.517 196.548 386.796 196.817 387.108C196.624 387.816 196.404 388.513 196.117 389.189C195.636 390.345 194.589 390.704 193.972 391.844C193.403 392.881 192.765 394.152 192.529 395.161C192.547 395.107 193.373 395.275 193.247 395.824C192.765 398.048 191.508 401.104 191.099 402.468C184.129 404.084 184.147 413.181 189.667 413.755C193.159 414.123 195.999 410.673 196.117 407.115C196.201 404.544 192.309 402.864 193.972 399.812C203.208 401.075 201.047 395.069 201.047 390.141C202.473 391.083 203.757 392.041 203.96 392.528C203.888 392.359 201.697 392.912 202.229 393.393C203.052 394.136 204.917 393.516 205.699 394.249C207.24 395.74 208.755 396.487 209.16 398.588C207.117 398.323 207.548 395.583 204.829 395.992C207.375 401.304 202.804 399.044 201.36 399.459C202.533 400.205 204.467 402.544 205.699 404.653C206.071 405.296 205.403 406.563 205.699 407.253C206.753 409.775 208.468 407.865 208.295 409.859C208.281 410.02 206.564 408.993 206.564 408.993C206.145 409.175 206.492 411.665 205.699 411.581C209.193 412.78 208.763 410.036 210.029 408.993C215.517 407.276 217.94 413.172 221.291 410.724C218.269 410.577 217.492 408.167 215.225 407.253C218.463 407.331 217.695 408.229 220.421 407.253C217.965 409.825 224.148 408.627 223.891 411.581C228.251 411.281 231.451 412.121 234.296 413.324C234.489 411.687 233.316 411.416 233.431 409.859C234.667 410.193 234.891 410.901 236.027 409.859C239.597 413.053 244.271 416.799 246.431 420.255C247.849 420.179 250.196 421.703 248.167 420.255C248.153 419.111 246.639 419.467 246.431 418.52C250.593 418.119 250.319 422.145 252.497 423.729C251.225 423.737 249.749 420.073 249.896 423.729C252.568 424.328 251.564 424.328 254.227 423.729C254.595 425.447 257.836 428.7 258.561 427.191C255.861 427.405 257.136 424.236 255.963 422.856C255.624 422.467 253.776 422.303 253.361 421.999C252.632 421.428 252.324 420.023 251.627 419.385C250.061 417.968 247.655 417.411 247.296 415.055C249.541 416.275 251.297 417.984 253.361 419.385C253.285 415.759 245.088 414.785 249.896 411.581C248.609 410.564 246.027 410.839 246.431 408.12C248.752 408.723 248.103 406.329 249.027 405.52C247.731 404.975 246.481 404.497 245.565 403.789C245.275 403.569 245.819 402.328 245.565 402.055C245.013 401.48 242.743 402.544 242.961 401.189C243.004 399.999 242.552 399.285 242.092 398.588C243.181 400.193 245.549 400.223 246.431 401.189C247.073 401.899 246.545 403.181 247.296 403.789C248.052 404.405 249.233 404 249.896 404.653C250.369 405.127 250.369 406.752 250.757 407.253C253.193 410.387 256.224 411.02 258.561 413.324C259.052 413.813 259.019 415.405 259.432 415.92C260.9 417.76 263.94 419.555 265.497 420.255C266.384 420.647 267.941 425.025 268.971 421.999C268.004 421.399 264.463 419.111 266.363 418.52C267.337 418.44 267.713 419.783 268.097 418.52C266.464 416.972 264.084 416.183 262.901 414.189C266.277 414.245 263.273 413.041 262.901 412.455C262.361 411.628 262.656 411.353 262.036 410.724C262.395 411.087 260.824 411.687 260.301 410.724C259.689 409.609 261.771 409.812 260.301 408.993C260.529 409.116 259.347 410.153 258.561 409.859C258.368 409.783 258.723 408.309 258.561 408.12C256.629 405.887 257.929 411.496 256.832 409.859C255.823 408.572 255.823 407.672 256.832 406.385C254.663 406.499 254.117 408.044 253.361 405.52C255.468 404.653 251.665 401.688 255.963 402.055C257.684 404.055 255.743 403.017 255.092 404.653C256.232 405.764 258.292 405.764 259.432 404.653C261.323 407.96 264.517 409.969 268.971 410.724C270.461 412.712 273.892 417.308 275.897 415.92C272.023 412.615 266.869 407.815 263.767 403.789C263.137 402.977 261.133 401.48 262.036 400.328C264.244 402.94 265.885 405.363 268.971 407.253C268.764 407.14 269.257 405.941 269.832 406.385C270.183 406.668 272.685 411.087 273.293 408.12C272.339 407.537 268.803 405.245 270.701 404.653C272.272 405.74 275.741 409.368 276.763 408.12C274.424 406.14 271.765 404.355 270.701 402.055C268.405 397.124 273.533 399.981 270.701 397.719C270.221 397.335 271.5 396.532 271.563 396.859C271.027 394.195 269.651 394.237 269.832 392.528C269.865 392.197 272.972 392.84 272.424 391.661C272.153 391.041 268.464 392.32 268.971 390.797C270.685 388.687 272.668 392.252 273.293 389.053C271.749 388.636 273.673 388.133 274.155 387.327C269.849 387.103 270.473 386.964 267.232 386.457C266.641 385.495 264.349 381.963 263.767 383.853C264.636 383.861 264.856 385.368 263.767 385.583C261.783 382.639 256.869 378.067 258.561 374.323C258.419 376.488 259.896 377.036 261.163 377.792C262.605 374.352 259.711 373.736 258.561 370.853C258.659 371.101 259.555 370.579 259.432 369.987C259.377 369.748 257.912 368.881 257.701 368.252C257.296 367.125 257.38 365.145 256.832 363.913C257.972 363.909 257.621 362.393 258.561 362.188C260.537 361.001 261.821 364.42 262.036 362.188C261.635 361.144 261.331 358.996 261.588 356.895C261.74 356.895 261.884 356.885 262.065 356.916C261.989 356.624 261.855 356.392 261.736 356.139C262.095 354.268 262.927 352.533 264.632 351.791C264.636 352.66 263.927 352.816 263.767 353.521C266.092 354.328 264.767 351.74 265.497 350.921C266.139 350.203 268.363 350.828 268.097 349.183C265.932 349.292 265.384 350.845 264.632 348.321C265.831 345.265 269.317 345.409 271.563 346.585C270.245 347.46 271.807 348.528 271.563 349.183C271.487 349.397 270 348.996 269.832 349.183C268.367 350.824 270.195 352.673 269.832 355.256C269.655 356.48 267.037 357.021 268.971 358.717C265.645 358.565 268.651 359.427 268.097 361.321C266.32 360.325 263.965 362.677 266.363 363.056C266.413 362.525 266.489 362.027 267.232 362.188C270.195 366.217 276.759 361.727 277.632 368.252C273.952 368.468 272.956 365.985 268.971 366.519C267.688 369.813 272.833 366.692 271.563 369.987C272.183 372.339 267.476 369.367 268.097 371.723C272.133 374.044 276.468 376.053 278.493 380.379H281.963C283.389 381.819 284.563 384.308 286.293 385.583C286.864 386.007 288.295 385.212 288.899 385.583C289.611 386.04 289.899 387.707 290.629 388.189C292.169 389.189 295.387 389.611 297.564 390.797C298.556 391.328 299.176 392.827 300.164 393.393C301.439 394.115 302.637 394.528 303.84 394.865C303.861 395.111 303.879 395.368 303.9 395.604C304.253 399.652 305.972 403.62 306.567 409.303C306.863 412.108 307.643 417.489 307.463 418.169C306.621 421.285 302.544 422.155 301.228 423.813C300.54 424.683 301.805 426.903 299.447 426.232C296.779 419.508 299.611 407.815 290.553 406.883C285.34 408.917 288.003 414.629 286.096 418.169C285.225 419.791 283.697 420.34 282.537 421.391C280.663 423.091 280.975 422.999 278.975 423.813C277.46 424.429 276.379 427.195 275.417 427.84C282.107 426.987 286.104 417.06 292.325 423.003C294.048 422.149 293.571 419.293 294.997 418.169C296.969 418.471 297.281 420.917 297.669 422.196C298.129 423.707 298.771 426.975 298.56 427.84C297.885 430.596 286.987 438.713 285.205 439.127C281.612 439.955 277.683 437.671 274.529 438.324C271.833 438.869 270.183 441.212 269.187 442.348C265.176 446.919 261.309 452.052 262.956 458.472C270.76 457.209 275.003 452.727 278.084 447.185C281.487 447.607 281.271 445.911 282.537 444.771C284.315 443.153 285.639 441.896 286.987 440.736C287.973 439.9 289.861 439.735 290.553 439.127C291.955 437.881 292.561 435.749 294.107 434.289C295.492 432.989 297.264 431.419 299.447 431.065C301.123 437.328 300.936 444.184 302.119 450.415C303.655 458.492 307.301 466.031 310.129 471.367C309.593 475.651 303.241 478.28 306.567 483.452C313.185 482.561 307.149 475.165 311.02 472.173C316.195 476.621 319.716 482.565 327.043 485.068C328.288 488.779 330.947 489.14 334.16 490.711C335.653 491.437 335.877 493.291 338.609 492.324C342.796 486.187 336.16 488.592 334.16 487.481C334.367 487.6 333.151 485.7 333.269 485.873C332.864 485.305 332.881 484.721 332.379 484.261C326.343 484.693 325.799 483.291 322.595 481.032C321.813 480.492 320.796 479.995 319.923 479.424C317.677 477.964 317.145 476.321 315.473 474.583C312.861 471.891 309.201 468.573 309.239 464.916C316.309 463.257 322.797 461.076 331.488 460.881C334.772 465.98 338.321 471.48 342.171 477.011C348.027 485.401 353.235 495.101 364.424 497.156C366.479 504.729 358.252 504.277 357.304 509.247C355.889 516.64 364.364 518.544 366.028 526.135C366.02 525.011 367.369 525.116 367.981 524.56C368.291 524.285 367.733 523.272 367.981 522.947C370.115 520.173 372.596 518.721 375.993 518.113C375.627 525.523 372.136 529.503 371.549 535.035C369.279 535.137 368.088 536.209 367.981 538.26C369.224 539.291 368.531 542.064 369.763 543.097C367.219 540.599 364.071 545.385 366.205 547.129C368.771 547.615 368.539 544.576 368.872 543.904C369 543.651 370.435 543.38 370.653 543.097C370.928 542.751 370.456 541.881 370.653 541.485C370.768 541.249 372.216 540.941 372.44 540.684C374.672 538.032 373.765 537.24 373.325 535.035C372.397 530.411 374.5 529.493 375.993 526.973C377.049 525.2 377.564 523.664 378.669 522.14C381.476 518.257 386.508 515.113 387.572 511.664C389.451 505.523 387.171 497.596 388.453 490.711C388.661 489.623 389.94 489.095 390.232 488.293C391.211 485.7 390.4 481.831 391.123 479.424C391.515 478.14 393.396 477.192 393.797 476.204C394.339 474.849 394.553 472.548 394.688 471.367C395.401 465.137 395.713 462.507 398.248 458.472C399.643 464.292 403.735 467.915 403.585 473.781C403.531 476.019 401.835 479.231 400.919 481.843C400.084 484.228 399.808 486.267 399.133 488.293C399.036 488.592 397.491 489.473 397.352 489.905C396.257 493.295 396.791 496.731 395.576 499.576C395.097 500.715 393.36 501.065 393.797 502.801C390.669 502.656 390.868 505.519 388.453 506.021V514.079C389.509 515.281 391.817 515.332 392.907 516.497C390.868 521.604 390.121 526.88 388.453 531.009C388.167 531.709 388.065 532.693 387.572 533.423C387.137 534.052 385.976 534.416 385.791 535.035C385.847 534.851 386.749 535.956 386.681 536.648C386.436 538.919 384.625 541.751 384.005 543.904C382.996 547.381 382.748 551.08 381.337 554.384C380.739 555.787 379.437 556.221 378.669 557.601C377.965 558.863 377.176 560.408 376.884 561.632C376.907 561.56 377.927 561.767 377.775 562.439C377.176 565.136 375.609 568.841 375.103 570.5C366.455 572.464 366.475 583.501 373.325 584.201C377.661 584.644 381.191 580.457 381.337 576.139C381.439 573.021 376.609 570.985 378.669 567.276C391.429 568.984 386.66 559.761 387.572 553.579C387.841 551.679 389.577 550.688 390.232 548.737C391.012 546.467 390.357 543.853 391.123 541.485C391.78 539.464 393.891 537.915 394.688 535.843C395.263 534.356 395.12 532.571 395.576 531.009C398.116 522.327 400.821 515.328 403.585 507.633C405.415 502.547 407.305 498.335 408.929 493.932C409.364 492.743 410.204 491.817 410.707 490.711C411.139 489.769 409.584 486.635 412.479 487.481C413.801 492.657 415.164 501.044 416.941 505.219C417.571 506.704 417.191 509.473 419.604 509.247C420.399 507.169 418.251 505.433 417.828 503.607C417.415 501.804 418.279 499.816 417.828 497.968C417.013 494.589 413.825 491.428 413.375 487.481C413.139 485.388 412.699 482.729 414.269 480.231C415.675 480.303 414.961 482.287 416.941 481.843C419.101 480.311 418.541 476.313 421.391 475.393C428.929 477.66 431.36 473.105 431.183 468.94C431.079 466.58 426.936 464.617 425.839 460.881C424.459 456.188 425.556 453.916 426.729 450.415C430.528 456.687 436.008 462.033 438.304 468.94C438.895 470.733 438.36 473.591 439.195 475.393C439.307 475.664 440.655 476.563 440.972 477.011C443.855 481.032 445.145 483.456 448.979 485.068C449.924 485.461 450.883 486.431 451.651 486.68C460.168 489.403 466.024 482.967 466.783 476.204C467.419 470.548 464.677 464.92 463.22 463.305C461.571 461.469 461.548 461.659 459.661 460.881ZM504.159 406.081C504.139 403.151 501.551 402.544 497.937 402.856C498.132 404.38 496.928 404.633 497.047 406.081C498.536 407.148 500.024 408.216 503.273 407.689C503.475 407.069 503.303 406.107 504.159 406.081ZM498.828 394.799C499.255 392.257 496.093 392.971 497.051 389.961C497.203 387.691 501.276 388.961 500.609 385.933C499.563 385.807 498.081 386.073 497.937 385.128C499.693 372.376 505.987 359.241 504.164 348.051C503.133 358.928 500.124 368.032 498.828 378.675C497.427 378.749 495.739 378.569 496.156 380.287C495.885 381.873 497.355 381.895 497.937 382.705C495.695 384.169 498.333 390.053 494.375 389.961C495.919 394.485 491.383 399.611 494.375 406.081C495.784 402.252 494.983 396.423 498.828 394.799ZM492.597 406.883C493.265 412.876 489.065 418.719 491.707 423.813C491.099 417.873 494.995 411.767 492.597 406.883ZM496.156 497.968C494.877 499.14 494.848 501.083 497.937 500.381C497.984 498.993 497.251 498.317 496.156 497.968ZM530.864 379.484C530.207 381.269 534.144 382.803 534.427 381.092C532.663 381.088 533.301 378.899 530.864 379.484ZM489.925 426.232C489.14 429.296 490.404 430.267 490.816 428.645C490.956 428.088 490.505 423.957 489.925 426.232ZM542.443 416.557C541.739 419.66 546.701 419.66 545.997 416.557C543.567 416.633 544.207 415.215 542.443 416.557ZM527.307 389.961C528.895 386.416 530.197 380.151 526.417 377.872C524.851 380.484 521.968 381.904 519.296 383.516C518.156 379.821 517.704 378.628 518.405 374.647C517.355 374.255 516.391 373.787 515.737 373.039C512.672 373.487 511.208 375.385 509.503 377.067C508.448 375.391 504.049 377.433 505.055 380.287C508.735 381.371 509.265 378.999 510.393 378.675C512.705 378.02 515.209 379.143 516.624 377.067C520.339 385.069 512.636 398.436 520.187 402.856C523.011 400.311 524.361 396.423 526.417 393.191C527.817 393.532 527.176 395.719 529.979 394.799C530.721 393.861 531.152 392.641 530.864 390.767C529.54 390.632 527.585 391.059 527.307 389.961ZM507.727 457.665C499.596 456.792 500.297 467.829 505.945 468.944C504.145 465.039 510.233 462.417 507.727 457.665ZM518.405 373.841C520.435 374.065 521.752 373.651 521.968 372.229C520.645 370.959 517.992 371.339 518.405 373.841ZM495.265 200.553C495.776 200.064 497.352 196.733 495.265 196.528C495.797 197.957 492.653 199.873 495.265 200.553ZM491.707 143.339C492.332 142.735 493.923 139.383 490.816 140.105C490.969 141.316 490.5 143.081 491.707 143.339ZM491.707 212.641C493.78 213.368 492.219 207.155 491.707 210.228C491.424 219.64 482.957 221.649 484.583 232.793C494.113 231.359 489.677 218.749 491.707 212.641ZM482.805 172.345C481.003 173.556 481.753 174.912 481.024 176.38C480.872 176.68 479.404 176.789 479.243 177.183C478.276 179.572 478.96 182.353 478.357 185.244C477.604 188.799 474.676 192.319 476.58 194.917C477.537 186.916 485.139 180.647 482.805 172.345ZM503.273 171.539C503.467 169.765 505.451 165.536 504.164 165.088C503.767 166.68 500.861 170.079 503.273 171.539ZM468.564 175.575C468.217 176.388 469.437 176.979 469.451 177.183C469.919 183.205 471.704 186.696 472.123 190.883C472.312 192.769 471.223 194.712 471.236 196.528C471.256 201.453 473.755 206.139 473.013 211.029C473.296 212.325 474.279 210.975 473.904 209.421C473.975 207.688 473.805 206.117 473.904 204.584C474.068 201.887 475.651 198.895 475.685 196.528C475.685 196.56 473.937 195.843 473.904 195.725C473.667 194.965 474.819 194.72 474.795 194.112C474.653 190.955 474.068 190.525 473.013 188.469C471.084 184.699 470.053 181.303 470.341 177.183C470.523 174.548 473.684 171.496 473.904 168.317C474.119 165.187 474.367 161.808 470.341 159.445C469.417 161.957 467.943 164.279 467.673 166.701C467.137 171.539 469.332 173.747 468.564 175.575ZM499.719 256.975C499.664 257.465 499.584 257.924 498.828 257.781V259.389C501.015 260.647 501.44 256.655 499.719 256.975ZM497.047 228.767C496.904 227.281 499.144 222.16 497.047 223.929C498.009 225.989 494.337 227.771 497.047 228.767ZM499.719 337.575V335.156H497.937C497.887 336.187 496.795 336.271 497.047 337.575H499.719ZM500.609 182.016C500.124 179.639 503.133 176.329 501.492 175.575C501.099 177.156 498.195 180.559 500.609 182.016ZM496.156 207.809C497.027 206.433 499.415 202.859 497.047 202.165C497.284 205.071 495.401 206.049 495.265 208.616C495.987 209.809 495.531 208.797 496.156 207.809ZM498.828 110.288C498.132 112.077 496.953 113.433 497.047 115.932C499.8 116.48 500.749 111.313 498.828 110.288ZM220.227 490.711C219.957 491.801 218.961 492.248 219.336 493.932C223.477 494.908 223.616 490.728 220.227 490.711ZM158.82 402.856C157.676 403.916 157.676 405.828 158.82 406.883C162.817 407.297 161.745 402.667 158.82 402.856ZM149.919 407.689C149.868 408.183 149.779 408.647 149.028 408.495C148.757 410.623 150.26 411.145 152.585 410.915C152.839 408.807 152.261 407.448 149.919 407.689ZM212.22 522.947C212.36 523.897 212.068 525.235 213.111 525.365C213.655 524.609 215.183 522.395 212.22 522.947ZM214.001 495.544C213.795 496.043 215.348 497.275 215.787 497.156C218.125 496.511 215.208 492.628 214.001 495.544ZM138.344 437.519C139.531 438.561 141.653 438.579 141.907 436.708C140.725 435.657 138.593 435.648 138.344 437.519ZM171.277 385.933C172.219 383.257 173.915 382.435 170.387 381.092C169.163 382.132 168.841 385.913 171.277 385.933ZM399.024 152.971C405.651 144.871 413.421 133.199 421.272 125.568C421.943 124.917 421.563 123.913 422.163 123.149C422.453 122.769 423.611 122.74 423.935 122.339C424.501 121.668 424.361 120.524 424.821 119.924C426.569 117.708 428.511 115.691 430.175 113.479C431.011 112.361 431.847 111.491 432.841 110.249C434.829 107.78 435.856 105.215 437.295 102.995C437.599 102.527 438.713 101.905 439.068 101.387C439.524 100.72 439.397 99.6214 439.963 98.9681C442.643 95.8694 447.472 94.54 448.864 90.9054C449.645 88.8667 449.283 86.0974 448.864 83.6494C447.724 83.608 447.633 82.6201 446.193 82.8427C443.783 85.084 442.571 85.6667 440.853 88.4867C438.693 92.0453 436.063 97.144 434.623 99.7734C433.989 100.921 434.357 101.884 433.732 102.995C432.149 105.819 429.263 108.333 427.503 111.06C426.983 111.867 427.041 112.808 426.612 113.479C425.123 115.809 423.88 117.721 422.163 119.924C421.149 121.216 419.613 121.853 418.6 123.149C417.587 124.445 416.996 126.556 415.932 127.983C415.484 128.577 414.645 128.823 414.151 129.595C413.028 131.351 412.464 132.532 411.479 133.631C408.385 137.057 405.951 140.684 403.469 144.103C401.64 146.619 397.773 149.433 399.024 152.971ZM327.043 518.92C324.616 518.004 317.719 512.12 316.36 516.497C320.196 514.18 324.072 520.701 327.043 518.92ZM459.661 148.972C459.86 149.597 459.683 150.56 460.552 150.583C460.548 151.032 461.269 151.501 461.448 150.583C459.648 148.221 460.64 148.305 458.771 146.551C459.692 147.424 455.372 146.697 456.989 144.937C454.06 144.976 453.588 147.239 453.432 149.78C455.339 151.519 458.4 150.193 459.661 148.972ZM444.533 105.447C444.66 104.497 446.117 103.623 444.533 103.036C444.404 103.981 442.947 104.86 444.533 105.447ZM247.824 117.54C249.551 115.125 251.412 107.245 246.933 106.252C245.929 109.009 244.873 115.991 247.824 117.54ZM448.979 140.105C455.011 140.228 453.989 130.949 451.651 128.016C450.928 132.621 447.62 135.867 448.979 140.105ZM468.564 215.871C467.385 224.473 461.127 228.483 461.443 238.441C469.628 237.512 467.905 227.745 468.564 219.899C468.732 217.868 470.995 217.139 468.564 215.871ZM471.236 220.704C470.973 221.197 469.024 223.807 471.236 223.929C470.383 222.431 473.899 221.236 471.236 220.704ZM578.933 277.932H577.148C576.16 279.088 576.191 279.895 578.043 280.347C578.005 279.237 578.465 278.583 578.933 277.932ZM579.824 244.887C581.268 243.776 584.227 244.101 583.379 241.661C578.376 242.767 573.977 244.431 572.703 248.913C575.367 250.632 577.595 246.6 579.824 244.887ZM573.589 290.025C574.139 289.265 575.663 287.045 572.703 287.603C572.843 288.552 572.547 289.891 573.589 290.025ZM530.864 275.509C530.916 274.125 530.187 273.445 529.088 273.091C527.817 274.272 527.78 276.215 530.864 275.509ZM571.812 260.195C569.467 259.951 568.892 261.313 569.137 263.42C571.483 263.665 572.061 262.305 571.812 260.195ZM553.119 215.871C555.591 212.023 550.196 213.916 553.119 215.871V215.871ZM583.379 278.739C579.879 281.875 575.143 287.763 577.148 293.243C583.801 292.191 588.136 282.968 583.379 278.739ZM627.884 190.081C628.336 189.836 631.072 189.655 631.447 189.275C632.185 188.516 631.037 186.273 632.337 186.051C628.757 186.84 625.073 187.528 625.212 191.689C627.04 192.175 627.116 190.495 627.884 190.081ZM525.527 288.409C527.281 288.649 527.295 287.32 528.201 286.792C528.249 287.287 528.332 287.753 529.088 287.603V285.985C529.037 285.5 528.953 285.036 528.201 285.184C528.464 287.307 524.745 285.821 525.527 288.409ZM637.677 169.931C636.276 171.884 634.363 173.371 635.005 177.183C640.125 177.845 640.176 171.839 637.677 169.931ZM624.325 199.748C615.235 199.207 611.74 211.435 617.209 216.677C623.532 214.892 626.588 206.724 624.325 199.748ZM621.653 174.767C621.46 174.135 620.908 173.827 619.872 173.961C617.577 175.721 615.28 178.731 617.205 182.02C621.84 182.449 621.731 178.592 621.653 174.767ZM622.544 194.917C624.073 193.609 624.756 191.545 624.325 188.469C620.337 188.549 620.252 193.196 622.544 194.917ZM520.187 282.769C519.068 285.5 516.365 288.127 515.737 291.635C515.185 294.695 516.792 298.135 516.624 300.493C516.143 299.045 518.219 298.096 519.296 296.472C521.267 293.491 524.917 283.529 520.187 282.769ZM510.393 165.088C511.148 170.627 507.101 176.059 509.503 180.407C510.052 171.496 515.391 162.64 513.065 153.809C512.479 155.964 512.691 158.843 511.284 160.256C510.576 156.124 513.163 154.972 513.065 151.392C509.367 151.885 511.124 155.647 510.393 158.639C509.659 161.679 505.823 165.427 508.612 167.516C509.047 166.563 509.563 165.684 510.393 165.088ZM527.307 98.1947C527.425 97.0174 527.999 94.6201 526.417 94.1641C525.323 97.212 523.432 99.5281 523.745 103.839C525.632 103.952 527.113 100.137 527.307 98.1947ZM507.727 184.437C509.376 184.315 508.271 181.707 509.503 181.213C506.789 180.111 507.004 187.456 507.727 184.437ZM514.847 145.745C513.825 146.697 513.841 148.601 513.956 150.583C514.451 152.768 516.388 145.411 514.847 145.745ZM505.945 338.376C505.367 340.639 503.527 340.964 503.273 343.217C506.781 341.925 503.585 346.696 505.945 346.439C506.476 338.748 507.776 331.116 509.503 326.284C510.836 322.577 512.284 319.851 513.065 316.617C514.315 311.433 516.096 308.568 516.624 304.528C514.915 304.199 515.923 301.401 513.065 302.109C509.288 305.019 509.388 307.847 507.727 313.388C506.932 316.031 505.256 319.272 505.055 321.455C504.585 326.631 507.224 333.433 505.945 338.376ZM506.836 192.496C506.324 190.343 509.469 187.46 506.836 186.051C507.864 188.667 504.112 191.001 506.836 192.496ZM509.503 146.551C509.828 145.161 512.195 141.575 510.393 140.916C509.419 141.721 507.063 145.309 509.503 146.551ZM519.296 125.597C516.421 124.876 518.041 128.227 516.624 128.827C518.972 129.067 518.919 127.139 519.296 125.597ZM505.945 373.841C499.791 374.756 504.812 379.307 505.945 373.841V373.841ZM516.624 240.856C523.217 240.911 524.085 235.791 525.527 231.185C521.693 229.391 526.417 224.609 521.968 223.123C518.328 227.044 512.639 235.077 516.624 240.856ZM521.968 94.9707C522.229 94.4761 524.184 91.8721 521.968 91.7454C521.705 92.248 519.755 94.848 521.968 94.9707ZM516.624 364.171C515.075 365.863 513.711 370.084 516.624 371.427C517.645 370.405 518.415 365.075 516.624 364.171ZM518.405 267.452C518.544 268.401 518.252 269.74 519.296 269.869C519.84 269.115 521.372 266.899 518.405 267.452ZM467.673 157.837C467.909 156.736 467.125 154.696 466.783 156.229C466.541 157.327 467.331 159.369 467.673 157.837ZM258.507 491.517C255.899 492.299 256.507 490.808 254.944 489.905C254.244 489.5 253.695 489.457 253.168 489.099C252.429 488.596 252.851 488.297 251.387 488.293C252.256 488.297 247 489.867 246.933 489.905C245.565 490.711 239.808 498.081 239.812 497.968C239.593 502.784 243.996 504.661 251.387 505.219C254.788 504.003 254.827 499.736 258.507 498.777C259.444 495.401 256.629 493.307 258.507 491.517ZM235.36 516.497C236.947 517.215 237.627 518.751 240.703 518.113C245.029 512.255 234.469 508.751 235.36 516.497ZM259.397 500.381C258.596 502.981 262.303 501.513 262.956 502.801C263.227 500.673 261.099 500.719 259.397 500.381ZM238.036 428.645C243.375 428.485 246.524 431.297 254.059 431.065C254.949 432.14 254.899 434.061 256.725 434.289C256.764 433.18 256.304 432.521 255.835 431.875C264.011 432.473 269.152 430.179 276.307 431.065C276.353 430.621 276.256 430.308 276.109 430.043C276.223 430.023 276.125 429.916 275.893 429.752C275.505 429.321 274.948 429.047 274.529 428.645C274.163 428.296 273.745 428.257 273.289 428.316C271.909 427.633 270.861 427.191 272.424 428.06C272.457 428.233 272.529 428.321 272.58 428.452C271.596 428.689 270.465 428.975 269.187 427.84C269.6 431.179 265.024 429.984 262.956 431.065C262.995 429.959 262.533 429.296 262.065 428.645C254.105 427.799 248.267 425.028 239.812 424.62C239.433 426.16 237.272 426.076 238.036 428.645ZM228.239 517.304C226.613 519.216 225.917 521.968 227.348 524.56C235.132 526.94 235.865 515.657 228.239 517.304ZM238.927 554.384C239.817 554.38 239.981 555.035 240.703 555.187C240.699 554.38 241.425 554.228 241.589 553.579C240.699 553.579 240.535 552.924 239.812 552.772C239.817 553.579 239.091 553.731 238.927 554.384ZM260.288 512.471C259.58 515.26 261.276 515.872 262.065 517.304C266.197 516.749 268.561 514.597 269.187 510.859C264.932 509.941 264.269 511.555 260.288 512.471ZM261.179 493.932C261.095 495.207 258.904 494.565 259.397 496.351C260.732 496.215 262.681 496.633 262.956 495.544C262.264 495.367 261.2 495.528 261.179 494.739C261.673 494.743 262.184 494.088 261.179 493.932ZM260.288 451.22C259.541 452.481 256.439 455.707 258.507 456.86C257.891 454.175 260.343 455.559 261.179 456.048C260.829 453.592 263.517 451.945 260.288 451.22ZM303.9 507.633C304.233 507.772 302.076 509.169 302.119 507.633C302.616 507.633 303.132 506.983 302.119 506.827C302.105 508.16 299.649 507.275 299.447 508.439C301.912 508.305 302.507 509.676 301.228 510.859C306.905 508.183 311.468 514.771 315.473 513.272C311.788 511.111 307.011 510.883 303.9 508.439C303.972 508.499 305.056 508.119 303.9 507.633ZM304.791 489.905C303.52 489.711 303.292 488.58 302.119 488.293C301.341 489.948 304.427 491.907 304.791 489.905ZM285.205 503.607C285.475 506.899 283.972 503.468 281.647 504.413C281.093 509.575 280.081 505.269 279.865 505.219C279.933 505.232 279.748 506.228 278.975 506.021C278.511 505.899 276.476 503.455 276.307 505.219C278.653 506.633 275.116 508.583 274.529 506.021C273.309 507.055 273.309 509.828 274.529 510.855C278.439 511.212 278.421 509.271 278.975 508.439C280.865 510.103 285.141 507.081 288.763 507.633C288.515 505.451 285.508 505.749 285.205 503.607ZM284.315 500.381C286.521 503.007 290.772 498.175 287.877 496.351C288.307 499.157 285.648 499.165 284.315 500.381ZM304.791 630.141C308.661 623.06 296.104 628.753 304.791 630.141V630.141ZM293.221 503.607C289.864 504.523 289.168 502.829 287.877 505.219C289.464 504.729 291.575 507.579 292.325 505.219C291.785 505.168 291.275 505.096 291.435 504.413C292.127 504.227 293.195 504.387 293.221 503.607ZM289.659 507.633C293.064 509.173 292.9 508.617 295.888 507.633C297.808 507.009 299.675 507.869 299.447 506.021C296.188 504.62 292.997 506.809 289.659 507.633Z" fill="#BDD4E4"/>
</svg>
