<svg width="110" height="110" viewBox="0 0 110 110" fill="none" xmlns="http://www.w3.org/2000/svg">
<path d="M67.8906 10.3125C75.472 10.3125 81.6406 16.4811 81.6406 24.0625C81.6385 26.5199 80.9782 28.9319 79.7284 31.0477C78.4786 33.1635 76.6848 34.9059 74.5336 36.0938H97.9687V51.5625H92.8125V106.562H17.1875V51.5625H12.0312V36.0938H35.4664C33.3152 34.9059 31.5214 33.1635 30.2715 31.0477C29.0217 28.9319 28.3614 26.5199 28.3593 24.0625C28.3593 16.4811 34.5279 10.3125 42.1093 10.3125C48.0218 10.3125 53.0612 14.0714 55 19.3187C56.9387 14.0714 61.9781 10.3125 67.8906 10.3125ZM67.8906 12.0312C61.6636 12.0312 56.5297 16.7888 55.9229 22.8594C56.7954 21.6383 57.9463 20.6428 59.2803 19.9553C60.6143 19.2678 62.093 18.9082 63.5937 18.9062C66.1 18.909 68.5029 19.9058 70.2751 21.678C72.0473 23.4502 73.0441 25.8531 73.0468 28.3594C73.0454 29.8602 72.6861 31.3391 71.9985 32.6731C71.311 34.0072 70.3152 35.1581 69.0937 36.0302C75.1626 35.4252 79.9218 30.2913 79.9218 24.0625C79.9218 17.4281 74.5233 12.0312 67.8906 12.0312ZM42.1093 12.0312C35.4767 12.0312 30.0781 17.4281 30.0781 24.0625C30.0781 30.2913 34.8373 35.4234 40.9062 36.0302C39.6847 35.1581 38.6889 34.0072 38.0014 32.6731C37.3139 31.3391 36.9545 29.8602 36.9531 28.3594C36.9531 23.1464 41.195 18.9062 46.4062 18.9062C47.907 18.9078 49.3858 19.2672 50.7199 19.9547C52.054 20.6422 53.2048 21.638 54.077 22.8594C53.4703 16.7905 48.3364 12.0312 42.1093 12.0312ZM63.5937 20.625C59.3295 20.625 55.8593 24.0952 55.8593 28.3594V36.0938H63.5937C65.6443 36.0915 67.6103 35.2759 69.0602 33.8259C70.5102 32.3759 71.3258 30.41 71.3281 28.3594C71.3281 24.0952 67.8579 20.625 63.5937 20.625ZM46.4062 20.625C42.142 20.625 38.6718 24.0952 38.6718 28.3594C38.6718 32.6236 42.142 36.0938 46.4062 36.0938H54.1406V28.3594C54.1406 24.0952 50.6704 20.625 46.4062 20.625ZM96.25 37.8125H78.9714C80.575 38.8148 81.8978 40.2081 82.8156 41.8615C83.7334 43.515 84.2162 45.3745 84.2187 47.2656V49.8438H96.25V37.8125ZM73.0468 37.8125H67.0312V37.8658C68.6102 38.8742 69.9101 40.2638 70.8112 41.9064C71.7123 43.5491 72.1856 45.3921 72.1875 47.2656V55.9058L77.3437 52.2242L82.5 55.9058V47.2656C82.5 42.0527 78.2581 37.8125 73.0468 37.8125ZM61.0156 37.8125H48.9843C47.4375 37.8125 45.9783 38.1941 44.6875 38.8558V49.8438H65.3125V38.8558C63.9837 38.1707 62.5105 37.813 61.0156 37.8125ZM42.9687 37.8125H36.9531C31.7418 37.8125 27.5 42.0527 27.5 47.2656V64.4995L32.6562 60.818L37.8125 64.4995V47.2656C37.8148 45.3921 38.2883 43.5494 39.1894 41.9068C40.0904 40.2642 41.39 38.8746 42.9687 37.8658V37.8125ZM31.0286 37.8125H13.75V49.8438H25.7812V47.2656C25.7837 45.3745 26.2665 43.515 27.1843 41.8615C28.1021 40.2081 29.4249 38.8148 31.0286 37.8125ZM67.0312 39.9816V49.8438H70.4687V47.2656C70.4687 45.8731 70.1605 44.4978 69.5662 43.2384C68.9719 41.979 68.1062 40.8668 67.0312 39.9816ZM42.9687 39.9816C41.8938 40.8668 41.0281 41.979 40.4337 43.2384C39.8394 44.4978 39.5312 45.8731 39.5312 47.2656V49.8438H42.9687V39.9816ZM91.0937 51.5625H84.2187V59.2505L77.3437 54.3383L70.4687 59.2505V51.5625H61.875V104.844H91.0937V51.5625ZM60.1562 51.5625H49.8437V104.844H60.1562V51.5625ZM48.125 51.5625H39.5312V67.8442L32.6562 62.932L25.7812 67.8442V51.5625H18.9062V104.844H48.125V51.5625ZM87.6562 99.6875V101.406H85.9375V99.6875H87.6562ZM84.2187 99.6875V101.406H82.5V99.6875H84.2187ZM80.7812 99.6875V101.406H79.0625V99.6875H80.7812Z" fill="black"/>
</svg>
