<svg width="110" height="110" viewBox="0 0 110 110" fill="none" xmlns="http://www.w3.org/2000/svg">
<path d="M45.2306 15.4825C48.6097 15.4825 51.9922 16.7612 54.5703 19.3291C55.7955 20.55 56.7676 22.0007 57.4309 23.5981C58.0942 25.1955 58.4357 26.9082 58.4357 28.6378C58.4357 30.3675 58.0942 32.0801 57.4309 33.6775C56.7676 35.2749 55.7955 36.7257 54.5703 37.9466C54.5545 37.9606 54.5385 37.9744 54.5222 37.9878L35.5919 55.6187C35.2744 55.9143 34.8569 56.0788 34.4231 56.0794H34.3887C33.955 56.0788 33.5375 55.9143 33.22 55.6187L14.2794 37.9844C8.90656 32.9828 9.08875 24.4612 14.2416 19.3291C14.4025 19.1668 14.5941 19.0382 14.8053 18.9509H14.8122C19.9925 14.3103 27.9262 14.3619 32.9106 19.3291L34.4094 20.8209L35.8978 19.3291C37.124 18.1053 38.5794 17.1354 40.1808 16.4747C41.7823 15.8141 43.4983 15.4758 45.2306 15.4791V15.4825ZM45.2306 18.8856V18.8925C42.7384 18.8925 40.2463 19.8516 38.3213 21.7662L35.6159 24.4578C35.2939 24.7779 34.8583 24.9576 34.4042 24.9576C33.9501 24.9576 33.5145 24.7779 33.1925 24.4578L30.4872 21.7662C29.5818 20.8554 28.5053 20.1325 27.3195 19.6392C26.1337 19.146 24.8621 18.892 23.5778 18.892C22.2935 18.892 21.0219 19.146 19.8361 19.6392C18.6504 20.1325 17.5738 20.8554 16.6684 21.7662C16.665 21.7663 16.6616 21.7663 16.6581 21.7662C12.8184 25.5956 12.705 31.8175 16.6237 35.4681L34.4025 52.0197L52.14 35.5094C53.0534 34.6125 53.7789 33.5426 54.2742 32.3622C54.7694 31.1818 55.0245 29.9145 55.0245 28.6344C55.0245 27.3543 54.7694 26.087 54.2742 24.9066C53.7789 23.7262 53.0534 22.6563 52.14 21.7594C51.2341 20.8492 50.1575 20.1268 48.9718 19.6337C47.7861 19.1405 46.5148 18.8863 45.2306 18.8856ZM104.83 47.2862C105.286 47.2862 105.723 47.4673 106.045 47.7897C106.368 48.112 106.549 48.5492 106.549 49.005V84.009C106.549 84.4649 106.368 84.9021 106.045 85.2244C105.723 85.5467 105.286 85.7278 104.83 85.7278H86.0234C85.5676 85.7278 85.1304 85.5467 84.8081 85.2244C84.4858 84.9021 84.3047 84.4649 84.3047 84.009V81.479L52.1984 92.3553C52.1542 92.3686 52.1095 92.38 52.0644 92.3897C48.3278 93.3384 44.0138 92.7747 40.755 90.585L7.5075 72.5175C7.49834 72.5176 7.48917 72.5176 7.48 72.5175L6.66531 72.0534C5.32137 71.2956 4.3018 70.0715 3.79948 68.6126C3.29716 67.1538 3.34693 65.5615 3.93938 64.1369C4.99469 61.6447 7.0675 60.5 8.68656 60.2628V60.2491C9.67428 60.1092 10.6806 60.1854 11.6359 60.4725C11.6933 60.4935 11.7496 60.5176 11.8044 60.5447L30.1331 69.0456C30.1091 68.8119 30.0575 68.5919 30.0575 68.3547C30.0575 64.4909 33.2544 61.3525 37.1353 61.3525H52.3978C52.4597 61.2356 52.5353 61.0706 52.5972 60.9606C53.4124 59.4849 54.4397 58.1368 55.6463 56.9594C58.9947 53.696 63.49 51.8767 68.1656 51.8925H84.3047V49.005C84.3047 48.5492 84.4858 48.112 84.8081 47.7897C85.1304 47.4673 85.5676 47.2862 86.0234 47.2862H104.83ZM103.111 50.7237H87.7422V82.2903H103.111V50.7237ZM84.3081 55.33H68.1656C65.8404 55.3201 63.5476 55.8745 61.4837 56.9456C59.4199 58.0167 57.6468 59.5726 56.3166 61.4797C56.0622 61.8509 55.8216 62.2325 55.605 62.6278C55.3334 63.1125 55.1512 63.4116 55.0069 63.7484L54.5634 64.79H37.1353C35.0728 64.79 33.495 66.3644 33.495 68.3547C33.495 69.8466 34.3853 71.0944 35.695 71.6306L35.7191 71.6375C36.1522 71.8094 36.6266 71.9125 37.1353 71.9125H61.0431V75.35H37.1353C36.4134 75.35 35.7363 75.2056 35.0797 75.0062C34.8754 74.9926 34.6751 74.9425 34.4884 74.8584L10.5016 63.7347C10.4706 63.7347 9.90344 63.5491 9.18501 63.6556C8.44594 63.7587 7.74125 63.965 7.10188 65.4672C6.82433 66.1138 6.7996 66.841 7.03258 67.5049C7.26556 68.1688 7.73928 68.7211 8.36 69.0525L9.16438 69.4994L42.5322 87.6425C42.5805 87.6689 42.6275 87.6975 42.6731 87.7284C44.9419 89.2547 48.4619 89.7566 51.2119 89.0587H51.2188L84.3047 77.8525V55.33H84.3081Z" fill="black"/>
</svg>
