<svg width="110" height="110" viewBox="0 0 110 110" fill="none" xmlns="http://www.w3.org/2000/svg">
  <path d="M27.4313 7.86155C29.1468 7.76606 30.856 8.13997 32.375 8.94308C33.894 9.74619 35.1654 10.9481 36.0525 12.4197L50.4212 36.3103C50.4453 36.3481 50.4487 36.4031 50.4694 36.4444L62.1637 39.6653C62.3366 39.3102 62.6264 39.0254 62.9845 38.8589C63.3426 38.6924 63.7471 38.6542 64.13 38.7509L72.3903 41.0369C72.4686 40.4683 72.5845 39.9056 72.7375 39.3525C73.2704 37.3914 74.1876 35.5556 75.4356 33.9518C76.6836 32.3479 78.2378 31.0078 80.0078 30.0094C81.7743 29.0027 83.7224 28.3554 85.74 28.1046C87.7577 27.8539 89.805 28.0047 91.7641 28.5484C95.7167 29.6438 99.0737 32.2618 101.099 35.8285C103.124 39.3951 103.653 43.6194 102.568 47.575C101.663 50.8381 99.7152 53.7152 97.0212 55.7668C94.3272 57.8183 91.0356 58.9314 87.6494 58.9359C86.2881 58.9359 84.9097 58.7503 83.5416 58.3756L60.4759 52.0128C60.037 51.8908 59.6643 51.5998 59.4395 51.2035C59.2146 50.8073 59.1559 50.3381 59.2763 49.8987L59.29 49.8644C58.3584 49.9228 57.4991 50.2803 56.7325 50.8028C55.3988 51.9097 54.7044 53.5425 54.8659 55.2166L54.9003 55.1959C55.1054 55.1015 55.3273 55.0488 55.5529 55.041C55.7786 55.0331 56.0036 55.0703 56.2147 55.1503C56.4259 55.2303 56.619 55.3515 56.7829 55.5069C56.9467 55.6622 57.078 55.8487 57.1691 56.0553L67.0313 77.8491C68.0929 80.2029 68.5487 82.7849 68.3572 85.3599C68.1656 87.935 67.3328 90.4212 65.9346 92.592C64.5363 94.7628 62.6171 96.5492 60.3518 97.7886C58.0865 99.0279 55.5471 99.6807 52.965 99.6875C49.9877 99.6892 47.0731 98.8324 44.5704 97.2198C42.0676 95.6072 40.0829 93.3072 38.8541 90.5953C37.1671 86.8591 37.0312 82.6063 38.476 78.7699C39.9208 74.9336 42.8284 71.827 46.5609 70.1319C47.0855 69.8938 47.6252 69.6905 48.1766 69.5234L44.6463 61.7203C44.5522 61.5147 44.4999 61.2925 44.4922 61.0665C44.4845 60.8405 44.5217 60.6153 44.6016 60.4037C44.7322 60.0857 44.9564 59.8148 45.2444 59.6269L40.3838 48.8847C40.3356 48.7816 40.3391 48.6681 40.3116 48.5616L14.1075 37.9259H14.1006C11.956 37.0562 10.2055 35.4291 9.18147 33.3538C8.15742 31.2784 7.93115 28.8993 8.54563 26.6681C8.60558 26.451 8.7078 26.2478 8.84642 26.0703C8.98505 25.8927 9.15734 25.7443 9.35345 25.6334C9.75066 25.4103 10.2189 25.35 10.6597 25.465L32.505 31.4875L23.2134 10.9656C23.1171 10.7606 23.0626 10.5384 23.0532 10.3121C23.0438 10.0858 23.0797 9.85984 23.1588 9.64756C23.2379 9.43528 23.3585 9.24093 23.5137 9.07591C23.6689 8.91089 23.8555 8.77851 24.0625 8.68655C25.1251 8.2066 26.2671 7.92691 27.4313 7.86155ZM27.1494 11.3403L36.8156 32.6769L45.705 35.1278L33.11 14.1934C32.5017 13.1904 31.6143 12.3865 30.5563 11.8798C29.4983 11.3731 28.3156 11.1856 27.1528 11.3403H27.1494ZM11.6428 29.3116C11.6698 30.4844 12.0388 31.6239 12.7044 32.59C13.37 33.5561 14.3033 34.3067 15.3897 34.7497L52.6969 49.885C53.2198 49.199 53.846 48.5983 54.5531 48.1044C54.7388 47.9497 54.9106 47.7881 55.1134 47.6472C55.22 47.5784 55.3472 47.5441 55.4641 47.4994C56.8969 46.6928 58.5324 46.3179 60.1734 46.42L61.1291 42.955L11.6428 29.3116ZM87.6563 31.4291C85.023 31.4324 82.4633 32.2979 80.3683 33.8932C78.2733 35.4885 76.7582 37.7259 76.0547 40.2634C75.8106 41.1469 75.6903 42.1025 75.6731 43.2712C75.6705 43.5345 75.6074 43.7937 75.4888 44.0287C75.3701 44.2637 75.1991 44.4683 74.9888 44.6268C74.7786 44.7852 74.5347 44.8932 74.2761 44.9425C74.0175 44.9918 73.751 44.981 73.4972 44.9109L64.8759 42.5322L63.0506 49.1597L84.4456 55.055C87.522 55.9032 90.8094 55.4956 93.5854 53.9216C96.3614 52.3476 98.3992 49.7361 99.2509 46.6606C99.6761 45.1384 99.7947 43.5469 99.6 41.9784C99.4053 40.41 98.901 38.8958 98.1166 37.5237C97.3395 36.1477 96.2975 34.9393 95.0508 33.9681C93.8042 32.997 92.3775 32.2824 90.8531 31.8656C89.7875 31.57 88.7081 31.4291 87.6563 31.4291ZM88.3334 34.9044C89.7455 35.0014 91.1113 35.448 92.3078 36.2041C93.5043 36.9602 94.494 38.002 95.1878 39.2356C95.7488 40.2163 96.1096 41.2985 96.2495 42.4196C96.3893 43.5407 96.3054 44.6784 96.0025 45.7669C95.3929 47.9615 93.939 49.8254 91.9587 50.9508C89.9784 52.0762 87.6331 52.3715 85.4356 51.7722C83.2392 51.1619 81.3741 49.7062 80.2485 47.7238C79.123 45.7414 78.8288 43.3938 79.4303 41.195C79.7279 40.1047 80.2391 39.0844 80.9342 38.1934C81.6293 37.3023 82.4946 36.5582 83.4797 36.0044C84.9523 35.1633 86.6421 34.7803 88.3334 34.9044ZM87.7113 38.3144C86.8313 38.3144 85.965 38.5412 85.1778 38.9881C84.0875 39.606 83.2595 40.5999 82.8487 41.7839C82.438 42.968 82.4725 44.2611 82.9458 45.4215C83.4191 46.5819 84.2989 47.5302 85.4206 48.0891C86.5424 48.6481 87.8292 48.7793 89.0407 48.4583C90.2522 48.1374 91.3052 47.3861 92.0031 46.3452C92.7009 45.3042 92.9957 44.0446 92.8324 42.8021C92.6691 41.5595 92.0588 40.419 91.1157 39.5937C90.1725 38.7684 88.9611 38.3148 87.7078 38.3178L87.7113 38.3144ZM47.8638 42.0269C48.0939 42.0237 48.3223 42.0668 48.5355 42.1536C48.7487 42.2404 48.9422 42.3692 49.1047 42.5322C49.4269 42.8545 49.6079 43.2916 49.6079 43.7473C49.6079 44.2031 49.4269 44.6402 49.1047 44.9625C48.7824 45.2847 48.3453 45.4657 47.8895 45.4657C47.4338 45.4657 46.9967 45.2847 46.6744 44.9625C46.3522 44.6402 46.1712 44.2031 46.1712 43.7473C46.1712 43.2916 46.3522 42.8545 46.6744 42.5322C46.9906 42.2167 47.4171 42.0367 47.8638 42.0303V42.0269ZM44.8353 50.4075L48.3209 58.1006L51.5866 56.6191C51.3253 55.4503 51.3288 54.2747 51.5419 53.1334L44.8353 50.4075ZM54.7525 59.0356L48.4859 61.8681L52.1641 70.015C52.2725 70.2536 52.3247 70.5139 52.3166 70.7758C52.3086 71.0378 52.2405 71.2944 52.1176 71.5259C51.9947 71.7574 51.8203 71.9575 51.6079 72.111C51.3954 72.2644 51.1506 72.3671 50.8922 72.4109C49.7475 72.6103 48.8228 72.8853 47.9841 73.2634C45.0809 74.5838 42.8193 77.0007 41.6944 79.985C40.5695 82.9693 40.673 86.2778 41.9822 89.1859C43.3038 92.0887 45.7218 94.3495 48.7068 95.4731C51.6918 96.5967 55.0004 96.4917 57.9081 95.1809C60.8107 93.86 63.0714 91.4426 64.195 88.4582C65.3187 85.4738 65.2137 82.1656 63.9031 79.2584L54.7525 59.0356ZM52.69 75.6937C53.8037 75.6559 54.9244 75.8381 56.0003 76.2438C57.0584 76.6395 58.0274 77.2412 58.8511 78.0142C59.6749 78.7872 60.337 79.7161 60.7991 80.7469C61.2682 81.7736 61.5288 82.8832 61.566 84.0114C61.6032 85.1396 61.4161 86.264 61.0156 87.3194C60.2078 89.4678 58.6094 91.1694 56.5159 92.1147C55.385 92.6269 54.1819 92.8916 52.9788 92.8916C51.9544 92.8916 50.93 92.7059 49.9434 92.3347C48.8854 91.939 47.9164 91.3372 47.0926 90.5642C46.2689 89.7912 45.6068 88.8624 45.1447 87.8316C44.6756 86.8048 44.4149 85.6952 44.3777 84.567C44.3406 83.4388 44.5276 82.3144 44.9281 81.2591C45.3226 80.2013 45.9236 79.2326 46.6962 78.4093C47.4687 77.586 48.3972 76.9247 49.4278 76.4637C50.4549 75.9942 51.5648 75.7326 52.6934 75.6937H52.69ZM52.9719 79.1312C52.25 79.1312 51.5247 79.2859 50.8441 79.5919C49.5859 80.1625 48.6303 81.1834 48.1456 82.4725C47.6575 83.7616 47.7056 85.1606 48.2728 86.4153C48.6557 87.2588 49.2587 87.9835 50.0184 88.5133C50.7781 89.0432 51.6666 89.3586 52.5904 89.4265C53.5141 89.4943 54.4391 89.312 55.2681 88.8988C56.0971 88.4857 56.7995 87.8568 57.3015 87.0783C57.8034 86.2999 58.0864 85.4006 58.1207 84.4749C58.155 83.5493 57.9393 82.6315 57.4963 81.8181C57.0533 81.0046 56.3994 80.3255 55.6033 79.8521C54.8071 79.3787 53.8981 79.1285 52.9719 79.1278V79.1312Z" fill="black"/>
</svg>
